<svg width="60" height="62" viewBox="0 0 60 62" fill="none" xmlns="http://www.w3.org/2000/svg">
<path fill-rule="evenodd" clip-rule="evenodd" d="M8 3H52C54.7614 3 57 5.23858 57 8V9H3V8C3 5.23858 5.23858 3 8 3ZM3 12V52C3 54.7614 5.23858 57 8 57H52C54.7614 57 57 54.7614 57 52V12H3ZM0 8C0 3.58172 3.58172 0 8 0H52C56.4183 0 60 3.58172 60 8V52C60 56.4183 56.4183 60 52 60H8C3.58172 60 0 56.4183 0 52V8ZM10 6C10 6.55228 9.55229 7 9 7C8.44771 7 8 6.55228 8 6C8 5.44772 8.44771 5 9 5C9.55229 5 10 5.44772 10 6ZM17 7C17.5523 7 18 6.55228 18 6C18 5.44772 17.5523 5 17 5C16.4477 5 16 5.44772 16 6C16 6.55228 16.4477 7 17 7ZM14 6C14 6.55228 13.5523 7 13 7C12.4477 7 12 6.55228 12 6C12 5.44772 12.4477 5 13 5C13.5523 5 14 5.44772 14 6ZM32.5564 22L24.0858 46H27.2672L35.7377 22H32.5564ZM9.23629 32.7908L22 25.0778V28.583L12.9863 34.03L22 39.1138V42.5581L9.27519 35.3812L9 35.226V32.9336L9.23629 32.7908ZM50.7637 32.7908L38 25.0778V28.583L47.0137 34.03L38 39.1138V42.5581L50.7248 35.3812L51 35.226V32.9336L50.7637 32.7908Z" fill="#6A5ACD"/>
</svg>
