<svg width="386" height="174" viewBox="0 0 386 174" fill="none" xmlns="http://www.w3.org/2000/svg">
<path fill-rule="evenodd" clip-rule="evenodd" d="M122.695 1H306.414C310.28 1 313.414 4.13401 313.414 8V116.124H310.805V12.4036C310.805 7.98536 307.223 4.40364 302.805 4.40364H126.305C121.886 4.40364 118.305 7.98536 118.305 12.4036V83.04H119.305V12.4036C119.305 8.53764 122.439 5.40364 126.305 5.40364H302.805C306.671 5.40364 309.805 8.53764 309.805 12.4036V116.124H307.383C305.174 116.124 303.383 117.915 303.383 120.124V132.344C303.192 132.359 302.999 132.367 302.805 132.367H126.305C124.734 132.367 123.285 131.85 122.117 130.977V90.1527C122.117 86.2747 119.358 83.0411 115.695 82.3083V8C115.695 4.134 118.829 1 122.695 1ZM314.414 8V116.124H330.062C332.272 116.124 334.062 117.915 334.062 120.124V170C334.062 172.209 332.272 174 330.062 174H307.383C305.174 174 303.383 172.209 303.383 170V137.771H229.402L234.598 161.676H236.031C240.45 161.676 244.031 165.258 244.031 169.676V172V173H243.031H186.078H185.078V172V169.676C185.078 165.258 188.66 161.676 193.078 161.676H194.512L199.707 137.771H122.695C122.501 137.771 122.308 137.764 122.117 137.75V157.193C122.117 160.025 120.646 162.513 118.426 163.935H127.133H128.133V164.935V166C128.133 170.418 124.551 174 120.133 174H8C3.58172 174 0 170.418 0 166V164.935V163.935H1H9.70706C7.48705 162.513 6.01562 160.025 6.01562 157.193V90.1527C6.01562 85.7344 9.59735 82.1527 14.0156 82.1527H114.117C114.312 82.1527 114.504 82.1596 114.695 82.1733V8C114.695 3.58172 118.277 0 122.695 0H306.414C310.832 0 314.414 3.58172 314.414 8ZM303.383 133.347V136.771H229.185L228.992 135.884H200.117L199.924 136.771H122.695C122.501 136.771 122.308 136.763 122.117 136.747V132.185C123.335 132.935 124.769 133.367 126.305 133.367H302.805C302.999 133.367 303.192 133.36 303.383 133.347ZM14.0156 165.193C13.3165 165.193 12.6383 165.103 11.9919 164.935H1V166C1 169.866 4.13401 173 8 173H120.133C123.999 173 127.133 169.866 127.133 166V164.935H116.141C115.495 165.103 114.816 165.193 114.117 165.193H78.8047C78.8047 165.539 78.7581 165.874 78.6708 166.193C78.2325 167.792 76.7686 168.967 75.0301 168.967H53.1027C51.3643 168.967 49.9003 167.792 49.462 166.193C49.3747 165.874 49.3281 165.539 49.3281 165.193H14.0156ZM121.117 157.193C121.117 160.404 118.955 163.11 116.007 163.935H12.1254C9.17768 163.11 7.01562 160.404 7.01562 157.193V90.1527C7.01562 86.2867 10.1496 83.1527 14.0156 83.1527H114.117C117.983 83.1527 121.117 86.2867 121.117 90.1527V157.193ZM195.535 161.676L200.73 137.771H228.379L233.574 161.676H195.535ZM193.078 162.676H194.294L194.102 163.564H195.125H233.984H235.008L234.815 162.676H236.031C239.897 162.676 243.031 165.81 243.031 169.676V172H186.078V169.676C186.078 165.81 189.212 162.676 193.078 162.676ZM256.875 16.7273H130.727C129.07 16.7273 127.727 18.0704 127.727 19.7273V22.4618H259.371V23.4618H127.727V118.044C127.727 119.7 129.07 121.044 130.727 121.044H256.875C258.532 121.044 259.875 119.7 259.875 118.044V110.087C257.753 109.989 256.062 108.237 256.062 106.091V39.2291C256.062 37.0828 257.753 35.3313 259.875 35.2334V19.7273C259.875 18.0704 258.532 16.7273 256.875 16.7273ZM260.875 118.044V110.091H298.383C300.592 110.091 302.383 108.3 302.383 106.091V39.2291C302.383 37.02 300.592 35.2291 298.383 35.2291H260.875V19.7273C260.875 17.5181 259.084 15.7273 256.875 15.7273H130.727C128.517 15.7273 126.727 17.5181 126.727 19.7273V118.044C126.727 120.253 128.517 122.044 130.727 122.044H256.875C259.084 122.044 260.875 120.253 260.875 118.044ZM298.383 36.2291H260.875V39.3182V41.9636H300.578V42.9636H260.875V109.091H298.383C300.04 109.091 301.383 107.748 301.383 106.091V39.2291C301.383 37.5722 300.04 36.2291 298.383 36.2291ZM260.875 39.3182C260.875 38.797 261.279 38.3745 261.777 38.3745C262.276 38.3745 262.68 38.797 262.68 39.3182C262.68 39.8393 262.276 40.2618 261.777 40.2618C261.279 40.2618 260.875 39.8393 260.875 39.3182ZM260.473 41.9636H257.867V42.9636H260.473V108.204H259.875V109.085C258.306 108.988 257.062 107.685 257.062 106.091V39.2291C257.062 37.6352 258.306 36.3316 259.875 36.2349V37.1164H260.473V41.9636ZM133.344 19.8164C133.344 20.3375 132.94 20.76 132.441 20.76C131.943 20.76 131.539 20.3375 131.539 19.8164C131.539 19.2952 131.943 18.8727 132.441 18.8727C132.94 18.8727 133.344 19.2952 133.344 19.8164ZM138.457 20.76C138.955 20.76 139.359 20.3375 139.359 19.8164C139.359 19.2952 138.955 18.8727 138.457 18.8727C137.959 18.8727 137.555 19.2952 137.555 19.8164C137.555 20.3375 137.959 20.76 138.457 20.76ZM136.352 19.8164C136.352 20.3375 135.948 20.76 135.449 20.76C134.951 20.76 134.547 20.3375 134.547 19.8164C134.547 19.2952 134.951 18.8727 135.449 18.8727C135.948 18.8727 136.352 19.2952 136.352 19.8164ZM155.402 120.785V23.9055H156.402V120.785H155.402ZM161.617 28.18H199.215V27.18H161.617V28.18ZM206.133 35.7291H161.617V34.7291H206.133V35.7291ZM161.617 99.8964H195.305V98.8964H161.617V99.8964ZM193.5 31.9545H161.617V30.9545H193.5V31.9545ZM161.617 49.5691H183.875V48.5691H161.617V49.5691ZM192.898 60.8927H170.641V59.8927H192.898V60.8927ZM170.641 64.6673H188.086V63.6673H170.641V64.6673ZM191.094 72.2164H170.641V71.2164H191.094V72.2164ZM170.641 68.4418H185.078V67.4418H170.641V68.4418ZM182.672 57.1182H167.633V56.1182H182.672V57.1182ZM167.633 75.9909H182.672V74.9909H167.633V75.9909ZM170.039 53.3436H164.625V52.3436H170.039V53.3436ZM164.625 79.7655H170.039V78.7655H164.625V79.7655ZM163.422 83.54H161.617V82.54H163.422V83.54ZM268.695 39.3182C268.695 39.8393 268.291 40.2618 267.793 40.2618C267.295 40.2618 266.891 39.8393 266.891 39.3182C266.891 38.797 267.295 38.3745 267.793 38.3745C268.291 38.3745 268.695 38.797 268.695 39.3182ZM264.785 40.2618C265.284 40.2618 265.688 39.8393 265.688 39.3182C265.688 38.797 265.284 38.3745 264.785 38.3745C264.287 38.3745 263.883 38.797 263.883 39.3182C263.883 39.8393 264.287 40.2618 264.785 40.2618ZM284.336 50.8273H262.68V49.8273H284.336V50.8273ZM262.68 69.0709H295.164V68.0709H262.68V69.0709ZM292.758 72.2164H262.68V71.2164H292.758V72.2164ZM262.68 81.6527H290.953V80.6527H262.68V81.6527ZM280.125 84.7982H262.68V83.7982H280.125V84.7982ZM262.68 75.3618H295.164V74.3618H262.68V75.3618ZM287.344 78.5073H262.68V77.5073H287.344V78.5073ZM262.68 57.1182H284.336V56.1182H262.68V57.1182ZM284.336 53.9727H262.68V52.9727H284.336V53.9727ZM110.508 86.9273H17.625C13.759 86.9273 10.625 90.0613 10.625 93.9273V153.418C10.625 157.284 13.759 160.418 17.625 160.418H110.508C114.374 160.418 117.508 157.284 117.508 153.418V93.9273C117.508 90.0613 114.374 86.9273 110.508 86.9273ZM17.625 85.9273C13.2067 85.9273 9.625 89.509 9.625 93.9273V153.418C9.625 157.836 13.2067 161.418 17.625 161.418H110.508C114.926 161.418 118.508 157.836 118.508 153.418V93.9273C118.508 89.509 114.926 85.9273 110.508 85.9273H17.625ZM50.5138 166.193H77.619C77.2177 167.231 76.2099 167.967 75.0301 167.967H53.1027C51.9229 167.967 50.9151 167.231 50.5138 166.193ZM20.8438 93.2182H107.289C108.946 93.2182 110.289 94.5613 110.289 96.2182V97.38H17.8438V96.2182C17.8438 94.5613 19.1869 93.2182 20.8438 93.2182ZM17.8438 98.38H110.289V151.127C110.289 152.784 108.946 154.127 107.289 154.127H20.8438C19.1869 154.127 17.8438 152.784 17.8438 151.127V98.38ZM16.8438 96.2182C16.8438 94.009 18.6346 92.2182 20.8438 92.2182H107.289C109.498 92.2182 111.289 94.009 111.289 96.2182V151.127C111.289 153.336 109.498 155.127 107.289 155.127H20.8438C18.6346 155.127 16.8438 153.336 16.8438 151.127V96.2182ZM22.2578 95.6782C22.2578 96.1993 21.8538 96.6218 21.3555 96.6218C20.8571 96.6218 20.4531 96.1993 20.4531 95.6782C20.4531 95.157 20.8571 94.7345 21.3555 94.7345C21.8538 94.7345 22.2578 95.157 22.2578 95.6782ZM27.3711 96.6218C27.8694 96.6218 28.2734 96.1993 28.2734 95.6782C28.2734 95.157 27.8694 94.7345 27.3711 94.7345C26.8727 94.7345 26.4688 95.157 26.4688 95.6782C26.4688 96.1993 26.8727 96.6218 27.3711 96.6218ZM25.2656 95.6782C25.2656 96.1993 24.8616 96.6218 24.3633 96.6218C23.8649 96.6218 23.4609 96.1993 23.4609 95.6782C23.4609 95.157 23.8649 94.7345 24.3633 94.7345C24.8616 94.7345 25.2656 95.157 25.2656 95.6782ZM100.762 96.1782H33.3867V95.1782H100.762V96.1782ZM25.0547 107.058H42.3203C43.9772 107.058 45.3203 108.401 45.3203 110.058V129.738C45.3203 131.395 43.9772 132.738 42.3203 132.738H25.0547C23.3978 132.738 22.0547 131.395 22.0547 129.738V110.058C22.0547 108.401 23.3978 107.058 25.0547 107.058ZM21.0547 110.058C21.0547 107.849 22.8455 106.058 25.0547 106.058H42.3203C44.5294 106.058 46.3203 107.849 46.3203 110.058V129.738C46.3203 131.947 44.5294 133.738 42.3203 133.738H25.0547C22.8455 133.738 21.0547 131.947 21.0547 129.738V110.058ZM46.3203 136.44H21.0547V135.44H46.3203V136.44ZM46.3203 138.956H21.0547V137.956H46.3203V138.956ZM46.3203 141.473H21.0547V140.473H46.3203V141.473ZM55.7344 107.058H73C74.6569 107.058 76 108.401 76 110.058V129.738C76 131.395 74.6569 132.738 73 132.738H55.7344C54.0775 132.738 52.7344 131.395 52.7344 129.738V110.058C52.7344 108.401 54.0775 107.058 55.7344 107.058ZM51.7344 110.058C51.7344 107.849 53.5252 106.058 55.7344 106.058H73C75.2091 106.058 77 107.849 77 110.058V129.738C77 131.947 75.2091 133.738 73 133.738H55.7344C53.5252 133.738 51.7344 131.947 51.7344 129.738V110.058ZM77 136.44H51.7344V135.44H77V136.44ZM77 138.956H51.7344V137.956H77V138.956ZM77 141.473H51.7344V140.473H77V141.473ZM85.8125 107.058H103.078C104.735 107.058 106.078 108.401 106.078 110.058V129.738C106.078 131.395 104.735 132.738 103.078 132.738H85.8125C84.1556 132.738 82.8125 131.395 82.8125 129.738V110.058C82.8125 108.401 84.1556 107.058 85.8125 107.058ZM81.8125 110.058C81.8125 107.849 83.6034 106.058 85.8125 106.058H103.078C105.287 106.058 107.078 107.849 107.078 110.058V129.738C107.078 131.947 105.287 133.738 103.078 133.738H85.8125C83.6034 133.738 81.8125 131.947 81.8125 129.738V110.058ZM107.078 136.44H81.8125V135.44H107.078V136.44ZM107.078 138.956H81.8125V137.956H107.078V138.956ZM107.078 141.473H81.8125V140.473H107.078V141.473ZM330.062 117.124H307.383C305.94 117.124 304.735 118.142 304.448 119.5H332.998C332.711 118.142 331.506 117.124 330.062 117.124ZM333.062 120.5H304.383V128.835H306.264C306.512 126.986 308.115 125.56 310.055 125.56C312.16 125.56 313.867 127.238 313.879 129.313V128.835H333V129.835H313.879V129.356C313.867 131.431 312.16 133.109 310.055 133.109C308.115 133.109 306.512 131.683 306.264 129.835H304.383V144.562H333V145.562H304.383V169.5H333.062V120.5ZM307.383 173C305.896 173 304.662 171.919 304.424 170.5H333.021C332.783 171.919 331.549 173 330.062 173H307.383ZM312.879 129.335C312.879 130.855 311.627 132.109 310.055 132.109C308.483 132.109 307.231 130.855 307.231 129.335C307.231 127.814 308.483 126.56 310.055 126.56C311.627 126.56 312.879 127.814 312.879 129.335ZM307.187 134.867H317.703V133.867H307.187V134.867ZM307.187 136.44H312.604V135.44H307.187V136.44ZM307.187 138.327H318.341V137.327H307.187V138.327ZM307.187 140.215H313.242V139.215H307.187V140.215ZM307.187 141.787H323.44V140.787H307.187V141.787ZM307.187 143.36H320.89V142.36H307.187V143.36ZM310 151.482C311.032 151.482 311.906 150.6 311.906 149.465C311.906 148.331 311.032 147.449 310 147.449C308.968 147.449 308.094 148.331 308.094 149.465C308.094 150.6 308.968 151.482 310 151.482ZM310 151.982C311.329 151.982 312.406 150.855 312.406 149.465C312.406 148.076 311.329 146.949 310 146.949C308.671 146.949 307.594 148.076 307.594 149.465C307.594 150.855 308.671 151.982 310 151.982ZM313.609 147.828H326.543V147.328H313.609V147.828ZM323.234 150.474V150.974H313.609V150.474H323.234ZM313.609 150.345H326.543V149.845H313.609V150.345ZM324.438 149.715H313.609V149.215H324.438V149.715ZM313.609 149.086H318.422V148.586H313.609V149.086ZM310 158.402C311.032 158.402 311.906 157.52 311.906 156.385C311.906 155.251 311.032 154.369 310 154.369C308.968 154.369 308.094 155.251 308.094 156.385C308.094 157.52 308.968 158.402 310 158.402ZM310 158.902C311.329 158.902 312.406 157.775 312.406 156.385C312.406 154.996 311.329 153.869 310 153.869C308.671 153.869 307.594 154.996 307.594 156.385C307.594 157.775 308.671 158.902 310 158.902ZM313.609 154.748H326.543V154.248H313.609V154.748ZM313.609 157.894V157.394H323.234V157.894H313.609ZM313.609 157.265H326.543V156.765H313.609V157.265ZM324.438 156.635H313.609V156.135H324.438V156.635ZM313.609 156.006H318.422V155.506H313.609V156.006ZM310 165.322C311.032 165.322 311.906 164.44 311.906 163.305C311.906 162.171 311.032 161.289 310 161.289C308.968 161.289 308.094 162.171 308.094 163.305C308.094 164.44 308.968 165.322 310 165.322ZM310 165.822C311.329 165.822 312.406 164.695 312.406 163.305C312.406 161.916 311.329 160.789 310 160.789C308.671 160.789 307.594 161.916 307.594 163.305C307.594 164.695 308.671 165.822 310 165.822ZM313.609 161.668H326.543V161.168H313.609V161.668ZM313.609 164.814V164.314H323.234V164.814H313.609ZM313.609 164.185H326.543V163.685H313.609V164.185ZM324.438 163.555H313.609V163.055H324.438V163.555ZM313.609 162.926H318.422V162.426H313.609V162.926ZM343.348 102.542H342.521H341.484L341.758 101.542L343.891 93.7346H347.13L347.159 93.6218L348.703 87.7018H378.781L380.325 93.6218L380.355 93.7346H383.594L385.727 101.542L386 102.542H384.963H384.136L384.129 102.655L379.383 174H348.102L343.356 102.655L343.348 102.542ZM347.045 143.045L349.037 173H378.447L383.127 102.655H344.358L346.978 142.045H379.984V143.045H347.045ZM342.794 101.542L344.654 94.7346H382.83L384.69 101.542H342.794ZM349.476 88.7018L348.193 93.6218H379.292L378.009 88.7018H349.476ZM345.695 121.656H381.789V120.656H345.695V121.656ZM363.742 138.4C367.135 138.4 369.961 135.511 369.961 131.851C369.961 128.191 367.135 125.302 363.742 125.302C360.349 125.302 357.523 128.191 357.523 131.851C357.523 135.511 360.349 138.4 363.742 138.4ZM363.742 139.4C367.729 139.4 370.961 136.02 370.961 131.851C370.961 127.682 367.729 124.302 363.742 124.302C359.755 124.302 356.523 127.682 356.523 131.851C356.523 136.02 359.755 139.4 363.742 139.4ZM309.152 129.022L309.95 131H310.045L310.847 129.025H310.858C310.847 129.146 310.841 129.264 310.841 129.377V131H310.992V128.858H310.766L310.007 130.742H309.999L309.24 128.858H309.008V131H309.152V129.395C309.152 129.33 309.151 129.267 309.149 129.204C309.147 129.143 309.144 129.082 309.14 129.022H309.152Z" fill="white"/>
</svg>
