<svg
  width="554"
  height="346"
  viewBox="0 0 554 346"
  fill="none"
  xmlns="http://www.w3.org/2000/svg"
>
  <g id="home-illustration">
    <g id="decoration 2">
      <path
        id="Vector 20"
        d="M463.738 30.5236C463.738 30.5236 523.312 61.35 546.63 82.0701C579.134 110.953 419.706 10.8134 452.851 35.6499C479.261 55.4406 540.912 98.2858 523.229 89.4701C505.546 80.6544 489.075 67.9086 463.625 57.5812C438.175 47.2537 516.714 93.1832 505.504 94.7143C494.293 96.2454 449.663 55.4976 446.092 54.0779"
        stroke="#E5E5E5"
        stroke-width="4"
      />
      <path
        id="Vector 21"
        d="M26.7383 231.524C26.7383 231.524 86.3122 262.35 109.63 283.07C142.134 311.953 -17.2936 211.813 15.8506 236.65C42.2613 256.441 103.912 299.286 86.229 290.47C68.5456 281.654 52.0745 268.909 26.6247 258.581C1.17499 248.254 79.7145 294.183 68.5039 295.714C57.2933 297.245 12.6634 256.498 9.09235 255.078"
        stroke="#E5E5E5"
        stroke-width="4"
      />
    </g>
    <path
      id="background"
      d="M201.685 30.8859C109.321 24.7765 57.0555 70.776 41.6225 154.711C-4.37588 404.88 405.474 376.178 484.125 250.744C542.233 158.071 473.951 32.17 400.485 8.5414C319.032 -17.6563 341.326 40.1222 201.685 30.8859Z"
      fill="#AC9FF0"
    />
    <path id="Vector 1" d="M39 306L512 306" stroke="#DADADA" stroke-width="5" />
    <g id="Fabio">
      <path
        id="body"
        d="M401.5 155.5C401.956 147.642 401.63 152.689 401.5 148L453 104C449.424 123.294 450.077 127.098 451 145C464.761 149.96 471.882 153.203 484.25 159.25C484.25 159.25 501 164.5 513.5 173C526.86 182.085 520.184 231.5 507 256.5C498.298 273 494.5 304.5 494.5 304.5H377.5C377.5 304.5 379 292 371 263.5C358.5 242.5 353.421 195.814 356.5 188.5C360.5 179 372 171.5 379 168C386 164.5 391.5 158.5 401.5 155.5Z"
        fill="#4A4A4A"
      />
      <g id="arms">
        <path
          id="arms_2"
          d="M420 263C420 263 464.5 190.5 482 177C499.5 163.5 542.5 174.5 515 220.5C487.5 266.5 431.5 296 431.5 296C423.534 308.385 374.599 304.927 314 305H277.5V299.148C255.35 303.327 225.663 307.055 197.5 306.5L186 289.5C202.203 285.316 216.201 282.339 236.5 276.5C253.423 268.531 289.446 262.715 292 259C314 227 344.966 194.259 365.5 177V240C355.554 258.051 320.5 285.847 311 290.5H314C314 290.5 336.349 287.302 351.5 283.346C366.651 279.39 386.357 268.458 420 263Z"
          fill="#FFDBB4"
        />
        <g id="shirt sleeves">
          <path
            d="M451 213.5C451 213.5 473.686 174.41 490.5 170.5C512 165.5 532.375 181.836 522 207.5C512.5 231 494 249.5 494 249.5C483.643 235.646 473.439 228.181 451 213.5Z"
            fill="#4A4A4A"
          />
          <path
            d="M321 220.5C335.824 203.38 346.078 193.425 365.5 177C368.711 202.059 368.388 215.807 365.5 240C358.867 253.484 355.993 255.893 346 264C340.377 243.664 335 232 321 220.5Z"
            fill="#4A4A4A"
          />
        </g>
        <g id="tattoos">
          <g id="roses" clip-path="url(#clip1)">
            <g id="Group_4">
              <g id="Capa 1 6">
                <g id="Group_5">
                  <g id="Vector_14">
                    <mask id="path-20-inside-1" fill="white">
                      <path
                        d="M372.39 305.482C372.391 305.482 372.391 305.481 372.392 305.481C372.458 305.463 372.52 305.439 372.579 305.412C372.916 305.251 373.254 305.09 373.588 304.923C373.59 304.922 373.59 304.922 373.591 304.922C373.614 304.908 373.637 304.894 373.66 304.88C374.199 304.55 374.747 304.227 375.321 303.946C375.327 303.942 375.334 303.939 375.34 303.935C375.96 303.609 376.571 303.265 377.342 303.206C377.419 303.2 377.494 303.194 377.571 303.188C377.572 303.188 377.574 303.188 377.575 303.187C378.634 303.006 379.745 303.004 380.841 302.911C381.962 302.815 382.644 302.206 382.957 301.275C383.223 300.484 383.347 299.633 383.535 298.81C383.508 298.794 383.482 298.78 383.456 298.764C382.899 299.092 382.363 299.453 381.778 299.739C380.266 300.474 378.633 300.998 376.878 301.23C376.09 301.334 375.283 301.382 374.469 301.373C373.644 301.364 372.819 301.255 371.991 301.198C371.766 301.182 371.502 301.147 371.442 301.42C371.269 302.208 371.113 303 371.2 303.847C371.248 304.314 371.289 304.775 371.583 305.22C371.584 305.221 371.585 305.221 371.585 305.222C371.695 305.344 371.834 305.439 371.99 305.48C372.125 305.515 372.261 305.508 372.39 305.482Z"
                      />
                    </mask>
                    <path
                      d="M372.39 305.482C372.391 305.482 372.391 305.481 372.392 305.481C372.458 305.463 372.52 305.439 372.579 305.412C372.916 305.251 373.254 305.09 373.588 304.923C373.59 304.922 373.59 304.922 373.591 304.922C373.614 304.908 373.637 304.894 373.66 304.88C374.199 304.55 374.747 304.227 375.321 303.946C375.327 303.942 375.334 303.939 375.34 303.935C375.96 303.609 376.571 303.265 377.342 303.206C377.419 303.2 377.494 303.194 377.571 303.188C377.572 303.188 377.574 303.188 377.575 303.187C378.634 303.006 379.745 303.004 380.841 302.911C381.962 302.815 382.644 302.206 382.957 301.275C383.223 300.484 383.347 299.633 383.535 298.81C383.508 298.794 383.482 298.78 383.456 298.764C382.899 299.092 382.363 299.453 381.778 299.739C380.266 300.474 378.633 300.998 376.878 301.23C376.09 301.334 375.283 301.382 374.469 301.373C373.644 301.364 372.819 301.255 371.991 301.198C371.766 301.182 371.502 301.147 371.442 301.42C371.269 302.208 371.113 303 371.2 303.847C371.248 304.314 371.289 304.775 371.583 305.22C371.584 305.221 371.585 305.221 371.585 305.222C371.695 305.344 371.834 305.439 371.99 305.48C372.125 305.515 372.261 305.508 372.39 305.482Z"
                      stroke="#CCA377"
                      stroke-width="2"
                      mask="url(#path-20-inside-1)"
                    />
                  </g>
                  <g id="Vector_15">
                    <mask id="path-21-inside-2" fill="white">
                      <path
                        d="M367.836 297.827C367.878 297.806 367.921 297.779 367.951 297.744C368.208 297.443 368.452 297.129 368.721 296.836C368.966 296.573 369.232 296.327 369.499 296.083C369.687 295.914 369.894 295.763 370.119 295.583C370.016 295.527 369.972 295.494 369.925 295.48C368.682 295.089 367.414 294.775 366.201 294.256C365.88 294.119 365.544 293.952 365.347 293.671C365.096 293.315 365.147 292.864 365.357 292.549C365.561 292.245 365.985 292.146 366.174 291.843C366.364 291.537 366.263 291.073 366.073 290.734C365.818 290.278 365.406 289.9 365.107 289.463C364.722 288.9 364.556 288.239 364.609 287.631C364.675 286.856 365.059 286.594 365.499 286.052C365.671 285.84 365.784 285.571 365.752 285.282C365.615 284.052 364.458 284.743 363.961 285.056C363.125 285.582 362.589 286.459 362.384 287.412C362.109 288.689 362.366 290.093 362.801 291.434C363.236 292.775 363.847 294.085 364.307 295.423C364.479 295.923 364.634 296.435 364.931 296.897C365.554 297.865 366.897 298.28 367.836 297.827Z"
                      />
                    </mask>
                    <path
                      d="M367.836 297.827C367.878 297.806 367.921 297.779 367.951 297.744C368.208 297.443 368.452 297.129 368.721 296.836C368.966 296.573 369.232 296.327 369.499 296.083C369.687 295.914 369.894 295.763 370.119 295.583C370.016 295.527 369.972 295.494 369.925 295.48C368.682 295.089 367.414 294.775 366.201 294.256C365.88 294.119 365.544 293.952 365.347 293.671C365.096 293.315 365.147 292.864 365.357 292.549C365.561 292.245 365.985 292.146 366.174 291.843C366.364 291.537 366.263 291.073 366.073 290.734C365.818 290.278 365.406 289.9 365.107 289.463C364.722 288.9 364.556 288.239 364.609 287.631C364.675 286.856 365.059 286.594 365.499 286.052C365.671 285.84 365.784 285.571 365.752 285.282C365.615 284.052 364.458 284.743 363.961 285.056C363.125 285.582 362.589 286.459 362.384 287.412C362.109 288.689 362.366 290.093 362.801 291.434C363.236 292.775 363.847 294.085 364.307 295.423C364.479 295.923 364.634 296.435 364.931 296.897C365.554 297.865 366.897 298.28 367.836 297.827Z"
                      stroke="#CCA377"
                      stroke-width="2"
                      mask="url(#path-21-inside-2)"
                    />
                  </g>
                  <g id="Vector_16">
                    <mask id="path-22-inside-3" fill="white">
                      <path
                        d="M365.999 287.191C365.645 287.731 365.533 288.373 365.837 289.024C366.184 289.764 366.264 290.003 367.13 289.862C367.436 289.811 367.726 289.713 368.023 289.637C368.035 289.652 368.046 289.667 368.057 289.682C367.71 289.99 367.362 290.298 367 290.62C367.067 290.79 367.15 291 367.248 291.249C367.981 290.65 368.781 290.214 369.457 289.508C369.151 289.429 368.95 289.366 368.747 289.325C368.139 289.199 367.621 288.944 367.391 288.341C367.288 288.07 367.213 287.776 367.214 287.506C367.215 286.951 367.275 286.404 367.313 285.816C367.213 285.864 367.118 285.902 367.032 285.951C366.534 286.243 366.294 286.74 365.999 287.191Z"
                      />
                    </mask>
                    <path
                      d="M365.999 287.191C365.645 287.731 365.533 288.373 365.837 289.024C366.184 289.764 366.264 290.003 367.13 289.862C367.436 289.811 367.726 289.713 368.023 289.637C368.035 289.652 368.046 289.667 368.057 289.682C367.71 289.99 367.362 290.298 367 290.62C367.067 290.79 367.15 291 367.248 291.249C367.981 290.65 368.781 290.214 369.457 289.508C369.151 289.429 368.95 289.366 368.747 289.325C368.139 289.199 367.621 288.944 367.391 288.341C367.288 288.07 367.213 287.776 367.214 287.506C367.215 286.951 367.275 286.404 367.313 285.816C367.213 285.864 367.118 285.902 367.032 285.951C366.534 286.243 366.294 286.74 365.999 287.191Z"
                      stroke="#CCA377"
                      stroke-width="2"
                      mask="url(#path-22-inside-3)"
                    />
                  </g>
                  <g id="Vector_17">
                    <mask id="path-23-inside-4" fill="white">
                      <path
                        d="M369.36 283.48C369.358 283.48 369.357 283.48 369.356 283.482C369.209 283.702 369.109 283.953 368.962 284.18C368.79 284.448 368.59 284.698 368.428 284.972C367.978 285.738 367.711 286.842 367.893 287.797C367.943 288.057 368.06 288.323 368.27 288.522C368.542 288.781 368.943 288.892 369.29 288.851C370.02 288.764 370.461 288.122 370.707 287.54C370.782 287.364 370.838 287.162 370.759 286.965C370.67 286.743 370.411 286.579 370.17 286.571C369.929 286.563 369.719 286.698 369.625 286.892C369.472 287.21 369.637 287.528 369.794 287.853C369.652 287.817 369.526 287.713 369.443 287.592C369.36 287.472 369.315 287.335 369.284 287.201C369.204 286.846 369.214 286.486 369.315 286.162C369.384 285.938 369.509 285.719 369.735 285.63C369.905 285.563 370.121 285.581 370.302 285.676C370.529 285.795 370.679 286.057 370.809 286.254C370.81 286.256 370.81 286.256 370.811 286.257C370.909 286.326 370.969 286.275 371.006 286.184C371.006 286.184 371.006 286.182 371.007 286.18C371.008 286.18 371.007 286.178 371.007 286.178C371.077 285.758 371.098 285.326 371.139 284.9C371.165 284.617 371.379 284.009 370.836 283.959C370.734 283.95 370.634 283.965 370.533 283.968C370.325 283.973 370.106 283.919 369.909 283.818C369.844 283.785 369.747 283.696 369.648 283.617C369.541 283.531 369.431 283.456 369.36 283.48Z"
                      />
                    </mask>
                    <path
                      d="M369.36 283.48C369.358 283.48 369.357 283.48 369.356 283.482C369.209 283.702 369.109 283.953 368.962 284.18C368.79 284.448 368.59 284.698 368.428 284.972C367.978 285.738 367.711 286.842 367.893 287.797C367.943 288.057 368.06 288.323 368.27 288.522C368.542 288.781 368.943 288.892 369.29 288.851C370.02 288.764 370.461 288.122 370.707 287.54C370.782 287.364 370.838 287.162 370.759 286.965C370.67 286.743 370.411 286.579 370.17 286.571C369.929 286.563 369.719 286.698 369.625 286.892C369.472 287.21 369.637 287.528 369.794 287.853C369.652 287.817 369.526 287.713 369.443 287.592C369.36 287.472 369.315 287.335 369.284 287.201C369.204 286.846 369.214 286.486 369.315 286.162C369.384 285.938 369.509 285.719 369.735 285.63C369.905 285.563 370.121 285.581 370.302 285.676C370.529 285.795 370.679 286.057 370.809 286.254C370.81 286.256 370.81 286.256 370.811 286.257C370.909 286.326 370.969 286.275 371.006 286.184C371.006 286.184 371.006 286.182 371.007 286.18C371.008 286.18 371.007 286.178 371.007 286.178C371.077 285.758 371.098 285.326 371.139 284.9C371.165 284.617 371.379 284.009 370.836 283.959C370.734 283.95 370.634 283.965 370.533 283.968C370.325 283.973 370.106 283.919 369.909 283.818C369.844 283.785 369.747 283.696 369.648 283.617C369.541 283.531 369.431 283.456 369.36 283.48Z"
                      stroke="#CCA377"
                      stroke-width="2"
                      mask="url(#path-23-inside-4)"
                    />
                  </g>
                  <g id="Vector_18">
                    <mask id="path-24-inside-5" fill="white">
                      <path
                        d="M372.301 294.099C372.508 294.296 372.699 294.457 373.028 294.352C373.569 294.179 374.143 294.067 374.714 293.956C375.104 293.88 375.116 293.827 374.988 293.443C374.789 292.84 374.618 292.229 374.483 291.62C374.321 290.885 374.239 290.146 374.065 289.412C373.926 288.823 373.71 288.237 373.513 287.652C373.194 286.705 372.749 285.796 372.136 284.945C371.999 284.754 371.789 284.62 371.604 284.474C371.755 284.593 371.63 285.545 371.619 285.716C371.589 286.149 371.522 286.574 371.423 286.987C371.222 287.815 370.885 288.595 370.432 289.299C369.484 290.77 368.169 291.572 366.547 292.291C366.198 292.446 366.065 292.961 366.303 293.267C366.545 293.578 366.852 293.829 367.237 293.956C367.75 294.125 368.265 294.28 368.779 294.442C369.447 294.653 370.115 294.868 370.784 295.077C370.842 295.096 370.917 295.11 370.966 295.091C371.372 294.932 371.775 294.765 372.217 294.585C371.111 293.492 369.809 293.293 368.469 293.181C368.899 293.029 369.325 292.906 369.765 292.818C370.369 292.696 370.955 292.852 371.471 293.285C371.768 293.533 372.019 293.832 372.301 294.099ZM367.294 292.733C367.467 292.628 367.624 292.492 367.817 292.425C368.841 292.066 369.783 291.61 370.599 290.947C371.334 290.351 371.855 289.616 372.265 288.796C372.437 288.453 372.539 288.073 372.691 287.657C373.073 288.161 373.085 288.648 373.017 289.064C372.926 289.634 372.78 290.236 372.457 290.683C371.909 291.443 371.172 292.023 370.086 292.177C369.15 292.308 368.251 292.559 367.294 292.733Z"
                      />
                    </mask>
                    <path
                      d="M372.301 294.099C372.508 294.296 372.699 294.457 373.028 294.352C373.569 294.179 374.143 294.067 374.714 293.956C375.104 293.88 375.116 293.827 374.988 293.443C374.789 292.84 374.618 292.229 374.483 291.62C374.321 290.885 374.239 290.146 374.065 289.412C373.926 288.823 373.71 288.237 373.513 287.652C373.194 286.705 372.749 285.796 372.136 284.945C371.999 284.754 371.789 284.62 371.604 284.474C371.755 284.593 371.63 285.545 371.619 285.716C371.589 286.149 371.522 286.574 371.423 286.987C371.222 287.815 370.885 288.595 370.432 289.299C369.484 290.77 368.169 291.572 366.547 292.291C366.198 292.446 366.065 292.961 366.303 293.267C366.545 293.578 366.852 293.829 367.237 293.956C367.75 294.125 368.265 294.28 368.779 294.442C369.447 294.653 370.115 294.868 370.784 295.077C370.842 295.096 370.917 295.11 370.966 295.091C371.372 294.932 371.775 294.765 372.217 294.585C371.111 293.492 369.809 293.293 368.469 293.181C368.899 293.029 369.325 292.906 369.765 292.818C370.369 292.696 370.955 292.852 371.471 293.285C371.768 293.533 372.019 293.832 372.301 294.099ZM367.294 292.733C367.467 292.628 367.624 292.492 367.817 292.425C368.841 292.066 369.783 291.61 370.599 290.947C371.334 290.351 371.855 289.616 372.265 288.796C372.437 288.453 372.539 288.073 372.691 287.657C373.073 288.161 373.085 288.648 373.017 289.064C372.926 289.634 372.78 290.236 372.457 290.683C371.909 291.443 371.172 292.023 370.086 292.177C369.15 292.308 368.251 292.559 367.294 292.733Z"
                      stroke="#CCA377"
                      stroke-width="2"
                      mask="url(#path-24-inside-5)"
                    />
                  </g>
                  <g id="Vector_19">
                    <mask id="path-25-inside-6" fill="white">
                      <path
                        d="M375.978 293.319C375.977 293.311 375.976 293.303 375.974 293.296C375.941 293.123 375.832 292.941 375.767 292.773C375.518 292.136 375.304 291.462 375.233 290.809C375.171 290.234 375.305 289.656 375.333 289.086C375.392 287.86 375.293 286.563 374.661 285.36C374.208 284.495 373.51 283.737 372.767 283.047C372.382 282.689 371.963 282.335 371.469 282.171C371.003 282.017 369.668 282.235 369.943 282.908C370.12 283.34 371.013 283.407 371.375 283.617C372.09 284.03 372.694 284.638 373.133 285.306C373.826 286.363 374.147 287.554 374.378 288.719C374.552 289.597 374.681 290.478 374.913 291.353C375.113 292.11 375.28 293.039 375.978 293.615C375.941 293.584 375.986 293.367 375.978 293.319Z"
                      />
                    </mask>
                    <path
                      d="M375.978 293.319C375.977 293.311 375.976 293.303 375.974 293.296C375.941 293.123 375.832 292.941 375.767 292.773C375.518 292.136 375.304 291.462 375.233 290.809C375.171 290.234 375.305 289.656 375.333 289.086C375.392 287.86 375.293 286.563 374.661 285.36C374.208 284.495 373.51 283.737 372.767 283.047C372.382 282.689 371.963 282.335 371.469 282.171C371.003 282.017 369.668 282.235 369.943 282.908C370.12 283.34 371.013 283.407 371.375 283.617C372.09 284.03 372.694 284.638 373.133 285.306C373.826 286.363 374.147 287.554 374.378 288.719C374.552 289.597 374.681 290.478 374.913 291.353C375.113 292.11 375.28 293.039 375.978 293.615C375.941 293.584 375.986 293.367 375.978 293.319Z"
                      stroke="#CCA377"
                      stroke-width="2"
                      mask="url(#path-25-inside-6)"
                    />
                  </g>
                  <g id="Vector_20">
                    <mask id="path-26-inside-7" fill="white">
                      <path
                        d="M376.9 293.387C377.92 292.922 378.901 292.399 379.879 291.87C380.202 291.695 380.512 291.469 380.736 291.193C380.951 290.927 381.088 290.616 381.084 290.258C381.077 289.76 380.794 289.261 380.463 288.822C379.936 288.125 379.261 287.517 378.506 287.043C377.966 286.705 376.775 285.986 376.151 286.132C375.875 286.197 375.998 286.357 376.035 286.642C376.174 287.705 375.987 288.728 375.895 289.754C375.857 290.183 375.99 293.803 376.9 293.387Z"
                      />
                    </mask>
                    <path
                      d="M376.9 293.387C377.92 292.922 378.901 292.399 379.879 291.87C380.202 291.695 380.512 291.469 380.736 291.193C380.951 290.927 381.088 290.616 381.084 290.258C381.077 289.76 380.794 289.261 380.463 288.822C379.936 288.125 379.261 287.517 378.506 287.043C377.966 286.705 376.775 285.986 376.151 286.132C375.875 286.197 375.998 286.357 376.035 286.642C376.174 287.705 375.987 288.728 375.895 289.754C375.857 290.183 375.99 293.803 376.9 293.387Z"
                      stroke="#CCA377"
                      stroke-width="2"
                      mask="url(#path-26-inside-7)"
                    />
                  </g>
                  <g id="Vector_21">
                    <mask id="path-27-inside-8" fill="white">
                      <path
                        d="M370.264 298.365C370.828 297.869 371.427 297.404 372.091 297.022C372.426 296.829 372.776 296.657 373.144 296.515C373.503 296.376 373.875 296.342 374.264 296.272C374.338 296.258 374.442 296.201 374.455 296.306C374.461 296.361 373.919 296.601 373.851 296.641C373.645 296.761 373.441 296.886 373.241 297.014C372.84 297.271 372.453 297.544 372.079 297.833C371.36 298.388 370.725 299.01 370.103 299.656C369.991 299.773 369.816 300.055 369.638 300.096C369.685 300.118 369.711 300.133 369.733 300.14C369.736 300.14 369.74 300.141 369.744 300.142C370.748 300.332 371.773 300.328 372.76 300.327C373.725 300.325 374.683 300.273 375.627 300.172C376.59 300.068 377.538 299.913 378.466 299.707C378.935 299.603 379.398 299.486 379.856 299.356C380.292 299.232 380.681 299.065 381.097 298.912C381.962 298.592 382.725 298.125 383.417 297.57C384.932 296.355 385.73 293.569 384.494 291.593C384.22 291.155 383.199 290.213 382.592 290.398C382.519 290.42 382.452 290.459 382.393 290.517C379.667 293.188 376.061 294.35 372.287 295.55C371.869 295.716 371.461 295.898 371.065 296.101C370.225 296.531 369.451 297.065 368.826 297.734C368.232 298.37 367.742 299.096 367.564 299.974C367.5 300.291 367.492 300.514 367.617 300.836C368.108 300.508 368.514 300.021 368.932 299.617C369.369 299.193 369.806 298.768 370.264 298.365Z"
                      />
                    </mask>
                    <path
                      d="M370.264 298.365C370.828 297.869 371.427 297.404 372.091 297.022C372.426 296.829 372.776 296.657 373.144 296.515C373.503 296.376 373.875 296.342 374.264 296.272C374.338 296.258 374.442 296.201 374.455 296.306C374.461 296.361 373.919 296.601 373.851 296.641C373.645 296.761 373.441 296.886 373.241 297.014C372.84 297.271 372.453 297.544 372.079 297.833C371.36 298.388 370.725 299.01 370.103 299.656C369.991 299.773 369.816 300.055 369.638 300.096C369.685 300.118 369.711 300.133 369.733 300.14C369.736 300.14 369.74 300.141 369.744 300.142C370.748 300.332 371.773 300.328 372.76 300.327C373.725 300.325 374.683 300.273 375.627 300.172C376.59 300.068 377.538 299.913 378.466 299.707C378.935 299.603 379.398 299.486 379.856 299.356C380.292 299.232 380.681 299.065 381.097 298.912C381.962 298.592 382.725 298.125 383.417 297.57C384.932 296.355 385.73 293.569 384.494 291.593C384.22 291.155 383.199 290.213 382.592 290.398C382.519 290.42 382.452 290.459 382.393 290.517C379.667 293.188 376.061 294.35 372.287 295.55C371.869 295.716 371.461 295.898 371.065 296.101C370.225 296.531 369.451 297.065 368.826 297.734C368.232 298.37 367.742 299.096 367.564 299.974C367.5 300.291 367.492 300.514 367.617 300.836C368.108 300.508 368.514 300.021 368.932 299.617C369.369 299.193 369.806 298.768 370.264 298.365Z"
                      stroke="#CCA377"
                      stroke-width="2"
                      mask="url(#path-27-inside-8)"
                    />
                  </g>
                  <g id="Vector_22">
                    <mask id="path-28-inside-9" fill="white">
                      <path
                        d="M382.551 280.584C381.744 280.536 381.01 280.717 380.271 280.889C379.573 281.052 378.122 281.451 378.161 282.291C378.18 282.696 378.413 283.092 378.64 283.468C378.957 283.994 382.435 289.422 382.136 289.568C383.093 289.103 383.906 289.566 384.639 290.398C384.669 290.333 384.686 290.311 384.689 290.285C384.857 289.143 384.515 287.979 384.287 286.818C384.164 286.2 384.049 285.58 383.975 284.963C383.826 283.713 383.944 282.512 384.229 281.346C384.331 280.929 384.15 280.698 383.671 280.645C383.297 280.603 382.925 280.606 382.551 280.584Z"
                      />
                    </mask>
                    <path
                      d="M382.551 280.584C381.744 280.536 381.01 280.717 380.271 280.889C379.573 281.052 378.122 281.451 378.161 282.291C378.18 282.696 378.413 283.092 378.64 283.468C378.957 283.994 382.435 289.422 382.136 289.568C383.093 289.103 383.906 289.566 384.639 290.398C384.669 290.333 384.686 290.311 384.689 290.285C384.857 289.143 384.515 287.979 384.287 286.818C384.164 286.2 384.049 285.58 383.975 284.963C383.826 283.713 383.944 282.512 384.229 281.346C384.331 280.929 384.15 280.698 383.671 280.645C383.297 280.603 382.925 280.606 382.551 280.584Z"
                      stroke="#CCA377"
                      stroke-width="2"
                      mask="url(#path-28-inside-9)"
                    />
                  </g>
                  <g id="Vector_23">
                    <mask id="path-29-inside-10" fill="white">
                      <path
                        d="M367.237 284.463C367.537 284.051 367.875 283.437 367.905 283.344C368.106 282.715 368.035 282.03 368.296 281.415C368.601 280.698 369.113 280.097 369.882 279.798C370.564 279.534 371.259 279.292 371.95 279.046C372.018 279.021 372.101 279.03 372.272 279.016C372.074 279.208 371.956 279.364 371.796 279.47C371.307 279.794 370.768 280.063 370.316 280.425C370.038 280.649 369.903 281 369.716 281.292C369.909 281.378 370.034 281.336 370.229 281.317C370.455 281.296 370.688 281.296 370.922 281.32C371.389 281.366 371.861 281.5 372.299 281.717C372.764 281.948 373.188 282.272 373.535 282.653C373.898 283.053 374.141 283.522 374.464 283.947C374.71 284.272 374.953 284.599 375.225 284.905C375.713 285.457 376.368 285.643 377.035 285.787C377.157 285.812 377.28 285.825 377.411 285.845C377.051 285.413 376.688 285.032 376.398 284.555C376.108 284.078 375.868 283.582 375.614 283.092C375.194 282.285 374.711 281.466 373.969 280.874C373.677 280.641 373.358 280.352 373.553 280.014C373.949 280.149 374.339 280.291 374.695 280.528C374.71 280.536 374.724 280.544 374.738 280.552C375.622 281.034 375.867 282.097 376.255 282.879C376.692 283.757 377.218 284.609 377.858 285.393C377.948 285.502 378.04 285.61 378.133 285.717C378.523 286.159 378.95 286.573 379.392 286.971C379.617 287.174 379.847 287.373 380.079 287.569C380.273 287.734 380.536 288.033 380.764 288.13C380.79 288.063 380.685 287.927 380.636 287.86C380.322 287.426 379.977 287.006 379.694 286.557C379.052 285.544 378.418 284.527 377.784 283.51C377.16 282.51 376.724 281.456 376.195 280.423C375.652 279.36 374.955 278.298 373.925 277.593C372.895 276.887 371.468 276.636 370.587 277.255C369.381 278.102 368.231 279.151 367.332 280.284C366.404 281.453 365.214 283.297 366.808 284.825C366.881 284.896 367.052 284.718 367.237 284.463Z"
                      />
                    </mask>
                    <path
                      d="M367.237 284.463C367.537 284.051 367.875 283.437 367.905 283.344C368.106 282.715 368.035 282.03 368.296 281.415C368.601 280.698 369.113 280.097 369.882 279.798C370.564 279.534 371.259 279.292 371.95 279.046C372.018 279.021 372.101 279.03 372.272 279.016C372.074 279.208 371.956 279.364 371.796 279.47C371.307 279.794 370.768 280.063 370.316 280.425C370.038 280.649 369.903 281 369.716 281.292C369.909 281.378 370.034 281.336 370.229 281.317C370.455 281.296 370.688 281.296 370.922 281.32C371.389 281.366 371.861 281.5 372.299 281.717C372.764 281.948 373.188 282.272 373.535 282.653C373.898 283.053 374.141 283.522 374.464 283.947C374.71 284.272 374.953 284.599 375.225 284.905C375.713 285.457 376.368 285.643 377.035 285.787C377.157 285.812 377.28 285.825 377.411 285.845C377.051 285.413 376.688 285.032 376.398 284.555C376.108 284.078 375.868 283.582 375.614 283.092C375.194 282.285 374.711 281.466 373.969 280.874C373.677 280.641 373.358 280.352 373.553 280.014C373.949 280.149 374.339 280.291 374.695 280.528C374.71 280.536 374.724 280.544 374.738 280.552C375.622 281.034 375.867 282.097 376.255 282.879C376.692 283.757 377.218 284.609 377.858 285.393C377.948 285.502 378.04 285.61 378.133 285.717C378.523 286.159 378.95 286.573 379.392 286.971C379.617 287.174 379.847 287.373 380.079 287.569C380.273 287.734 380.536 288.033 380.764 288.13C380.79 288.063 380.685 287.927 380.636 287.86C380.322 287.426 379.977 287.006 379.694 286.557C379.052 285.544 378.418 284.527 377.784 283.51C377.16 282.51 376.724 281.456 376.195 280.423C375.652 279.36 374.955 278.298 373.925 277.593C372.895 276.887 371.468 276.636 370.587 277.255C369.381 278.102 368.231 279.151 367.332 280.284C366.404 281.453 365.214 283.297 366.808 284.825C366.881 284.896 367.052 284.718 367.237 284.463Z"
                      stroke="#CCA377"
                      stroke-width="2"
                      mask="url(#path-29-inside-10)"
                    />
                  </g>
                  <g id="Vector_24">
                    <mask id="path-30-inside-11" fill="white">
                      <path
                        d="M372.172 276.881C372.162 276.878 372.152 276.875 372.142 276.872C371.71 276.778 371.282 276.777 370.911 276.95C370.773 277.015 370.65 277.096 370.522 277.179C370.497 277.203 370.472 277.227 370.448 277.253C370.44 277.262 370.431 277.27 370.424 277.279C370.577 277.156 370.742 277.045 370.925 276.959C371.302 276.783 371.732 276.782 372.172 276.881Z"
                      />
                    </mask>
                    <path
                      d="M372.172 276.881C372.162 276.878 372.152 276.875 372.142 276.872C371.71 276.778 371.282 276.777 370.911 276.95C370.773 277.015 370.65 277.096 370.522 277.179C370.497 277.203 370.472 277.227 370.448 277.253C370.44 277.262 370.431 277.27 370.424 277.279C370.577 277.156 370.742 277.045 370.925 276.959C371.302 276.783 371.732 276.782 372.172 276.881Z"
                      stroke="#CCA377"
                      stroke-width="2"
                      mask="url(#path-30-inside-11)"
                    />
                  </g>
                  <g id="Vector_25">
                    <mask id="path-31-inside-12" fill="white">
                      <path
                        d="M392.43 301.945C392.431 301.945 392.432 301.944 392.433 301.944C392.502 301.912 392.567 301.875 392.629 301.831C392.986 301.58 393.344 301.357 393.698 301.152C393.7 301.151 393.7 301.15 393.701 301.15C393.726 301.132 393.751 301.114 393.775 301.097C394.347 300.683 394.966 300.364 395.566 300.135C395.573 300.133 395.58 300.129 395.587 300.126C396.256 299.858 396.938 299.631 397.83 299.844C397.918 299.865 398.006 299.886 398.096 299.907C398.097 299.908 398.099 299.909 398.101 299.908C399.554 300.141 401.005 300.578 402.445 300.907C403.76 301.207 405.36 300.982 405.773 299.802C406.06 298.984 406.216 298.069 406.424 297.189C406.377 297.164 406.332 297.14 406.286 297.116C405.417 297.302 404.532 297.505 403.645 297.578C401.638 297.743 399.525 297.715 397.407 297.244C396.554 297.055 395.731 296.812 394.923 296.531C394.106 296.247 393.33 295.887 392.561 295.709C392.351 295.661 392.106 295.586 391.985 295.943C391.602 297.072 391.365 298.241 391.325 299.442C391.302 300.144 391.334 300.924 391.612 301.6C391.612 301.602 391.613 301.603 391.613 301.603C391.72 301.785 391.859 301.921 392.018 301.97C392.155 302.013 392.296 301.991 392.43 301.945Z"
                      />
                    </mask>
                    <path
                      d="M392.43 301.945C392.431 301.945 392.432 301.944 392.433 301.944C392.502 301.912 392.567 301.875 392.629 301.831C392.986 301.58 393.344 301.357 393.698 301.152C393.7 301.151 393.7 301.15 393.701 301.15C393.726 301.132 393.751 301.114 393.775 301.097C394.347 300.683 394.966 300.364 395.566 300.135C395.573 300.133 395.58 300.129 395.587 300.126C396.256 299.858 396.938 299.631 397.83 299.844C397.918 299.865 398.006 299.886 398.096 299.907C398.097 299.908 398.099 299.909 398.101 299.908C399.554 300.141 401.005 300.578 402.445 300.907C403.76 301.207 405.36 300.982 405.773 299.802C406.06 298.984 406.216 298.069 406.424 297.189C406.377 297.164 406.332 297.14 406.286 297.116C405.417 297.302 404.532 297.505 403.645 297.578C401.638 297.743 399.525 297.715 397.407 297.244C396.554 297.055 395.731 296.812 394.923 296.531C394.106 296.247 393.33 295.887 392.561 295.709C392.351 295.661 392.106 295.586 391.985 295.943C391.602 297.072 391.365 298.241 391.325 299.442C391.302 300.144 391.334 300.924 391.612 301.6C391.612 301.602 391.613 301.603 391.613 301.603C391.72 301.785 391.859 301.921 392.018 301.97C392.155 302.013 392.296 301.991 392.43 301.945Z"
                      stroke="#CCA377"
                      stroke-width="2"
                      mask="url(#path-31-inside-12)"
                    />
                  </g>
                  <g id="Vector_26">
                    <mask id="path-32-inside-13" fill="white">
                      <path
                        d="M388.032 277.888C386.936 278.277 385.845 278.885 385.6 280.07C385.358 281.247 385.793 282.598 386.097 283.853C386.43 285.231 386.666 286.585 386.691 287.932C386.701 288.475 386.637 289.096 386.807 289.623C387.184 290.796 388.557 291.381 389.656 290.942C389.71 290.921 389.767 290.893 389.813 290.854C390.215 290.515 390.606 290.183 391.006 289.904C391.368 289.651 391.738 289.439 392.102 289.247C392.357 289.112 392.619 289.009 392.906 288.887C392.84 288.804 392.815 288.759 392.78 288.733C391.785 287.986 390.631 287.3 389.539 286.778C389.228 286.63 388.886 286.426 388.761 286.137C388.601 285.769 388.845 285.334 389.237 285.056C389.617 284.786 390.185 284.745 390.538 284.494C390.894 284.241 390.959 283.806 390.843 283.466C390.687 283.009 390.226 282.619 389.887 282.189C389.449 281.635 389.232 281.026 389.322 280.478C389.436 279.78 390.022 279.59 390.698 279.172C390.963 279.008 391.14 278.777 391.081 278.484C390.81 277.142 388.741 277.636 388.032 277.888Z"
                      />
                    </mask>
                    <path
                      d="M388.032 277.888C386.936 278.277 385.845 278.885 385.6 280.07C385.358 281.247 385.793 282.598 386.097 283.853C386.43 285.231 386.666 286.585 386.691 287.932C386.701 288.475 386.637 289.096 386.807 289.623C387.184 290.796 388.557 291.381 389.656 290.942C389.71 290.921 389.767 290.893 389.813 290.854C390.215 290.515 390.606 290.183 391.006 289.904C391.368 289.651 391.738 289.439 392.102 289.247C392.357 289.112 392.619 289.009 392.906 288.887C392.84 288.804 392.815 288.759 392.78 288.733C391.785 287.986 390.631 287.3 389.539 286.778C389.228 286.63 388.886 286.426 388.761 286.137C388.601 285.769 388.845 285.334 389.237 285.056C389.617 284.786 390.185 284.745 390.538 284.494C390.894 284.241 390.959 283.806 390.843 283.466C390.687 283.009 390.226 282.619 389.887 282.189C389.449 281.635 389.232 281.026 389.322 280.478C389.436 279.78 390.022 279.59 390.698 279.172C390.963 279.008 391.14 278.777 391.081 278.484C390.81 277.142 388.741 277.636 388.032 277.888Z"
                      stroke="#CCA377"
                      stroke-width="2"
                      mask="url(#path-32-inside-13)"
                    />
                  </g>
                  <g id="Vector_27">
                    <mask id="path-33-inside-14" fill="white">
                      <path
                        d="M392.948 279.486C392.232 279.607 391.847 280.01 391.391 280.35C390.844 280.757 390.644 281.311 390.934 281.939C391.264 282.653 391.297 282.854 392.348 282.954C392.719 282.989 393.079 282.987 393.434 283.012C393.442 283.028 393.45 283.044 393.458 283.06C392.976 283.213 392.489 283.377 391.974 283.564C391.997 283.724 392.023 283.922 392.044 284.159C393.03 283.888 394.03 283.658 395.012 283.376C394.726 283.202 394.532 283.082 394.326 282.981C393.711 282.676 393.188 282.316 393.041 281.731C392.975 281.469 392.936 281.191 392.984 280.953C393.081 280.464 393.236 279.987 393.348 279.448C393.206 279.461 393.071 279.466 392.948 279.486Z"
                      />
                    </mask>
                    <path
                      d="M392.948 279.486C392.232 279.607 391.847 280.01 391.391 280.35C390.844 280.757 390.644 281.311 390.934 281.939C391.264 282.653 391.297 282.854 392.348 282.954C392.719 282.989 393.079 282.987 393.434 283.012C393.442 283.028 393.45 283.044 393.458 283.06C392.976 283.213 392.489 283.377 391.974 283.564C391.997 283.724 392.023 283.922 392.044 284.159C393.03 283.888 394.03 283.658 395.012 283.376C394.726 283.202 394.532 283.082 394.326 282.981C393.711 282.676 393.188 282.316 393.041 281.731C392.975 281.469 392.936 281.191 392.984 280.953C393.081 280.464 393.236 279.987 393.348 279.448C393.206 279.461 393.071 279.466 392.948 279.486Z"
                      stroke="#CCA377"
                      stroke-width="2"
                      mask="url(#path-33-inside-14)"
                    />
                  </g>
                  <g id="Vector_28">
                    <mask id="path-34-inside-15" fill="white">
                      <path
                        d="M396.677 278.198C396.554 278.065 396.423 277.943 396.328 277.937C396.326 277.937 396.325 277.937 396.324 277.938C396.106 278.1 395.947 278.31 395.728 278.475C395.471 278.67 395.178 278.835 394.934 279.038C394.241 279.615 393.772 280.479 393.77 281.414C393.77 281.652 393.848 281.919 394.034 282.155C394.276 282.461 394.678 282.687 395.059 282.777C395.86 282.968 396.512 282.627 396.947 282.241C397.079 282.125 397.2 281.977 397.179 281.775C397.155 281.547 396.931 281.294 396.673 281.188C396.415 281.082 396.146 281.117 395.992 281.249C395.739 281.465 395.836 281.802 395.905 282.136C395.765 282.051 395.659 281.915 395.602 281.781C395.545 281.647 395.532 281.513 395.532 281.386C395.534 281.049 395.627 280.734 395.815 280.482C395.945 280.308 396.138 280.157 396.418 280.167C396.628 280.176 396.87 280.282 397.046 280.445C397.267 280.649 397.357 280.949 397.437 281.178C397.438 281.18 397.438 281.181 397.439 281.181C397.522 281.284 397.598 281.265 397.661 281.201C397.662 281.201 397.663 281.199 397.664 281.197C397.665 281.198 397.664 281.196 397.665 281.196C397.857 280.855 397.995 280.472 398.145 280.09C398.244 279.836 398.631 279.342 398.03 279.054C397.916 278.999 397.799 278.971 397.682 278.93C397.44 278.844 397.192 278.696 396.969 278.511C396.895 278.45 396.789 278.32 396.677 278.198Z"
                      />
                    </mask>
                    <path
                      d="M396.677 278.198C396.554 278.065 396.423 277.943 396.328 277.937C396.326 277.937 396.325 277.937 396.324 277.938C396.106 278.1 395.947 278.31 395.728 278.475C395.471 278.67 395.178 278.835 394.934 279.038C394.241 279.615 393.772 280.479 393.77 281.414C393.77 281.652 393.848 281.919 394.034 282.155C394.276 282.461 394.678 282.687 395.059 282.777C395.86 282.968 396.512 282.627 396.947 282.241C397.079 282.125 397.2 281.977 397.179 281.775C397.155 281.547 396.931 281.294 396.673 281.188C396.415 281.082 396.146 281.117 395.992 281.249C395.739 281.465 395.836 281.802 395.905 282.136C395.765 282.051 395.659 281.915 395.602 281.781C395.545 281.647 395.532 281.513 395.532 281.386C395.534 281.049 395.627 280.734 395.815 280.482C395.945 280.308 396.138 280.157 396.418 280.167C396.628 280.176 396.87 280.282 397.046 280.445C397.267 280.649 397.357 280.949 397.437 281.178C397.438 281.18 397.438 281.181 397.439 281.181C397.522 281.284 397.598 281.265 397.661 281.201C397.662 281.201 397.663 281.199 397.664 281.197C397.665 281.198 397.664 281.196 397.665 281.196C397.857 280.855 397.995 280.472 398.145 280.09C398.244 279.836 398.631 279.342 398.03 279.054C397.916 278.999 397.799 278.971 397.682 278.93C397.44 278.844 397.192 278.696 396.969 278.511C396.895 278.45 396.789 278.32 396.677 278.198Z"
                      stroke="#CCA377"
                      stroke-width="2"
                      mask="url(#path-34-inside-15)"
                    />
                  </g>
                  <g id="Vector_29">
                    <mask id="path-35-inside-16" fill="white">
                      <path
                        d="M395.472 288.209C395.549 288.457 395.629 288.67 395.942 288.715C396.457 288.789 396.963 288.944 397.468 289.104C397.813 289.213 397.845 289.174 397.919 288.807C398.036 288.232 398.195 287.675 398.383 287.139C398.609 286.492 398.903 285.882 399.108 285.225C399.273 284.698 399.387 284.118 399.448 283.56C399.561 282.541 399.47 281.612 399.157 280.573C399.088 280.341 398.9 280.113 398.743 279.891C398.87 280.072 398.481 280.902 398.42 281.051C398.264 281.427 398.068 281.77 397.836 282.078C397.374 282.692 396.762 283.193 396.065 283.572C394.506 284.419 392.603 284.634 390.8 284.961C390.322 285.048 389.944 285.517 390.092 285.835C390.243 286.158 390.486 286.433 390.855 286.608C391.346 286.841 391.786 287.123 392.203 287.41C392.746 287.785 393.25 288.178 393.734 288.579C393.777 288.615 393.835 288.651 393.886 288.648C394.312 288.619 394.731 288.579 395.177 288.593C394.849 287.346 393.744 286.549 392.502 286.149C392.999 286.127 393.466 286.139 393.91 286.206C394.52 286.298 394.951 286.645 395.176 287.202C395.305 287.523 395.369 287.872 395.472 288.209ZM391.463 285.491C391.702 285.429 391.935 285.339 392.17 285.323C393.297 285.25 394.445 285.189 395.527 284.961C396.407 284.777 397.219 284.418 397.92 283.936C398.211 283.736 398.46 283.475 398.757 283.199C398.879 283.785 398.668 284.181 398.427 284.482C398.097 284.895 397.691 285.298 397.225 285.513C396.426 285.882 395.458 285.998 394.502 285.776C393.487 285.541 392.481 285.522 391.463 285.491Z"
                      />
                    </mask>
                    <path
                      d="M395.472 288.209C395.549 288.457 395.629 288.67 395.942 288.715C396.457 288.789 396.963 288.944 397.468 289.104C397.813 289.213 397.845 289.174 397.919 288.807C398.036 288.232 398.195 287.675 398.383 287.139C398.609 286.492 398.903 285.882 399.108 285.225C399.273 284.698 399.387 284.118 399.448 283.56C399.561 282.541 399.47 281.612 399.157 280.573C399.088 280.341 398.9 280.113 398.743 279.891C398.87 280.072 398.481 280.902 398.42 281.051C398.264 281.427 398.068 281.77 397.836 282.078C397.374 282.692 396.762 283.193 396.065 283.572C394.506 284.419 392.603 284.634 390.8 284.961C390.322 285.048 389.944 285.517 390.092 285.835C390.243 286.158 390.486 286.433 390.855 286.608C391.346 286.841 391.786 287.123 392.203 287.41C392.746 287.785 393.25 288.178 393.734 288.579C393.777 288.615 393.835 288.651 393.886 288.648C394.312 288.619 394.731 288.579 395.177 288.593C394.849 287.346 393.744 286.549 392.502 286.149C392.999 286.127 393.466 286.139 393.91 286.206C394.52 286.298 394.951 286.645 395.176 287.202C395.305 287.523 395.369 287.872 395.472 288.209ZM391.463 285.491C391.702 285.429 391.935 285.339 392.17 285.323C393.297 285.25 394.445 285.189 395.527 284.961C396.407 284.777 397.219 284.418 397.92 283.936C398.211 283.736 398.46 283.475 398.757 283.199C398.879 283.785 398.668 284.181 398.427 284.482C398.097 284.895 397.691 285.298 397.225 285.513C396.426 285.882 395.458 285.998 394.502 285.776C393.487 285.541 392.481 285.522 391.463 285.491Z"
                      stroke="#CCA377"
                      stroke-width="2"
                      mask="url(#path-35-inside-16)"
                    />
                  </g>
                  <g id="Vector_30">
                    <mask id="path-36-inside-17" fill="white">
                      <path
                        d="M398.766 289.15C398.769 289.143 398.771 289.137 398.774 289.13C398.824 288.976 398.82 288.783 398.845 288.621C398.941 288.005 399.098 287.384 399.357 286.844C399.585 286.368 399.966 285.971 400.258 285.532C400.965 284.47 401.337 283.323 401.313 282.06C401.293 281.059 400.797 279.933 400.224 278.954C399.908 278.412 399.519 277.842 398.991 277.453C398.493 277.087 396.886 276.782 397.145 277.601C397.312 278.127 398.354 278.584 398.702 278.953C399.356 279.647 399.804 280.493 399.996 281.351C400.267 282.555 400.056 283.741 399.676 284.815C399.403 285.586 399.109 286.366 398.845 287.124C398.604 287.817 398.379 288.584 398.634 289.388C398.618 289.346 398.751 289.192 398.766 289.15Z"
                      />
                    </mask>
                    <path
                      d="M398.766 289.15C398.769 289.143 398.771 289.137 398.774 289.13C398.824 288.976 398.82 288.783 398.845 288.621C398.941 288.005 399.098 287.384 399.357 286.844C399.585 286.368 399.966 285.971 400.258 285.532C400.965 284.47 401.337 283.323 401.313 282.06C401.293 281.059 400.797 279.933 400.224 278.954C399.908 278.412 399.519 277.842 398.991 277.453C398.493 277.087 396.886 276.782 397.145 277.601C397.312 278.127 398.354 278.584 398.702 278.953C399.356 279.647 399.804 280.493 399.996 281.351C400.267 282.555 400.056 283.741 399.676 284.815C399.403 285.586 399.109 286.366 398.845 287.124C398.604 287.817 398.379 288.584 398.634 289.388C398.618 289.346 398.751 289.192 398.766 289.15Z"
                      stroke="#CCA377"
                      stroke-width="2"
                      mask="url(#path-36-inside-17)"
                    />
                  </g>
                  <g id="Vector_31">
                    <mask id="path-37-inside-18" fill="white">
                      <path
                        d="M403.795 285.038C403.491 284.548 402.817 283.464 402.244 283.371C401.991 283.33 402.034 283.543 401.932 283.792C401.562 284.698 400.943 285.498 400.381 286.31C400.023 286.829 398.718 289.386 399.493 289.615C400.318 289.859 401.716 289.68 402.809 289.619C403.195 289.598 403.599 289.513 403.936 289.356C404.259 289.205 404.521 288.985 404.665 288.682C404.866 288.26 404.811 287.75 404.703 287.264C404.532 286.491 404.221 285.723 403.795 285.038Z"
                      />
                    </mask>
                    <path
                      d="M403.795 285.038C403.491 284.548 402.817 283.464 402.244 283.371C401.991 283.33 402.034 283.543 401.932 283.792C401.562 284.698 400.943 285.498 400.381 286.31C400.023 286.829 398.718 289.386 399.493 289.615C400.318 289.859 401.716 289.68 402.809 289.619C403.195 289.598 403.599 289.513 403.936 289.356C404.259 289.205 404.521 288.985 404.665 288.682C404.866 288.26 404.811 287.75 404.703 287.264C404.532 286.491 404.221 285.723 403.795 285.038Z"
                      stroke="#CCA377"
                      stroke-width="2"
                      mask="url(#path-37-inside-18)"
                    />
                  </g>
                  <g id="Vector_32">
                    <mask id="path-38-inside-19" fill="white">
                      <path
                        d="M405.949 289.243C402.333 290.666 398.847 289.658 394.793 289.512C394.371 289.53 393.923 289.569 393.507 289.671C392.444 289.933 391.558 290.36 390.704 290.961C389.692 291.673 388.973 292.697 388.457 293.791C388.254 294.223 388.171 294.579 388.198 295.059C388.848 294.517 389.427 293.899 390.046 293.34C390.637 292.806 391.244 292.336 391.829 291.945C392.482 291.507 393.208 291.13 394 290.91C394.362 290.809 394.73 290.752 395.093 290.74C395.449 290.729 395.769 290.834 396.119 290.919C396.185 290.935 396.294 290.923 396.264 291.027C396.248 291.082 395.705 291.103 395.633 291.116C395.414 291.156 395.196 291.207 394.978 291.268C394.542 291.389 394.087 291.545 393.672 291.76C392.763 292.231 391.961 292.833 391.2 293.501C391.051 293.632 390.784 293.987 390.593 294.028C390.632 294.061 390.652 294.084 390.672 294.094C390.676 294.095 390.679 294.096 390.683 294.097C391.589 294.408 392.55 294.568 393.487 294.753C394.417 294.937 395.326 295.255 396.248 295.506C397.248 295.779 398.256 295.989 399.254 296.152C399.778 296.238 400.335 296.299 400.943 296.362C401.523 296.422 402.065 296.413 402.657 296.419C403.874 296.433 405.052 296.224 406.138 295.85C408.364 295.085 409.371 292.771 408.189 290.562C407.958 290.131 407.01 289.13 406.229 289.177C406.135 289.183 406.04 289.207 405.949 289.243Z"
                      />
                    </mask>
                    <path
                      d="M405.949 289.243C402.333 290.666 398.847 289.658 394.793 289.512C394.371 289.53 393.923 289.569 393.507 289.671C392.444 289.933 391.558 290.36 390.704 290.961C389.692 291.673 388.973 292.697 388.457 293.791C388.254 294.223 388.171 294.579 388.198 295.059C388.848 294.517 389.427 293.899 390.046 293.34C390.637 292.806 391.244 292.336 391.829 291.945C392.482 291.507 393.208 291.13 394 290.91C394.362 290.809 394.73 290.752 395.093 290.74C395.449 290.729 395.769 290.834 396.119 290.919C396.185 290.935 396.294 290.923 396.264 291.027C396.248 291.082 395.705 291.103 395.633 291.116C395.414 291.156 395.196 291.207 394.978 291.268C394.542 291.389 394.087 291.545 393.672 291.76C392.763 292.231 391.961 292.833 391.2 293.501C391.051 293.632 390.784 293.987 390.593 294.028C390.632 294.061 390.652 294.084 390.672 294.094C390.676 294.095 390.679 294.096 390.683 294.097C391.589 294.408 392.55 294.568 393.487 294.753C394.417 294.937 395.326 295.255 396.248 295.506C397.248 295.779 398.256 295.989 399.254 296.152C399.778 296.238 400.335 296.299 400.943 296.362C401.523 296.422 402.065 296.413 402.657 296.419C403.874 296.433 405.052 296.224 406.138 295.85C408.364 295.085 409.371 292.771 408.189 290.562C407.958 290.131 407.01 289.13 406.229 289.177C406.135 289.183 406.04 289.207 405.949 289.243Z"
                      stroke="#CCA377"
                      stroke-width="2"
                      mask="url(#path-38-inside-19)"
                    />
                  </g>
                  <g id="Vector_33">
                    <mask id="path-39-inside-20" fill="white">
                      <path
                        d="M410.513 277.593C409.601 277.628 408.73 277.931 407.902 278.185C406.959 278.475 405.661 278.843 405.411 279.84C405.291 280.318 405.377 280.848 405.448 281.326C405.753 283.406 406.543 286.397 406.074 288.342C407.101 288.108 408.125 288.576 408.78 289.467C408.843 289.409 408.874 289.39 408.887 289.367C409.476 288.343 409.587 287.091 409.8 285.92C409.92 285.264 410.065 284.563 410.262 283.834C410.75 282.033 411.518 280.309 412.255 278.606C412.557 277.91 412.414 277.541 411.84 277.531C411.394 277.524 410.934 277.577 410.513 277.593Z"
                      />
                    </mask>
                    <path
                      d="M410.513 277.593C409.601 277.628 408.73 277.931 407.902 278.185C406.959 278.475 405.661 278.843 405.411 279.84C405.291 280.318 405.377 280.848 405.448 281.326C405.753 283.406 406.543 286.397 406.074 288.342C407.101 288.108 408.125 288.576 408.78 289.467C408.843 289.409 408.874 289.39 408.887 289.367C409.476 288.343 409.587 287.091 409.8 285.92C409.92 285.264 410.065 284.563 410.262 283.834C410.75 282.033 411.518 280.309 412.255 278.606C412.557 277.91 412.414 277.541 411.84 277.531C411.394 277.524 410.934 277.577 410.513 277.593Z"
                      stroke="#CCA377"
                      stroke-width="2"
                      mask="url(#path-39-inside-20)"
                    />
                  </g>
                  <g id="Vector_34">
                    <mask id="path-40-inside-21" fill="white">
                      <path
                        d="M392.692 278.333C392.799 278.423 393.055 278.305 393.334 278.113C393.786 277.802 394.298 277.297 394.344 277.212C394.655 276.633 394.577 275.854 394.933 275.274C395.367 274.57 396.136 274.062 397.086 274.031C397.946 274.004 398.818 273.996 399.673 273.956C399.752 273.952 399.85 273.995 400.046 274.041C399.814 274.206 399.673 274.351 399.483 274.418C398.905 274.622 398.244 274.721 397.675 274.962C397.324 275.11 397.156 275.465 396.922 275.724C397.176 275.905 397.333 275.908 397.575 275.968C397.857 276.038 398.139 276.136 398.414 276.26C398.963 276.509 399.482 276.86 399.925 277.289C400.396 277.745 400.779 278.286 401.045 278.848C401.324 279.438 401.454 280.062 401.611 280.609C401.731 281.027 401.833 281.443 401.953 281.845C402.169 282.568 402.624 282.989 403.12 283.351C403.211 283.417 403.309 283.47 403.411 283.531C403.294 282.99 403.144 282.49 403.074 281.908C403.003 281.327 402.958 280.73 402.88 280.131C402.741 279.06 402.397 277.933 401.743 276.965C401.479 276.574 401.166 276.106 401.399 275.757C401.805 276.069 402.189 276.382 402.517 276.801C402.53 276.815 402.545 276.831 402.557 276.846C403.356 277.774 403.41 279.026 403.511 280.089C403.607 281.106 403.773 282.186 403.984 283.217C404.012 283.353 404.047 283.492 404.081 283.627C404.222 284.188 404.4 284.721 404.606 285.233C404.712 285.494 404.825 285.749 404.944 286.001C405.045 286.212 405.148 286.564 405.322 286.716C405.379 286.66 405.343 286.504 405.329 286.428C405.238 285.933 405.122 285.431 405.076 284.908C404.969 283.669 404.834 282.429 404.659 281.186C404.468 279.833 404.317 278.47 404.022 277.136C403.69 275.636 403.063 274.031 401.942 272.762C400.981 271.674 399.288 270.754 397.981 271.199C396.303 271.771 394.687 272.564 393.249 273.548C391.607 274.673 390.525 276.514 392.692 278.333Z"
                      />
                    </mask>
                    <path
                      d="M392.692 278.333C392.799 278.423 393.055 278.305 393.334 278.113C393.786 277.802 394.298 277.297 394.344 277.212C394.655 276.633 394.577 275.854 394.933 275.274C395.367 274.57 396.136 274.062 397.086 274.031C397.946 274.004 398.818 273.996 399.673 273.956C399.752 273.952 399.85 273.995 400.046 274.041C399.814 274.206 399.673 274.351 399.483 274.418C398.905 274.622 398.244 274.721 397.675 274.962C397.324 275.11 397.156 275.465 396.922 275.724C397.176 275.905 397.333 275.908 397.575 275.968C397.857 276.038 398.139 276.136 398.414 276.26C398.963 276.509 399.482 276.86 399.925 277.289C400.396 277.745 400.779 278.286 401.045 278.848C401.324 279.438 401.454 280.062 401.611 280.609C401.731 281.027 401.833 281.443 401.953 281.845C402.169 282.568 402.624 282.989 403.12 283.351C403.211 283.417 403.309 283.47 403.411 283.531C403.294 282.99 403.144 282.49 403.074 281.908C403.003 281.327 402.958 280.73 402.88 280.131C402.741 279.06 402.397 277.933 401.743 276.965C401.479 276.574 401.166 276.106 401.399 275.757C401.805 276.069 402.189 276.382 402.517 276.801C402.53 276.815 402.545 276.831 402.557 276.846C403.356 277.774 403.41 279.026 403.511 280.089C403.607 281.106 403.773 282.186 403.984 283.217C404.012 283.353 404.047 283.492 404.081 283.627C404.222 284.188 404.4 284.721 404.606 285.233C404.712 285.494 404.825 285.749 404.944 286.001C405.045 286.212 405.148 286.564 405.322 286.716C405.379 286.66 405.343 286.504 405.329 286.428C405.238 285.933 405.122 285.431 405.076 284.908C404.969 283.669 404.834 282.429 404.659 281.186C404.468 279.833 404.317 278.47 404.022 277.136C403.69 275.636 403.063 274.031 401.942 272.762C400.981 271.674 399.288 270.754 397.981 271.199C396.303 271.771 394.687 272.564 393.249 273.548C391.607 274.673 390.525 276.514 392.692 278.333Z"
                      stroke="#CCA377"
                      stroke-width="2"
                      mask="url(#path-40-inside-21)"
                    />
                  </g>
                  <g id="Vector_35">
                    <mask id="path-41-inside-22" fill="white">
                      <path
                        d="M399.986 271.31C399.974 271.303 399.962 271.296 399.951 271.289C399.438 271.026 398.901 270.871 398.412 270.946C398.231 270.974 398.066 271.027 397.894 271.08C397.86 271.099 397.825 271.119 397.793 271.142C397.782 271.149 397.77 271.156 397.76 271.164C397.969 271.072 398.19 271 398.43 270.963C398.926 270.886 399.465 271.038 399.986 271.31Z"
                      />
                    </mask>
                    <path
                      d="M399.986 271.31C399.974 271.303 399.962 271.296 399.951 271.289C399.438 271.026 398.901 270.871 398.412 270.946C398.231 270.974 398.066 271.027 397.894 271.08C397.86 271.099 397.825 271.119 397.793 271.142C397.782 271.149 397.77 271.156 397.76 271.164C397.969 271.072 398.19 271 398.43 270.963C398.926 270.886 399.465 271.038 399.986 271.31Z"
                      stroke="#CCA377"
                      stroke-width="2"
                      mask="url(#path-41-inside-22)"
                    />
                  </g>
                </g>
              </g>
            </g>
          </g>
          <g id="compass" clip-path="url(#clip2)">
            <g id="Group_6">
              <path
                id="Vector_36"
                d="M420.301 276.158C415.961 276.451 412.662 280.124 412.948 284.343C413.234 288.563 416.997 291.757 421.337 291.463C425.677 291.169 428.975 287.497 428.689 283.277C428.403 279.058 424.64 275.864 420.301 276.158ZM427.292 283.649L428.134 283.592C428.183 285.347 427.568 286.985 426.503 288.267L425.871 287.731C425.753 287.63 425.573 287.642 425.47 287.758C425.366 287.873 425.378 288.048 425.496 288.148L426.128 288.684C424.965 289.883 423.378 290.697 421.583 290.886L421.528 290.067C421.517 289.915 421.382 289.8 421.225 289.811C421.068 289.821 420.95 289.953 420.96 290.106L421.015 290.924C419.211 290.979 417.529 290.386 416.215 289.355L416.769 288.739C416.872 288.624 416.861 288.449 416.742 288.349C416.624 288.248 416.445 288.26 416.341 288.376L415.787 288.992C414.559 287.866 413.728 286.326 413.541 284.58L414.383 284.523C414.539 284.513 414.658 284.38 414.648 284.228C414.637 284.076 414.502 283.961 414.345 283.971L413.503 284.028C413.454 282.274 414.07 280.635 415.135 279.354L415.766 279.89C415.826 279.94 415.9 279.962 415.973 279.957C416.045 279.952 416.116 279.921 416.168 279.863C416.271 279.748 416.26 279.573 416.141 279.473L415.51 278.936C416.672 277.738 418.259 276.924 420.055 276.735L420.11 277.553C420.12 277.706 420.256 277.821 420.413 277.81C420.569 277.799 420.688 277.667 420.678 277.515L420.622 276.696C422.427 276.642 424.109 277.234 425.423 278.265L424.869 278.882C424.765 278.997 424.777 279.172 424.895 279.272C424.954 279.322 425.029 279.344 425.101 279.339C425.174 279.334 425.245 279.302 425.297 279.245L425.85 278.628C427.078 279.754 427.909 281.295 428.097 283.04L427.255 283.097C427.098 283.108 426.98 283.24 426.99 283.392C427 283.545 427.136 283.66 427.292 283.649Z"
                fill="#CCA377"
              />
              <path
                id="Vector_37"
                d="M421.292 282.633C420.626 282.382 419.871 282.705 419.61 283.354C419.484 283.668 419.49 284.012 419.629 284.32C419.768 284.629 420.022 284.866 420.345 284.987C420.525 285.056 420.715 285.083 420.903 285.07C421.051 285.06 421.198 285.025 421.338 284.965C421.656 284.829 421.901 284.581 422.027 284.267C422.154 283.952 422.147 283.609 422.008 283.301C421.869 282.992 421.615 282.755 421.292 282.633ZM421.497 284.067C421.426 284.243 421.289 284.383 421.11 284.459C420.932 284.536 420.734 284.54 420.553 284.471C420.371 284.403 420.228 284.27 420.15 284.097C420.073 283.923 420.069 283.731 420.14 283.554C420.246 283.29 420.498 283.121 420.772 283.103C420.875 283.096 420.982 283.11 421.085 283.149C421.266 283.218 421.409 283.351 421.487 283.524C421.565 283.697 421.568 283.89 421.497 284.067Z"
                fill="#CCA377"
              />
              <path
                id="Vector_38"
                d="M425.27 285.194L422.96 284.322C423.078 283.863 423.039 283.383 422.841 282.944C422.703 282.636 422.497 282.371 422.24 282.162L422.526 281.452L423.286 281.433C423.362 281.432 423.434 281.399 423.487 281.345C423.539 281.291 423.567 281.219 423.564 281.145L423.436 278C423.432 277.89 423.361 277.794 423.256 277.754C423.151 277.714 423.031 277.739 422.951 277.817L420.66 280.048C420.606 280.101 420.576 280.172 420.577 280.247C420.577 280.321 420.609 280.391 420.663 280.443L421.209 280.955L420.924 281.665C420.589 281.651 420.252 281.711 419.935 281.847C419.483 282.04 419.118 282.368 418.885 282.783L416.574 281.911C416.428 281.855 416.263 281.926 416.206 282.069C416.148 282.211 416.22 282.371 416.367 282.427L418.678 283.299C418.559 283.757 418.599 284.238 418.796 284.677C418.934 284.984 419.141 285.249 419.397 285.458L419.112 286.168L418.352 286.188C418.275 286.189 418.203 286.221 418.151 286.275C418.098 286.33 418.071 286.402 418.074 286.476L418.201 289.62C418.205 289.73 418.276 289.827 418.381 289.866C418.421 289.881 418.463 289.887 418.504 289.884C418.571 289.88 418.636 289.852 418.686 289.804L420.977 287.572C421.031 287.52 421.061 287.448 421.06 287.374C421.06 287.3 421.029 287.229 420.974 287.178L420.428 286.665L420.714 285.954C420.796 285.958 420.879 285.957 420.96 285.952C421.697 285.902 422.383 285.492 422.752 284.837L425.063 285.71C425.103 285.725 425.145 285.731 425.185 285.728C425.292 285.721 425.39 285.655 425.432 285.552C425.489 285.41 425.417 285.249 425.27 285.194ZM422.324 280.904C422.315 280.904 422.306 280.906 422.297 280.907L422.923 279.383L422.984 280.887L422.324 280.904ZM422.421 279.115L421.765 280.711C421.758 280.701 421.75 280.692 421.741 280.684L421.267 280.239L422.421 279.115ZM421.789 281.031L422.045 281.13L421.751 281.862C421.709 281.843 421.667 281.825 421.624 281.809C421.581 281.793 421.537 281.778 421.494 281.765L421.789 281.031ZM419.371 286.709L418.717 288.3L418.653 286.734C418.654 286.733 419.352 286.713 419.371 286.709ZM419.263 288.46L419.891 286.931C419.893 286.933 419.894 286.935 419.896 286.937L420.37 287.382L419.263 288.46ZM419.837 286.618L419.58 286.52L419.887 285.759C419.928 285.777 419.97 285.795 420.013 285.812C420.056 285.828 420.1 285.843 420.143 285.856L419.837 286.618ZM422.344 284.386C422.014 285.205 421.062 285.613 420.221 285.296C419.813 285.142 419.493 284.843 419.318 284.454C419.142 284.064 419.134 283.631 419.294 283.235C419.453 282.838 419.762 282.525 420.163 282.353C420.34 282.277 420.525 282.233 420.712 282.22C420.949 282.204 421.189 282.239 421.416 282.325C421.824 282.479 422.145 282.778 422.32 283.167C422.495 283.556 422.503 283.989 422.344 284.386Z"
                fill="#CCA377"
              />
              <path
                id="Vector_39"
                d="M431.668 276.55C431.358 275.212 430.906 273.682 430.152 273.733C429.755 273.76 429.269 274.125 429.029 276.729C428.975 277.31 428.94 277.954 428.922 278.643C428.598 278.16 428.231 277.711 427.829 277.301C428.631 275.813 429.418 273.435 428.888 270.282C428.864 270.141 428.735 270.04 428.585 270.052C426.317 270.229 424.41 271.265 422.915 273.129C422.585 273.541 422.279 273.992 422.002 274.47C421.848 274.452 421.693 274.439 421.538 274.428L421.471 273.442C421.784 273.119 421.984 272.693 422.014 272.229C423.294 271.437 424.022 270.049 423.921 268.57C423.772 266.363 421.804 264.693 419.535 264.847C417.265 265 415.54 266.921 415.69 269.127C415.79 270.607 416.698 271.883 418.073 272.496C418.165 272.952 418.42 273.346 418.774 273.624L418.841 274.61C417.673 274.851 416.587 275.295 415.621 275.9L412.716 273.055C412.831 272.869 412.891 272.648 412.875 272.416C412.834 271.808 412.292 271.348 411.666 271.39C411.041 271.432 410.565 271.962 410.606 272.57C410.648 273.178 411.19 273.638 411.815 273.596C411.997 273.584 412.164 273.53 412.311 273.446L415.143 276.219C414.953 276.354 414.768 276.496 414.589 276.644L413.153 276.112C413.18 275.891 413.138 275.667 413.028 275.467L413.028 275.467C412.733 274.93 412.044 274.727 411.49 275.016C411.222 275.155 411.026 275.388 410.937 275.671C410.848 275.954 410.878 276.253 411.021 276.513C411.163 276.773 411.402 276.963 411.692 277.048C411.826 277.088 411.964 277.102 412.1 277.093C412.258 277.083 412.414 277.039 412.558 276.964C412.716 276.882 412.848 276.767 412.949 276.629L414.115 277.062C412.134 278.926 410.974 281.591 411.168 284.464C411.248 285.645 411.551 286.76 412.033 287.774C411.352 288.486 408.909 291.42 409.528 296.308C409.546 296.451 409.673 296.556 409.821 296.55C409.902 296.547 409.983 296.542 410.065 296.537C412.04 296.403 413.763 295.598 415.197 294.141C415.422 295.405 415.922 296.634 416.687 297.801C416.744 297.889 416.845 297.935 416.946 297.928C416.984 297.925 417.022 297.915 417.058 297.897C418.888 296.962 420.1 295.346 420.575 293.214C420.866 293.22 421.159 293.213 421.454 293.193C424.973 292.955 428.047 290.89 429.545 287.838C429.655 288.518 429.777 289.151 429.909 289.72C430.218 291.058 430.67 292.588 431.425 292.537C431.821 292.51 432.307 292.145 432.547 289.542C432.709 287.785 432.707 285.468 432.541 283.017C432.375 280.565 432.065 278.269 431.668 276.55ZM411.174 272.531C411.154 272.228 411.391 271.963 411.703 271.942C412.016 271.921 412.287 272.151 412.307 272.455C412.328 272.758 412.09 273.023 411.778 273.044C411.466 273.065 411.195 272.835 411.174 272.531ZM412.567 276.149C412.523 276.29 412.425 276.406 412.291 276.476C412.157 276.546 412.003 276.561 411.858 276.519C411.713 276.476 411.594 276.381 411.523 276.251C411.452 276.121 411.437 275.972 411.481 275.83C411.525 275.689 411.624 275.573 411.758 275.503C411.831 275.465 411.908 275.444 411.986 275.439C412.202 275.424 412.417 275.531 412.526 275.728C412.597 275.858 412.612 276.008 412.567 276.149ZM423.364 273.468C424.697 271.804 426.379 270.85 428.367 270.629C428.774 273.402 428.114 275.519 427.404 276.895C426.778 276.332 426.08 275.853 425.329 275.47L425.603 275.081L427.242 274.909C427.398 274.893 427.512 274.756 427.496 274.604C427.479 274.452 427.338 274.343 427.183 274.359L426.026 274.48L426.733 273.477L427.946 273.194C428.099 273.159 428.194 273.009 428.158 272.861C428.122 272.712 427.969 272.621 427.816 272.656L427.212 272.797L427.777 271.995C427.866 271.869 427.833 271.697 427.703 271.611C427.574 271.525 427.397 271.558 427.308 271.684L426.647 272.623L426.372 271.846C426.321 271.701 426.16 271.625 426.011 271.675C425.862 271.725 425.783 271.883 425.834 272.027L426.245 273.192L425.489 274.265L424.955 273.161C424.888 273.023 424.718 272.964 424.576 273.029C424.434 273.095 424.373 273.26 424.44 273.398L425.116 274.795L424.812 275.228C424.111 274.921 423.371 274.696 422.605 274.559C422.839 274.172 423.093 273.806 423.364 273.468ZM418.437 270.958C417.752 270.537 417.304 269.816 417.25 269.022C417.157 267.652 418.228 266.459 419.637 266.364C421.047 266.268 422.269 267.305 422.362 268.675C422.415 269.47 422.068 270.245 421.446 270.754C421.054 270.368 420.497 270.143 419.896 270.184C419.295 270.224 418.774 270.522 418.437 270.958ZM416.257 269.089C416.129 267.186 417.615 265.531 419.572 265.399C421.528 265.266 423.225 266.706 423.354 268.608C423.434 269.788 422.902 270.9 421.948 271.601C421.909 271.459 421.853 271.325 421.784 271.199C422.561 270.578 422.996 269.62 422.929 268.637C422.816 266.963 421.322 265.695 419.6 265.812C417.878 265.929 416.569 267.386 416.682 269.06C416.749 270.042 417.309 270.933 418.163 271.444C418.111 271.578 418.074 271.719 418.053 271.864C417.014 271.299 416.337 270.269 416.257 269.089ZM418.608 272.212C418.556 271.451 419.151 270.789 419.933 270.736C420.716 270.683 421.394 271.259 421.446 272.02C421.498 272.78 420.903 273.443 420.12 273.496C419.338 273.549 418.659 272.973 418.608 272.212ZM419.366 273.945C419.613 274.029 419.881 274.066 420.158 274.047C420.435 274.029 420.695 273.955 420.928 273.839L420.966 274.406C420.706 274.403 420.445 274.409 420.183 274.427C419.92 274.445 419.661 274.473 419.405 274.511L419.366 273.945ZM410.063 295.982C409.618 291.765 411.549 289.152 412.306 288.304C412.729 289.063 413.256 289.756 413.867 290.368L413.74 290.538L412.031 290.048C411.88 290.005 411.722 290.089 411.677 290.235C411.632 290.382 411.718 290.536 411.868 290.579L413.385 291.014L412.748 291.866L411.26 291.53C411.107 291.496 410.954 291.588 410.918 291.737C410.882 291.886 410.976 292.035 411.129 292.069L412.385 292.353L411.734 293.225L410.85 293.078C410.695 293.053 410.547 293.154 410.52 293.305C410.493 293.455 410.597 293.598 410.752 293.624L411.361 293.725L410.494 294.887C410.401 295.011 410.429 295.184 410.556 295.274C410.612 295.313 410.678 295.33 410.742 295.325C410.824 295.32 410.902 295.281 410.954 295.211L411.759 294.133L411.886 294.523C411.927 294.646 412.048 294.722 412.176 294.714C412.198 294.712 412.221 294.708 412.243 294.701C412.393 294.654 412.476 294.498 412.429 294.353L412.174 293.576L412.741 292.816L412.966 293.671C413 293.802 413.126 293.887 413.26 293.878C413.277 293.877 413.294 293.874 413.312 293.87C413.464 293.831 413.556 293.68 413.517 293.532L413.176 292.234L413.77 291.437L414.263 292.712C414.308 292.829 414.426 292.898 414.547 292.89C414.575 292.888 414.602 292.882 414.629 292.872C414.776 292.818 414.85 292.658 414.795 292.516L414.171 290.9L414.278 290.757C414.838 291.255 415.459 291.689 416.126 292.049C415.834 292.514 415.516 292.947 415.176 293.337C413.777 294.948 412.057 295.837 410.063 295.982ZM417.027 297.283C416.295 296.106 415.847 294.869 415.69 293.599C416.026 293.202 416.343 292.768 416.632 292.302C417.024 292.484 417.429 292.642 417.846 292.772L417.844 292.778L416.779 293.092C416.628 293.136 416.543 293.291 416.588 293.437C416.633 293.583 416.791 293.666 416.942 293.622L417.69 293.401L417.443 294.394L416.688 294.55C416.534 294.581 416.435 294.728 416.467 294.878C416.499 295.027 416.65 295.123 416.804 295.091L417.295 294.989L417 296.178C416.963 296.327 417.057 296.476 417.21 296.511C417.239 296.518 417.267 296.52 417.296 296.518C417.416 296.51 417.523 296.427 417.553 296.306L417.845 295.129L418.045 295.375C418.106 295.449 418.197 295.484 418.288 295.478C418.343 295.475 418.398 295.455 418.445 295.419C418.568 295.324 418.589 295.15 418.492 295.03L418.015 294.445L418.256 293.477L418.831 294.031C418.891 294.089 418.972 294.115 419.05 294.11C419.117 294.105 419.182 294.078 419.233 294.028C419.344 293.919 419.343 293.744 419.232 293.637L418.526 292.957C419.005 293.069 419.497 293.146 419.998 293.186C419.566 295.041 418.568 296.418 417.027 297.283ZM421.417 292.641C416.408 292.981 412.066 289.295 411.736 284.425C411.406 279.556 415.212 275.318 420.221 274.979C421.829 274.87 423.394 275.177 424.782 275.824C424.787 275.826 424.791 275.829 424.795 275.83C426.529 276.642 427.986 277.986 428.909 279.721C428.91 280.829 428.952 282.025 429.035 283.254C429.118 284.483 429.238 285.674 429.386 286.772C428.159 290.095 425.038 292.396 421.417 292.641ZM429.603 283.216C429.445 280.888 429.437 278.667 429.579 276.962C429.651 276.107 429.747 275.524 429.842 275.126C430.415 276.586 430.936 279.666 431.169 283.109C431.402 286.552 431.301 289.674 430.931 291.199C430.782 290.817 430.609 290.252 430.423 289.415C430.051 287.745 429.76 285.543 429.603 283.216ZM431.997 289.309C431.811 291.538 431.456 291.925 431.387 291.979C431.372 291.97 431.343 291.949 431.304 291.905C431.833 290.566 432.008 287.076 431.737 283.071C431.466 279.066 430.822 275.631 430.117 274.376C430.15 274.327 430.175 274.302 430.189 274.291C430.265 274.336 430.669 274.672 431.154 276.855C431.525 278.526 431.816 280.727 431.974 283.055C432.131 285.383 432.139 287.604 431.997 289.309Z"
                fill="#CCA377"
              />
            </g>
          </g>
          <g id="owl" clip-path="url(#clip0)">
            <g id="Group">
              <g id="Group_2">
                <g id="Group_3">
                  <path
                    id="Vector"
                    d="M450.948 249.133C451.714 249.733 452.638 249.667 453.062 249.533C453.421 249.42 453.624 249.043 453.525 248.683C453.425 248.322 453.051 248.117 452.689 248.218C452.669 248.224 452.198 248.351 451.802 248.041C451.412 247.736 451.415 247.26 451.416 247.224C451.435 246.849 451.15 246.533 450.775 246.518C450.398 246.502 450.073 246.798 450.05 247.177C450.023 247.621 450.181 248.534 450.948 249.133Z"
                    fill="#CCA377"
                  />
                  <path
                    id="Vector_2"
                    d="M462.374 233.426C460.311 231.812 457.292 232.214 455.643 234.321C453.994 236.429 454.331 239.456 456.394 241.07C458.457 242.684 461.476 242.283 463.125 240.175C464.774 238.067 464.437 235.04 462.374 233.426ZM457.248 239.978C455.775 238.826 455.534 236.663 456.712 235.158C457.89 233.652 460.047 233.365 461.52 234.518C462.993 235.671 463.234 237.833 462.056 239.339C460.878 240.844 458.722 241.131 457.248 239.978Z"
                    fill="#CCA377"
                  />
                  <path
                    id="Vector_3"
                    d="M456.964 251.563C456.944 251.569 456.474 251.696 456.078 251.386C455.688 251.081 455.691 250.605 455.692 250.569C455.71 250.194 455.425 249.878 455.051 249.863C454.673 249.847 454.349 250.142 454.326 250.522C454.299 250.966 454.457 251.878 455.223 252.478C455.99 253.078 456.913 253.011 457.338 252.878C457.697 252.765 457.9 252.388 457.801 252.028C457.701 251.667 457.326 251.461 456.964 251.563Z"
                    fill="#CCA377"
                  />
                  <path
                    id="Vector_4"
                    d="M451.328 234.342C451.052 234.608 451.039 235.043 451.297 235.314C451.557 235.582 451.989 235.59 452.265 235.325C455.882 231.831 456.997 228.201 457.057 227.995C457.062 227.967 457.608 225.57 460.135 222.022L461.496 227.281C461.551 227.498 461.71 227.671 461.921 227.745C461.961 227.758 465.947 229.179 470.602 232.821C475.257 236.462 477.594 239.989 477.618 240.025C477.741 240.212 477.946 240.324 478.17 240.326L483.602 240.381C480.766 243.688 478.566 244.796 478.498 244.832C478.36 244.914 475.105 246.87 472.585 251.221C472.41 251.523 472.485 251.899 472.747 252.104C472.772 252.123 472.798 252.141 472.827 252.158C473.153 252.344 473.572 252.226 473.764 251.894C476.081 247.894 479.125 246.043 479.122 246.041C479.241 245.983 482.086 244.572 485.565 240.125C485.727 239.918 485.76 239.64 485.651 239.405C485.542 239.17 485.311 239.022 485.051 239.02L478.56 238.954C477.885 238.001 475.558 234.937 471.456 231.729C467.355 228.52 463.821 226.998 462.733 226.572L461.108 220.288C461.043 220.036 460.842 219.847 460.589 219.798C460.335 219.749 460.073 219.849 459.911 220.055C456.432 224.502 455.746 227.602 455.733 227.677C455.723 227.711 454.68 231.104 451.328 234.342Z"
                    fill="#CCA377"
                  />
                  <path
                    id="Vector_5"
                    d="M463.566 246.83C463.452 246.469 463.067 246.278 462.707 246.401L458.984 247.671L459.32 243.752C459.353 243.372 459.074 243.044 458.698 243.021C458.321 242.996 457.99 243.283 457.957 243.662L457.532 248.611C457.512 248.84 457.607 249.062 457.786 249.202C457.965 249.341 458.203 249.381 458.421 249.307L463.122 247.703C463.482 247.58 463.681 247.189 463.566 246.83Z"
                    fill="#CCA377"
                  />
                  <path
                    id="Vector_6"
                    d="M460.238 236.156C459.649 235.695 458.786 235.81 458.315 236.412C457.844 237.014 457.94 237.879 458.53 238.34C459.119 238.801 459.982 238.687 460.453 238.084C460.924 237.482 460.828 236.617 460.238 236.156Z"
                    fill="#CCA377"
                  />
                  <path
                    id="Vector_7"
                    d="M457.34 257.281C457.699 257.168 457.902 256.791 457.802 256.431C457.703 256.069 457.328 255.865 456.966 255.966C456.946 255.971 456.475 256.099 456.079 255.789C455.69 255.484 455.693 255.007 455.694 254.972C455.712 254.596 455.427 254.281 455.053 254.265C454.676 254.25 454.351 254.545 454.328 254.924C454.3 255.369 454.459 256.281 455.225 256.881C455.991 257.48 456.915 257.414 457.34 257.281Z"
                    fill="#CCA377"
                  />
                  <path
                    id="Vector_8"
                    d="M472.745 247.701C474.394 245.593 474.057 242.566 471.994 240.952C469.932 239.338 466.912 239.74 465.263 241.847C463.614 243.955 463.951 246.983 466.014 248.597C468.077 250.21 471.096 249.809 472.745 247.701ZM466.868 247.504C465.395 246.352 465.154 244.189 466.332 242.684C467.51 241.178 469.667 240.891 471.14 242.044C472.614 243.197 472.854 245.359 471.676 246.865C470.499 248.37 468.342 248.657 466.868 247.504Z"
                    fill="#CCA377"
                  />
                  <path
                    id="Vector_9"
                    d="M472.314 253.543C472.234 253.502 470.319 252.575 467.648 253.516C464.623 254.583 461.926 257.531 459.631 262.278C459.464 262.623 459.606 263.033 459.943 263.192C460.283 263.353 460.693 263.203 460.859 262.859C462.944 258.547 465.425 255.77 468.033 254.829C469.377 254.344 470.461 254.442 471.09 254.585C468.894 259.63 464.426 263.949 460.018 265.219C458.688 265.602 456.844 265.82 455.365 264.871C455.488 263.943 455.15 262.984 454.373 262.376C453.585 261.759 452.557 261.668 451.678 262.028L446.807 258.217C446.945 257.277 446.609 256.302 445.821 255.686C445.044 255.078 444.033 254.98 443.162 255.322C441.888 254.107 441.656 252.261 441.708 250.875C441.883 246.289 444.997 240.92 449.359 237.585C449.647 238.154 449.998 239.166 449.863 240.564C449.596 243.334 447.495 246.425 443.787 249.502C443.493 249.746 443.447 250.18 443.683 250.471C443.92 250.761 444.351 250.799 444.645 250.555C448.703 247.187 450.917 243.861 451.225 240.669C451.498 237.85 450.135 236.214 450.077 236.146C449.85 235.882 449.458 235.834 449.168 236.039C444.168 239.566 440.539 245.657 440.342 250.85C440.256 253.099 440.833 254.914 442.015 256.155C442.003 256.171 441.987 256.182 441.975 256.197C441.504 256.8 441.6 257.665 442.189 258.126L444.327 259.798C444.917 260.259 445.779 260.145 446.251 259.542L450.526 262.887C450.055 263.49 450.151 264.355 450.741 264.816L452.878 266.488C453.468 266.949 454.331 266.835 454.802 266.232C454.813 266.218 454.82 266.201 454.831 266.186C456.314 267.038 458.211 267.163 460.37 266.541C465.363 265.102 470.407 260.11 472.637 254.4C472.765 254.069 472.627 253.695 472.314 253.543ZM443.044 257.034C443.515 256.431 444.377 256.317 444.967 256.778C445.556 257.239 445.653 258.104 445.182 258.707L443.044 257.034ZM451.595 263.724C452.066 263.121 452.929 263.007 453.518 263.468C454.108 263.929 454.204 264.794 453.733 265.397L451.595 263.724Z"
                    fill="#CCA377"
                  />
                  <path
                    id="Vector_10"
                    d="M450.415 253.118C451.181 253.717 452.105 253.651 452.53 253.518C452.889 253.405 453.091 253.028 452.992 252.668C452.893 252.306 452.518 252.102 452.156 252.203C452.136 252.208 451.665 252.336 451.269 252.026C450.88 251.721 450.883 251.244 450.884 251.209C450.902 250.833 450.617 250.518 450.243 250.502C449.866 250.486 449.541 250.782 449.518 251.161C449.49 251.606 449.649 252.518 450.415 253.118Z"
                    fill="#CCA377"
                  />
                  <path
                    id="Vector_11"
                    d="M469.859 243.682C469.269 243.221 468.406 243.336 467.935 243.938C467.464 244.54 467.56 245.405 468.15 245.866C468.739 246.328 469.602 246.213 470.073 245.611C470.544 245.008 470.448 244.143 469.859 243.682Z"
                    fill="#CCA377"
                  />
                  <path
                    id="Vector_12"
                    d="M450.951 257.939C451.718 258.538 452.641 258.472 453.066 258.339C453.425 258.226 453.628 257.849 453.529 257.489C453.43 257.127 453.054 256.922 452.692 257.024C452.672 257.029 452.202 257.156 451.806 256.846C451.416 256.542 451.419 256.065 451.42 256.03C451.438 255.654 451.153 255.339 450.779 255.323C450.401 255.308 450.077 255.602 450.054 255.982C450.027 256.427 450.185 257.339 450.951 257.939Z"
                    fill="#CCA377"
                  />
                  <path
                    id="Vector_13"
                    d="M461.614 256.223C461.972 256.11 462.175 255.733 462.076 255.373C461.977 255.012 461.602 254.807 461.24 254.908C461.22 254.914 460.749 255.041 460.353 254.731C459.963 254.426 459.967 253.95 459.968 253.914C459.986 253.539 459.7 253.223 459.326 253.208C458.949 253.192 458.624 253.487 458.601 253.867C458.574 254.311 458.732 255.224 459.499 255.823C460.265 256.423 461.189 256.357 461.614 256.223Z"
                    fill="#CCA377"
                  />
                </g>
              </g>
            </g>
          </g>
        </g>
      </g>
      <g id="fabio head">
        <path
          id="neck"
          d="M451 147.5C451 144 450.336 123.896 453 104C453 104 401.435 144.62 401.5 149C401.565 153.38 401.549 156.161 401.5 158C401.5 158 406 172.5 416 174.5C426 176.5 451 147.5 451 147.5Z"
          fill="#FFDBB4"
        />
        <path
          id="head"
          d="M456.5 71.9774C456.5 83.3445 456.27 92.2451 455.226 99.6502C452.581 118.42 444.707 127.581 422.092 142.945C412.717 148.301 395.985 155.888 382.774 151.871C370.842 148.243 355.5 104.747 355.5 78.2261C355.5 38.046 373.261 20.1076 406.213 16.1857C424.964 13.954 456.5 31.7973 456.5 71.9774Z"
          fill="#FFDBB4"
        />
        <g id="hair">
          <path
            d="M414.291 45.4973C375.164 49.9653 360.075 50.2587 357.145 47.9794C354.215 45.7002 355.6 18.689 358.175 21.6677C360.749 24.6464 360.275 22.7607 362.808 18.6891C368.986 8.76026 371.102 11.9539 371.56 17.1996C371.907 21.1712 372.576 18.4897 373.105 17.6961C377.738 10.7458 388.035 -1.16897 386.491 8.26354C384.946 17.696 402.45 -5.14059 398.846 6.27774C395.243 17.6961 432.171 9.9041 452.904 36.5611C477.615 68.3338 451.359 115 451.359 115C451.359 115 459.444 69.4371 447.24 68.3338C444.438 68.0805 442.751 69.1411 441.062 71.3125C437.973 75.2841 437.459 92.6598 437.459 92.6598C437.459 92.6598 434.186 94.0275 433.34 92.6598C430.766 88.5 433.85 81.9719 430.766 76.277C427.973 71.1194 423.186 70.7466 419.954 65.8517C415.409 58.9661 414.291 45.4973 414.291 45.4973Z"
            fill="#4A4A4A"
          />
          <path
            d="M414.291 45.4973C375.164 49.9653 360.075 50.2587 357.145 47.9794C354.215 45.7002 355.6 18.689 358.175 21.6677C360.749 24.6464 360.275 22.7607 362.808 18.6891C368.986 8.76026 371.102 11.9539 371.56 17.1996C371.907 21.1712 372.576 18.4897 373.105 17.6961C377.738 10.7458 388.035 -1.16897 386.491 8.26354C384.946 17.696 402.45 -5.14059 398.846 6.27774C395.243 17.6961 432.171 9.9041 452.904 36.5611C477.615 68.3338 451.359 115 451.359 115C451.359 115 459.444 69.4371 447.24 68.3338C444.438 68.0805 442.751 69.1411 441.062 71.3125C437.973 75.2841 437.459 92.6598 437.459 92.6598C437.459 92.6598 434.186 94.0275 433.34 92.6598C430.766 88.5 433.85 81.9719 430.766 76.277C427.973 71.1194 423.186 70.7466 419.954 65.8517C415.409 58.9661 414.291 45.4973 414.291 45.4973Z"
            fill="url(#paint0_linear)"
          />
        </g>
        <path
          id="eyes"
          d="M391 88C392 82.5001 400.5 81.0001 404 86.0001M359.5 88.9998C362.5 84.5 366 84 369.5 88"
          stroke="#505050"
        />
        <path
          id="eyebrow"
          d="M388.499 74.1706C391.54 71.7203 404.615 68.0665 408.53 72.5M368.444 76.2564C363.486 73.6745 357.692 72.5188 355.438 76.5424"
          stroke="#3D3D3D"
          stroke-width="3"
        />
        <g id="glasses">
          <path
            id="Ellipse 4"
            d="M375.194 87.6068C376.06 94.9034 371.83 101.242 365.949 101.94C360.068 102.638 354.471 97.4664 353.605 90.1698C352.739 82.8732 356.969 76.5351 362.85 75.837C368.731 75.1388 374.328 80.3102 375.194 87.6068Z"
            stroke="black"
          />
          <path
            id="Ellipse 5"
            d="M412.825 85.9763C413.457 94.6094 407.517 102.01 399.647 102.587C391.776 103.164 384.821 96.7076 384.189 88.0746C383.556 79.4415 389.496 72.0405 397.366 71.4638C405.237 70.8871 412.192 77.3432 412.825 85.9763Z"
            stroke="black"
          />
          <path
            id="Vector 4"
            d="M374.5 85C376.853 82.3333 381.559 82.3333 384.5 85"
            stroke="black"
          />
          <path id="Vector 5" d="M410 78L437.5 74.5" stroke="black" />
          <path
            id="nose"
            d="M378.172 87C378.172 87 376.529 96.3875 371.66 107.785C369.884 111.942 383.5 108.973 383.5 108.973"
            stroke="#B9946B"
          />
        </g>
        <g id="headphone">
          <path
            id="Vector 2"
            d="M430 17.5001C442.5 24.7918 454 65.5001 453 65.5001C452 65.5002 445.293 64.4649 442 68.0001C435.728 47.0934 426.5 19.0001 411.5 14.5054C418 13.0001 424 14.0001 430 17.5001Z"
            fill="#F0F0F0"
          />
          <ellipse
            id="Ellipse 1"
            cx="449.5"
            cy="87"
            rx="16"
            ry="22"
            fill="white"
          />
          <ellipse
            id="Ellipse 2"
            cx="454"
            cy="87"
            rx="12.5"
            ry="17"
            fill="#E5E5E5"
          />
          <ellipse
            id="Ellipse 3"
            cx="455"
            cy="87"
            rx="3.5"
            ry="5"
            fill="#DADADA"
          />
        </g>
        <path
          id="mouth"
          d="M372.755 124.454C376.298 127.569 383.698 128.784 392.071 124.078"
          stroke="#B9946B"
        />
        <g id="beard">
          <path
            id="Vector 8"
            d="M405 147C401.5 150 425 136.5 434.5 127"
            stroke="#B9946B"
          />
          <path
            id="Vector 6"
            d="M374.5 112C370.935 111.136 368.5 119 365 118C361.5 117 367 125 378.5 121.5C393 125 402.5 113.5 396.5 116C390.5 118.5 386.327 109.492 381 111.5C379.774 111.962 378 113.5 378 113.5C378 113.5 375.773 112.309 374.5 112Z"
            fill="#4A4A4A"
          />
          <path
            id="beard_2"
            d="M389 154.5C384.5 155 378.155 151.989 375.5 146C379.598 146.164 382 144.5 383.5 140.5C387 144.5 396.5 147.5 407 146C403 153 393.5 154 389 154.5Z"
            fill="#3D3D3D"
          />
        </g>
      </g>
    </g>
    <g id="notebook">
      <path
        id="Vector 9"
        d="M150.5 206.506C150.5 209.512 160.486 304.049 160.467 305.875L357.5 305.875L362.5 303L307.741 303C307.741 303 299 209.11 299 206.506C299 203.902 150.5 203.5 150.5 206.506Z"
        fill="#E5E5E5"
        stroke="#E5E5E5"
      />
      <g id="pear-svgrepo-com 1" clip-path="url(#clip3)">
        <g id="Group_7">
          <g id="b17 pear">
            <path
              id="Vector_40"
              d="M227.627 252.021C227.112 249.527 224.674 247.805 221.983 248.122C219.292 248.438 217.32 250.678 217.397 253.223C216.046 254.724 215.32 256.729 215.568 258.84C216.038 262.839 219.807 265.683 223.99 265.192C228.171 264.7 231.179 261.06 230.709 257.06C230.461 254.95 229.288 253.168 227.627 252.021Z"
              fill="#DADADA"
            />
            <path
              id="Vector_41"
              d="M222.145 249.5C222.145 249.5 220.327 244.919 223.043 243.152L222.145 249.5Z"
              fill="#DADADA"
            />
          </g>
        </g>
      </g>
    </g>
    <g id="phoebe">
      <ellipse
        id="Ellipse 6"
        cx="138.872"
        cy="208.733"
        rx="25"
        ry="23.5"
        fill="#947548"
      />
      <g id="Vector 10">
        <path
          d="M126.372 179.233C130.039 184.733 132.272 185.633 131.872 187.233L117.872 196.733C117.43 187.903 122.705 173.733 126.372 179.233Z"
          fill="#947548"
        />
        <path
          d="M158.372 182.733C157.372 176.733 149.872 184.233 149.872 188.733L159.372 195.733C159.058 190.944 158.034 188.929 158.372 182.733Z"
          fill="#947548"
        />
      </g>
      <circle id="Ellipse 7" cx="138.872" cy="200.233" r="3" fill="#C2AF79" />
      <path
        id="Vector 12"
        d="M145.872 213.625C149.372 215.507 150.553 212.73 150.872 209.233C150.76 212.554 150.872 214.253 154.872 212.998"
        stroke="black"
      />
      <path
        id="Vector 11"
        d="M152.995 206.301C152.353 204.877 148.635 204.879 147.995 206.303C147.587 207.212 148.269 207.622 148.996 208.303C149.851 209.104 151.141 209.103 151.996 208.302C152.722 207.621 153.404 207.209 152.995 206.301Z"
        fill="#DFD4BF"
      />
      <ellipse
        id="Ellipse 8"
        cx="154.372"
        cy="200.233"
        rx="2.5"
        ry="3"
        fill="#C2AF79"
      />
      <path
        id="Vector 19"
        d="M43.3717 228.233C47.3717 224.733 67.4594 220.613 74.3718 225.733C87.8718 235.733 61.8717 274.185 75.8717 277.733C89.8717 281.281 72.8717 295.733 72.8717 295.733C45.3718 282.233 61.8717 253.733 63.3718 240.233C64.8718 226.733 44.0265 245.696 39.8717 237.733C37.704 233.578 39.8449 231.319 43.3717 228.233Z"
        fill="#816640"
      />
      <path
        id="Vector 13"
        d="M153.372 208.233C158.372 205.233 159.845 207.146 165.872 207.733M153.372 209.733C157.872 207.233 162.149 208.983 165.872 210.733M153.372 211.733C157.872 209.733 161.694 210.964 164.372 213.233M148.372 209.233C142.372 206.233 140.393 207.749 134.872 207.733M147.872 210.733C142.267 209.644 139.128 208.993 133.372 210.233M147.872 212.233C140.377 211.97 136.413 211.968 133.872 214.733"
        stroke="#393939"
        stroke-width="0.5"
      />
      <path
        id="Vector 17"
        d="M149.872 296.233C149.239 278.095 151.372 247.733 151.872 245.233C152.372 242.733 139.372 278.733 139.372 278.733C138.896 284.441 138.87 288.209 139.372 296.233C139.372 296.233 139.148 300.78 140.872 302.733C143.586 305.807 151.28 305.512 152.872 301.733C153.883 299.332 149.872 296.233 149.872 296.233Z"
        fill="#947548"
        stroke="#816640"
      />
      <path
        id="Vector 14"
        d="M130.372 301.233C142.462 272.27 150.594 255.861 156.372 225.233L116.372 219.233C113.372 221.733 106.372 226.233 106.372 237.233C82.3717 240.233 72.5982 266.946 74.3718 301.233H130.372Z"
        fill="#947548"
        stroke="#947548"
      />
      <path
        id="Vector 15"
        d="M119.372 297.233C112.249 277.656 110.293 268.695 110.872 252.233L128.372 253.733C127.625 270.547 128.83 280.096 132.372 297.233C132.372 297.233 137.389 301.566 135.872 303.638C133.218 307.261 121.309 307.689 119.372 303.638C118.445 301.7 119.372 297.233 119.372 297.233Z"
        fill="#947548"
        stroke="#816640"
      />
      <path
        id="Vector 16"
        d="M109.872 253.233L128.872 254.233"
        stroke="#947548"
        stroke-width="5"
      />
      <path
        id="Vector 18"
        d="M101.372 260.733C109.372 270.333 101.372 296.733 101.372 296.733C101.372 296.733 109.472 293.834 112.372 296.733C115.271 299.633 111.872 305.733 111.872 305.733H74.3717C74.3717 305.733 64.8625 267.633 78.8717 258.733C84.381 255.233 96.3717 254.733 101.372 260.733Z"
        fill="#947548"
        stroke="#816640"
      />
      <g id="Ellipse 9">
        <circle cx="139.5" cy="199.5" r="0.5" fill="black" />
        <circle cx="139.5" cy="199.5" r="0.5" fill="black" />
        <circle cx="139.5" cy="199.5" r="0.5" fill="black" />
      </g>
      <g id="Ellipse 10">
        <circle cx="154.5" cy="199.5" r="0.5" fill="black" />
        <circle cx="154.5" cy="199.5" r="0.5" fill="black" />
        <circle cx="154.5" cy="199.5" r="0.5" fill="black" />
      </g>
      <circle
        id="Ellipse 14"
        cx="37"
        cy="180"
        r="4.5"
        fill="#FF6660"
        stroke="white"
      />
    </g>
    <g id="decoration">
      <circle
        id="Ellipse 11"
        cx="142.5"
        cy="37.5"
        r="8"
        fill="#6A5ACD"
        stroke="white"
      />
      <circle id="Ellipse 12" cx="162" cy="9" r="9" fill="#59EA83" />
      <circle id="Ellipse 13" cx="187" cy="20" r="5" fill="#FFAB41" />
    </g>
  </g>
  <defs>
    <linearGradient
      id="paint0_linear"
      x1="385"
      y1="8"
      x2="409.5"
      y2="115"
      gradientUnits="userSpaceOnUse"
    >
      <stop offset="0.453125" stop-color="#2F2F2F" />
      <stop offset="1" stop-color="#FFDBB4" />
    </linearGradient>
    <clipPath id="clip0">
      <rect
        width="40.715"
        height="41.598"
        fill="white"
        transform="translate(457.132 217) rotate(38.0374)"
      />
    </clipPath>
    <clipPath id="clip1">
      <rect
        width="45.9106"
        height="54.8627"
        fill="white"
        transform="translate(352.051 292.227) rotate(-56.2941)"
      />
    </clipPath>
    <clipPath id="clip2">
      <rect
        width="33.7655"
        height="32.8309"
        fill="white"
        transform="translate(402.5 266) rotate(-3.87358)"
      />
    </clipPath>
    <clipPath id="clip3">
      <rect
        width="23"
        height="22"
        fill="white"
        transform="translate(210 244.685) rotate(-6.70348)"
      />
    </clipPath>
  </defs>
</svg>
