<svg width="554" height="346" viewBox="0 0 554 346" fill="none" xmlns="http://www.w3.org/2000/svg">
<path d="M463.738 30.5236C463.738 30.5236 523.312 61.35 546.63 82.0701C579.134 110.953 419.706 10.8134 452.851 35.6499C479.261 55.4406 540.912 98.2858 523.229 89.4701C505.546 80.6544 489.075 67.9086 463.625 57.5812C438.175 47.2537 516.714 93.1832 505.504 94.7143C494.293 96.2454 449.663 55.4976 446.092 54.0779" stroke="#E5E5E5" stroke-width="4"/>
<path d="M26.7383 231.524C26.7383 231.524 86.3122 262.35 109.63 283.07C142.134 311.953 -17.2936 211.813 15.8506 236.65C42.2613 256.441 103.912 299.286 86.229 290.47C68.5456 281.654 52.0745 268.909 26.6247 258.581C1.17499 248.254 79.7145 294.183 68.5039 295.714C57.2933 297.245 12.6634 256.498 9.09235 255.078" stroke="#E5E5E5" stroke-width="4"/>
<path d="M201.685 30.8859C109.321 24.7765 57.0555 70.776 41.6225 154.711C-4.37588 404.88 405.474 376.178 484.125 250.744C542.233 158.071 473.951 32.17 400.485 8.5414C319.032 -17.6563 341.326 40.1222 201.685 30.8859Z" fill="#AC9FF0" stroke="#AC9FF0"/>
<path d="M39 306L512 306" stroke="#DADADA" stroke-width="5"/>
<path d="M401.5 155.5C401.956 147.642 401.63 152.689 401.5 148L453 104C449.424 123.294 450.077 127.098 451 145C464.761 149.96 471.882 153.203 484.25 159.25C484.25 159.25 501 164.5 513.5 173C526.86 182.085 520.184 231.5 507 256.5C498.298 273 494.5 304.5 494.5 304.5H377.5C377.5 304.5 379 292 371 263.5C358.5 242.5 353.421 195.814 356.5 188.5C360.5 179 372 171.5 379 168C386 164.5 391.5 158.5 401.5 155.5Z" fill="#4A4A4A"/>
<path d="M420 263C420 263 464.5 190.5 482 177C499.5 163.5 542.5 174.5 515 220.5C487.5 266.5 431.5 296 431.5 296C423.534 308.385 374.599 304.927 314 305H277.5V299.148C255.35 303.327 225.663 307.055 197.5 306.5L186 289.5C202.203 285.316 216.201 282.339 236.5 276.5C253.423 268.531 289.446 262.715 292 259C314 227 344.966 194.259 365.5 177V240C355.554 258.051 320.5 285.847 311 290.5H314C314 290.5 336.349 287.302 351.5 283.346C366.651 279.39 386.357 268.458 420 263Z" fill="#FFDBB4"/>
<g clip-path="url(#clip0)">
<path d="M450.948 249.133C451.714 249.733 452.638 249.667 453.062 249.533C453.421 249.42 453.624 249.043 453.525 248.683C453.425 248.322 453.051 248.117 452.689 248.218C452.669 248.224 452.198 248.351 451.802 248.041C451.412 247.736 451.415 247.26 451.416 247.224C451.435 246.849 451.15 246.533 450.775 246.518C450.398 246.502 450.073 246.798 450.05 247.177C450.023 247.621 450.181 248.534 450.948 249.133Z" fill="#CCA377"/>
<path d="M462.374 233.426C460.311 231.812 457.292 232.214 455.643 234.321C453.994 236.429 454.331 239.456 456.394 241.07C458.457 242.684 461.476 242.283 463.125 240.175C464.774 238.067 464.437 235.04 462.374 233.426ZM457.248 239.978C455.775 238.826 455.534 236.663 456.712 235.158C457.89 233.652 460.047 233.365 461.52 234.518C462.993 235.671 463.234 237.833 462.056 239.339C460.878 240.844 458.722 241.131 457.248 239.978Z" fill="#CCA377"/>
<path d="M456.964 251.563C456.944 251.569 456.474 251.696 456.078 251.386C455.688 251.081 455.691 250.605 455.692 250.569C455.71 250.194 455.425 249.878 455.051 249.863C454.673 249.847 454.349 250.142 454.326 250.522C454.299 250.966 454.457 251.878 455.223 252.478C455.99 253.078 456.913 253.011 457.338 252.878C457.697 252.765 457.9 252.388 457.801 252.028C457.701 251.667 457.326 251.461 456.964 251.563Z" fill="#CCA377"/>
<path d="M451.328 234.342C451.052 234.608 451.039 235.043 451.297 235.314C451.557 235.582 451.989 235.59 452.265 235.325C455.882 231.831 456.997 228.201 457.057 227.995C457.062 227.967 457.608 225.57 460.135 222.022L461.496 227.281C461.551 227.498 461.71 227.671 461.921 227.745C461.961 227.758 465.947 229.179 470.602 232.821C475.257 236.462 477.594 239.989 477.618 240.025C477.741 240.212 477.946 240.324 478.17 240.326L483.602 240.381C480.766 243.688 478.566 244.796 478.498 244.832C478.36 244.914 475.105 246.87 472.585 251.221C472.41 251.523 472.485 251.899 472.747 252.104C472.772 252.123 472.798 252.141 472.827 252.158C473.153 252.344 473.572 252.226 473.764 251.894C476.081 247.894 479.125 246.043 479.122 246.041C479.241 245.983 482.086 244.572 485.565 240.125C485.727 239.918 485.76 239.64 485.651 239.405C485.542 239.17 485.311 239.022 485.051 239.02L478.56 238.954C477.885 238.001 475.558 234.937 471.456 231.729C467.355 228.52 463.821 226.998 462.733 226.572L461.108 220.288C461.043 220.036 460.842 219.847 460.589 219.798C460.335 219.749 460.073 219.849 459.911 220.055C456.432 224.502 455.746 227.602 455.733 227.677C455.723 227.711 454.68 231.104 451.328 234.342Z" fill="#CCA377"/>
<path d="M463.566 246.83C463.452 246.469 463.067 246.278 462.707 246.401L458.984 247.671L459.32 243.752C459.353 243.372 459.074 243.044 458.698 243.021C458.321 242.996 457.99 243.283 457.957 243.662L457.532 248.611C457.512 248.84 457.607 249.062 457.786 249.202C457.965 249.341 458.203 249.381 458.421 249.307L463.122 247.703C463.482 247.58 463.681 247.189 463.566 246.83Z" fill="#CCA377"/>
<path d="M460.238 236.156C459.649 235.695 458.786 235.81 458.315 236.412C457.844 237.014 457.94 237.879 458.53 238.34C459.119 238.801 459.982 238.687 460.453 238.084C460.924 237.482 460.828 236.617 460.238 236.156Z" fill="#CCA377"/>
<path d="M457.34 257.281C457.699 257.168 457.902 256.791 457.802 256.431C457.703 256.069 457.328 255.865 456.966 255.966C456.946 255.971 456.475 256.099 456.079 255.789C455.69 255.484 455.693 255.007 455.694 254.972C455.712 254.596 455.427 254.281 455.053 254.265C454.676 254.25 454.351 254.545 454.328 254.924C454.3 255.369 454.459 256.281 455.225 256.881C455.991 257.48 456.915 257.414 457.34 257.281Z" fill="#CCA377"/>
<path d="M472.745 247.701C474.394 245.593 474.057 242.566 471.994 240.952C469.932 239.338 466.912 239.74 465.263 241.847C463.614 243.955 463.951 246.983 466.014 248.597C468.077 250.21 471.096 249.809 472.745 247.701ZM466.868 247.504C465.395 246.352 465.154 244.189 466.332 242.684C467.51 241.178 469.667 240.891 471.14 242.044C472.614 243.197 472.854 245.359 471.676 246.865C470.499 248.37 468.342 248.657 466.868 247.504Z" fill="#CCA377"/>
<path d="M472.314 253.543C472.234 253.502 470.319 252.575 467.648 253.516C464.623 254.583 461.926 257.531 459.631 262.278C459.464 262.623 459.606 263.033 459.943 263.192C460.283 263.353 460.693 263.203 460.859 262.859C462.944 258.547 465.425 255.77 468.033 254.829C469.377 254.344 470.461 254.442 471.09 254.585C468.894 259.63 464.426 263.949 460.018 265.219C458.688 265.602 456.844 265.82 455.365 264.871C455.488 263.943 455.15 262.984 454.373 262.376C453.585 261.759 452.557 261.668 451.678 262.028L446.807 258.217C446.945 257.277 446.609 256.302 445.821 255.686C445.044 255.078 444.033 254.98 443.162 255.322C441.888 254.107 441.656 252.261 441.708 250.875C441.883 246.289 444.997 240.92 449.359 237.585C449.647 238.154 449.998 239.166 449.863 240.564C449.596 243.334 447.495 246.425 443.787 249.502C443.493 249.746 443.447 250.18 443.683 250.471C443.92 250.761 444.351 250.799 444.645 250.555C448.703 247.187 450.917 243.861 451.225 240.669C451.498 237.85 450.135 236.214 450.077 236.146C449.85 235.882 449.458 235.834 449.168 236.039C444.168 239.566 440.539 245.657 440.342 250.85C440.256 253.099 440.833 254.914 442.015 256.155C442.003 256.171 441.987 256.182 441.975 256.197C441.504 256.8 441.6 257.665 442.189 258.126L444.327 259.798C444.917 260.259 445.779 260.145 446.251 259.542L450.526 262.887C450.055 263.49 450.151 264.355 450.741 264.816L452.878 266.488C453.468 266.949 454.331 266.835 454.802 266.232C454.813 266.218 454.82 266.201 454.831 266.186C456.314 267.038 458.211 267.163 460.37 266.541C465.363 265.102 470.407 260.11 472.637 254.4C472.765 254.069 472.627 253.695 472.314 253.543ZM443.044 257.034C443.515 256.431 444.377 256.317 444.967 256.778C445.556 257.239 445.653 258.104 445.182 258.707L443.044 257.034ZM451.595 263.724C452.066 263.121 452.929 263.007 453.518 263.468C454.108 263.929 454.204 264.794 453.733 265.397L451.595 263.724Z" fill="#CCA377"/>
<path d="M450.415 253.118C451.181 253.717 452.105 253.651 452.53 253.518C452.889 253.405 453.091 253.028 452.992 252.668C452.893 252.306 452.518 252.102 452.156 252.203C452.136 252.208 451.665 252.336 451.269 252.026C450.88 251.721 450.883 251.244 450.884 251.209C450.902 250.833 450.617 250.518 450.243 250.502C449.866 250.486 449.541 250.782 449.518 251.161C449.49 251.606 449.649 252.518 450.415 253.118Z" fill="#CCA377"/>
<path d="M469.859 243.682C469.269 243.221 468.406 243.336 467.935 243.938C467.464 244.54 467.56 245.405 468.15 245.866C468.739 246.328 469.602 246.213 470.073 245.611C470.544 245.008 470.448 244.143 469.859 243.682Z" fill="#CCA377"/>
<path d="M450.951 257.939C451.718 258.538 452.641 258.472 453.066 258.339C453.425 258.226 453.628 257.849 453.529 257.489C453.43 257.127 453.054 256.922 452.692 257.024C452.672 257.029 452.202 257.156 451.806 256.846C451.416 256.542 451.419 256.065 451.42 256.03C451.438 255.654 451.153 255.339 450.779 255.323C450.401 255.308 450.077 255.602 450.054 255.982C450.027 256.427 450.185 257.339 450.951 257.939Z" fill="#CCA377"/>
<path d="M461.614 256.223C461.972 256.11 462.175 255.733 462.076 255.373C461.977 255.012 461.602 254.807 461.24 254.908C461.22 254.914 460.749 255.041 460.353 254.731C459.963 254.426 459.967 253.95 459.968 253.914C459.986 253.539 459.7 253.223 459.326 253.208C458.949 253.192 458.624 253.487 458.601 253.867C458.574 254.311 458.732 255.224 459.499 255.823C460.265 256.423 461.189 256.357 461.614 256.223Z" fill="#CCA377"/>
</g>
<g clip-path="url(#clip1)">
<path d="M372.273 304.995C372.306 304.985 372.337 304.973 372.364 304.96L372.273 304.995ZM372.273 304.995C372.202 305.007 372.153 305.005 372.117 304.996C372.078 304.986 372.029 304.959 371.979 304.91C371.782 304.594 371.746 304.264 371.698 303.796L371.698 303.795C371.625 303.09 371.739 302.417 371.895 301.692C371.9 301.692 371.906 301.693 371.912 301.693C371.925 301.694 371.94 301.695 371.956 301.696L371.957 301.696C372.218 301.714 372.491 301.739 372.769 301.764C373.325 301.815 373.903 301.867 374.463 301.873L374.463 301.873C375.301 301.882 376.131 301.833 376.944 301.725L376.944 301.725C378.757 301.486 380.441 300.945 381.997 300.188C382.282 300.049 382.562 299.89 382.832 299.728C382.734 300.208 382.634 300.665 382.483 301.115L382.483 301.116C382.351 301.507 382.151 301.805 381.889 302.016C381.628 302.226 381.275 302.372 380.799 302.413L372.273 304.995ZM373.399 304.453L373.399 304.453C373.938 304.123 374.498 303.792 375.09 303.502C375.097 303.498 375.102 303.496 375.104 303.494L375.106 303.494L375.107 303.493C375.147 303.472 375.188 303.45 375.229 303.428C375.8 303.126 376.47 302.771 377.304 302.707C377.304 302.707 377.304 302.707 377.304 302.707L377.418 302.698L377.511 302.691C378.235 302.569 379.006 302.525 379.746 302.482C380.107 302.462 380.461 302.442 380.798 302.413L373.399 304.453ZM373.399 304.453L373.394 304.456M373.399 304.453L373.394 304.456M373.394 304.456C373.376 304.468 373.372 304.47 373.367 304.473C373.364 304.475 373.36 304.477 373.349 304.484M373.394 304.456L373.349 304.484M373.323 304.499C373.326 304.498 373.329 304.495 373.334 304.493M373.323 304.499C373.323 304.499 373.323 304.499 373.323 304.499L373.334 304.493M373.323 304.499C373.326 304.497 373.33 304.495 373.334 304.493M373.323 304.499L373.334 304.493M373.349 304.484C373.025 304.645 372.696 304.803 372.364 304.96L373.349 304.484ZM371.863 304.806C371.861 304.805 371.864 304.806 371.869 304.81L371.863 304.806ZM377.581 302.688C377.581 302.688 377.58 302.688 377.58 302.688L377.581 302.688L377.581 302.688Z" stroke="#CCA377"/>
<path d="M368.353 296.497L368.354 296.497C368.6 296.232 368.863 295.987 369.116 295.756C369.007 295.724 368.897 295.691 368.786 295.658C367.868 295.387 366.915 295.105 366.005 294.716L368.353 296.497ZM368.353 296.497C368.171 296.695 367.991 296.914 367.822 297.119C367.745 297.211 367.671 297.301 367.6 297.385M368.353 296.497L367.6 297.385M364.938 293.959L364.938 293.959C364.546 293.401 364.64 292.722 364.941 292.272L364.942 292.271C365.101 292.033 365.334 291.882 365.475 291.792C365.483 291.787 365.491 291.781 365.499 291.776C365.672 291.664 365.724 291.62 365.749 291.579L364.938 293.959ZM364.938 293.959C365.225 294.368 365.689 294.581 366.005 294.716L364.938 293.959ZM364.695 289.746L364.695 289.746C364.246 289.089 364.048 288.314 364.11 287.588L364.596 287.629L364.11 287.588C364.179 286.789 364.56 286.361 364.9 285.98C364.973 285.898 365.045 285.818 365.111 285.737L365.498 286.052L365.111 285.737C365.225 285.597 365.269 285.457 365.255 285.337L364.695 289.746ZM364.695 289.746C364.836 289.953 365.002 290.149 365.148 290.322C365.173 290.353 365.199 290.383 365.223 290.412C365.394 290.617 365.534 290.794 365.637 290.978L364.695 289.746ZM364.227 285.479L364.227 285.479C363.524 285.922 363.055 286.673 362.873 287.517L362.873 287.517C362.625 288.666 362.851 289.968 363.276 291.28C363.488 291.933 363.744 292.581 364.009 293.244C364.029 293.296 364.05 293.347 364.07 293.399C364.314 294.008 364.563 294.63 364.78 295.26L364.227 285.479ZM364.227 285.479C364.491 285.313 364.819 285.124 365.069 285.084M364.227 285.479L365.069 285.084M367.6 297.385C366.913 297.702 365.849 297.399 365.352 296.626L367.6 297.385ZM365.77 291.364C365.754 291.24 365.705 291.1 365.637 290.978L365.77 291.364ZM365.77 291.364C365.786 291.492 365.763 291.557 365.749 291.579L365.77 291.364ZM365.069 285.084C365.14 285.073 365.172 285.079 365.182 285.083M365.069 285.084L365.182 285.083M365.182 285.083C365.193 285.096 365.235 285.157 365.255 285.337L365.182 285.083ZM364.842 295.442C364.995 295.89 365.125 296.275 365.352 296.626L364.842 295.442ZM364.842 295.442C364.822 295.383 364.801 295.322 364.78 295.26L364.842 295.442ZM365.186 285.084C365.186 285.084 365.185 285.084 365.184 285.083L365.186 285.084ZM365.18 285.08C365.179 285.08 365.179 285.08 365.179 285.079L365.18 285.08Z" stroke="#CCA377"/>
<path d="M366.73 286.97C366.684 287.04 366.641 287.109 366.595 287.184L366.73 286.97ZM366.73 286.97C366.72 287.149 366.714 287.327 366.714 287.505L366.714 287.505C366.713 287.86 366.809 288.218 366.924 288.519L366.924 288.519C367.047 288.842 367.231 289.088 367.449 289.276C367.315 289.313 367.188 289.345 367.049 289.368C366.849 289.401 366.733 289.405 366.663 289.397C366.632 289.394 366.615 289.389 366.609 289.387C366.604 289.384 366.601 289.383 366.598 289.38C366.587 289.372 366.556 289.343 366.5 289.242C366.449 289.152 366.397 289.041 366.324 288.884C366.313 288.861 366.302 288.837 366.29 288.811C366.071 288.344 366.142 287.887 366.417 287.465L366.73 286.97Z" stroke="#CCA377"/>
<path d="M370.605 285.274C370.605 285.265 370.606 285.257 370.607 285.249C370.617 285.122 370.628 284.99 370.641 284.853L370.605 285.274ZM370.605 285.274C370.582 285.26 370.559 285.246 370.534 285.233L370.534 285.233C370.242 285.08 369.875 285.038 369.552 285.165L370.605 285.274ZM369.498 288.276C369.413 288.316 369.324 288.343 369.231 288.354L369.231 288.354C369.015 288.38 368.767 288.306 368.614 288.16L369.498 288.276ZM369.498 288.276C369.294 288.182 369.135 288.028 369.031 287.876L369.498 288.276ZM370.546 284.468L370.546 284.468C370.244 284.476 369.944 284.397 369.682 284.264L369.682 284.264C369.63 284.238 369.582 284.205 369.542 284.175L370.546 284.468ZM370.546 284.468C370.593 284.467 370.649 284.463 370.686 284.46C370.69 284.46 370.695 284.46 370.699 284.459M370.546 284.468L370.699 284.459M369.1 284.862C369.009 284.991 368.929 285.107 368.859 285.226L369.1 284.862ZM369.1 284.862C369.114 284.842 369.129 284.821 369.144 284.8M369.1 284.862L369.144 284.8M369.144 284.8C369.22 284.692 369.304 284.573 369.382 284.451L369.144 284.8ZM370.699 284.459C370.696 284.489 370.691 284.523 370.685 284.563C370.68 284.593 370.676 284.619 370.671 284.648C370.668 284.663 370.665 284.68 370.662 284.698C370.655 284.742 370.646 284.798 370.641 284.853L370.699 284.459ZM368.837 286.014C368.709 286.428 368.698 286.877 368.797 287.312L369.552 285.165C369.112 285.338 368.922 285.74 368.837 286.014L368.837 286.014ZM368.797 287.312C368.834 287.474 368.896 287.68 369.031 287.876L368.797 287.312ZM370.247 287.345C370.225 287.397 370.202 287.448 370.178 287.497C370.129 287.393 370.096 287.316 370.077 287.243C370.055 287.16 370.065 287.131 370.075 287.11L370.075 287.11C370.083 287.094 370.109 287.069 370.154 287.071C370.172 287.071 370.208 287.08 370.247 287.105C370.281 287.128 370.293 287.148 370.295 287.151C370.295 287.151 370.295 287.151 370.295 287.151C370.295 287.151 370.295 287.151 370.295 287.151C370.296 287.153 370.3 287.162 370.296 287.192C370.291 287.227 370.277 287.276 370.247 287.345L370.247 287.345ZM368.384 287.703C368.229 286.888 368.459 285.906 368.859 285.226L368.384 287.703ZM368.614 288.16C368.498 288.05 368.419 287.888 368.384 287.703L368.614 288.16ZM370.7 284.35C370.7 284.35 370.7 284.351 370.7 284.352C370.7 284.351 370.7 284.35 370.7 284.35Z" stroke="#CCA377"/>
<path d="M372.644 293.736L372.645 293.737C372.696 293.785 372.732 293.818 372.765 293.844C372.797 293.869 372.815 293.879 372.824 293.883L372.828 293.885L372.829 293.885M372.644 293.736L374.479 293.493C373.954 293.595 373.403 293.707 372.876 293.875L372.875 293.876C372.858 293.881 372.847 293.883 372.84 293.884C372.833 293.885 372.83 293.885 372.829 293.885L372.829 293.885C372.829 293.885 372.829 293.885 372.829 293.885M372.644 293.736C372.542 293.639 372.445 293.538 372.339 293.429C372.31 293.399 372.281 293.368 372.25 293.337C372.113 293.196 371.961 293.043 371.792 292.901L371.792 292.901C371.555 292.703 371.301 292.55 371.035 292.445M372.644 293.736L371.035 292.445M372.829 293.885L372.829 293.885C372.829 293.885 372.829 293.885 372.829 293.885ZM373.077 287.799L373.318 287.718C373.318 287.718 373.318 287.718 373.318 287.718L373.076 287.799M373.077 287.799L373.076 287.799M373.077 287.799L373.04 287.812C373.04 287.812 373.039 287.812 373.039 287.811M373.077 287.799L373.161 287.83C373.141 287.883 373.122 287.939 373.102 287.996C373.081 287.935 373.06 287.874 373.039 287.811M373.076 287.799L373.029 287.781C373.033 287.791 373.036 287.801 373.039 287.811M373.076 287.799L373.039 287.811C373.039 287.811 373.039 287.811 373.039 287.811M371.035 292.445C371.823 292.14 372.41 291.604 372.862 290.976L371.035 292.445ZM369.533 291.088C369.795 290.928 370.046 290.752 370.284 290.559L370.285 290.559C370.95 290.019 371.43 289.347 371.818 288.572C371.92 288.369 371.987 288.169 372.07 287.923C372.114 287.793 372.162 287.649 372.222 287.485L372.537 286.626L369.533 291.088ZM369.533 291.088C370.023 290.665 370.466 290.17 370.852 289.57L369.533 291.088ZM367.136 292.572C367.009 292.632 366.88 292.69 366.75 292.748L366.75 292.748C366.743 292.751 366.707 292.776 366.689 292.845C366.672 292.913 366.691 292.952 366.698 292.96C366.894 293.213 367.124 293.392 367.393 293.481L367.136 292.572ZM367.136 292.572L367.383 293.225C367.71 293.165 368.031 293.097 368.344 293.029M367.136 292.572L368.344 293.029M368.344 293.029L368.428 293.68C369.482 293.768 370.419 293.906 371.247 294.441C371.126 294.49 371.006 294.538 370.886 294.585C370.487 294.46 370.09 294.334 369.692 294.207C369.439 294.126 369.185 294.046 368.929 293.965L368.929 293.965C368.749 293.908 368.572 293.853 368.396 293.798C368.06 293.694 367.728 293.591 367.393 293.481L368.344 293.029ZM370.932 294.601L370.933 294.6C370.938 294.602 370.941 294.602 370.941 294.602C370.941 294.602 370.939 294.602 370.934 294.601C370.934 294.601 370.933 294.601 370.933 294.601L370.863 294.826L370.966 295.091L370.862 294.827L370.932 294.601ZM370.932 294.601L370.862 294.825L370.785 294.625C370.832 294.607 370.871 294.602 370.892 294.601C370.911 294.599 370.926 294.6 370.932 294.601ZM373.511 289.144C373.511 289.144 373.511 289.144 373.511 289.144C373.511 289.143 373.511 289.143 373.511 289.143L373.476 289.137C373.476 289.138 373.476 289.138 373.476 289.138L373.511 289.144ZM374.619 293.466L374.632 293.536C374.632 293.536 374.632 293.536 374.632 293.536L374.619 293.465L374.619 293.466Z" stroke="#CCA377"/>
<path d="M374.848 288.518C374.614 287.365 374.276 286.138 373.551 285.032L373.551 285.031C373.075 284.307 372.416 283.641 371.625 283.184L371.625 283.184C371.481 283.1 371.308 283.043 371.171 283.001C371.108 282.981 371.051 282.964 370.997 282.948C370.912 282.923 370.834 282.9 370.748 282.872C370.623 282.83 370.53 282.791 370.465 282.753C370.498 282.737 370.538 282.72 370.586 282.704C370.716 282.66 370.872 282.633 371.02 282.626C371.176 282.618 371.278 282.634 371.311 282.646L374.848 288.518ZM374.848 288.518C374.849 287.513 374.703 286.515 374.219 285.592C373.804 284.803 373.156 284.091 372.427 283.413L372.427 283.413C372.042 283.056 371.692 282.772 371.311 282.646L374.848 288.518Z" stroke="#CCA377"/>
<path d="M379.641 291.43L379.641 291.43C378.705 291.937 377.779 292.431 376.822 292.872C376.816 292.862 376.81 292.85 376.804 292.836C376.698 292.619 376.606 292.254 376.536 291.81C376.398 290.929 376.379 289.959 376.393 289.798C376.412 289.588 376.436 289.372 376.461 289.149C376.548 288.364 376.643 287.507 376.539 286.639C376.553 286.643 376.569 286.646 376.585 286.65C376.752 286.692 376.945 286.765 377.151 286.86C377.563 287.05 377.972 287.299 378.24 287.467C378.947 287.91 379.576 288.477 380.064 289.123L380.064 289.123C380.383 289.546 380.579 289.935 380.584 290.264C380.587 290.481 380.507 290.682 380.348 290.878L380.348 290.878C380.178 291.087 379.928 291.275 379.641 291.43ZM376.258 286.621C376.258 286.621 376.259 286.62 376.262 286.62C376.26 286.62 376.258 286.621 376.258 286.621Z" stroke="#CCA377"/>
<path d="M369.934 297.989L369.934 297.989C370.513 297.48 371.139 296.993 371.841 296.589L371.842 296.589C372.196 296.384 372.569 296.201 372.963 296.049L369.934 297.989ZM369.934 297.989C369.488 298.381 369.064 298.792 368.65 299.193M369.934 297.989L368.65 299.193M368.159 299.688C368.176 299.67 368.194 299.651 368.213 299.633C368.339 299.503 368.472 299.366 368.584 299.258L368.159 299.688ZM368.159 299.688C368.359 299.097 368.728 298.571 369.191 298.076L368.159 299.688ZM370.692 299.768C371.233 299.215 371.78 298.696 372.385 298.228L372.385 298.228C372.747 297.949 373.122 297.684 373.511 297.435C373.705 297.31 373.903 297.19 374.103 297.073L374.104 297.072C374.1 297.074 374.105 297.072 374.121 297.064C374.134 297.058 374.157 297.047 374.192 297.03L374.198 297.027C374.257 296.999 374.332 296.963 374.405 296.926C374.479 296.889 374.563 296.845 374.632 296.803C374.664 296.784 374.71 296.755 374.754 296.719C374.774 296.702 374.812 296.668 374.849 296.619C374.872 296.589 374.976 296.45 374.951 296.247C374.951 296.247 374.951 296.247 374.951 296.247L374.455 296.306L370.692 299.768ZM370.692 299.768C371.364 299.829 372.047 299.828 372.741 299.827L372.759 299.827C372.759 299.827 372.759 299.827 372.759 299.827C373.707 299.825 374.647 299.774 375.573 299.675L375.573 299.675C376.518 299.573 377.448 299.421 378.357 299.219L378.357 299.219C378.817 299.117 379.271 299.002 379.719 298.875L370.692 299.768ZM383.103 297.18L383.104 297.18C383.758 296.656 384.284 295.764 384.498 294.762C384.712 293.764 384.605 292.713 384.07 291.858C383.975 291.706 383.701 291.405 383.373 291.165C383.212 291.048 383.06 290.961 382.932 290.913C382.813 290.869 382.755 290.873 382.742 290.875C379.921 293.639 376.203 294.83 372.455 296.021C372.056 296.18 371.667 296.354 371.293 296.546L371.293 296.546C370.49 296.957 369.767 297.459 369.191 298.076L383.103 297.18ZM383.103 297.18C382.446 297.708 381.729 298.145 380.923 298.443M383.103 297.18L380.923 298.443M380.923 298.443C380.792 298.491 380.67 298.538 380.552 298.584M380.923 298.443L380.552 298.584M380.552 298.584C380.268 298.693 380.011 298.792 379.72 298.875L380.552 298.584ZM368.65 299.193C368.628 299.215 368.606 299.236 368.584 299.258L368.65 299.193ZM374.465 296.736C374.465 296.736 374.464 296.737 374.462 296.737C374.464 296.737 374.465 296.736 374.465 296.736ZM374.166 295.781C374.097 295.794 374.022 295.806 373.943 295.818C373.646 295.865 373.292 295.922 372.963 296.049L374.166 295.781Z" stroke="#CCA377"/>
<path d="M382.522 281.083L382.521 281.083C381.819 281.041 381.175 281.192 380.446 281.362C380.425 281.367 380.405 281.371 380.384 281.376L380.384 281.376C380.04 281.457 379.553 281.586 379.165 281.782C378.732 282.001 378.656 282.178 378.66 282.267L382.522 281.083ZM382.522 281.083C382.683 281.093 382.828 281.098 382.965 281.102C383.188 281.11 383.391 281.116 383.615 281.142L383.616 281.142C383.681 281.149 383.726 281.159 383.754 281.169C383.753 281.184 383.749 281.203 383.743 281.227L383.743 281.227C383.447 282.44 383.322 283.702 383.478 285.022L383.478 285.022C383.554 285.659 383.673 286.295 383.796 286.915L384.287 286.818M382.522 281.083L380.271 280.889C380.299 280.883 380.328 280.876 380.356 280.869C381.067 280.703 381.775 280.538 382.551 280.584C382.685 280.592 382.819 280.597 382.953 280.601C383.192 280.61 383.431 280.618 383.671 280.645C384.15 280.698 384.331 280.929 384.229 281.346C383.944 282.512 383.826 283.713 383.975 284.963C384.049 285.58 384.164 286.2 384.287 286.818M384.287 286.818C384.328 287.029 384.373 287.24 384.419 287.451C384.585 288.227 384.751 289.002 384.732 289.769M384.287 286.818L383.796 286.915M384.732 289.769L383.796 286.915M384.732 289.769C384.573 289.612 384.404 289.467 384.225 289.342M384.732 289.769L383.796 286.915M383.796 286.915C383.842 287.147 383.89 287.372 383.936 287.591C384.068 288.21 384.191 288.784 384.225 289.342M384.225 289.342C384.238 289.555 384.239 289.766 384.221 289.976L378.66 282.267C378.673 282.523 378.826 282.809 379.068 283.21L379.068 283.21C379.115 283.288 379.235 283.479 379.406 283.751C379.514 283.924 379.643 284.128 379.786 284.357C380.152 284.943 380.609 285.678 381.047 286.401C381.484 287.123 381.906 287.841 382.201 288.391C382.307 288.587 382.4 288.769 382.473 288.926C382.881 288.842 383.277 288.884 383.653 289.031C383.854 289.109 384.045 289.216 384.225 289.342Z" stroke="#CCA377"/>
<path d="M366.861 284.13C366.71 283.922 366.621 283.717 366.573 283.518C366.499 283.211 366.517 282.888 366.607 282.55C366.793 281.858 367.265 281.173 367.723 280.595L366.861 284.13ZM366.861 284.13C366.989 283.95 367.127 283.728 367.24 283.533C367.3 283.429 367.351 283.337 367.388 283.267C367.421 283.204 367.432 283.179 367.432 283.179C367.432 283.179 367.432 283.179 367.432 283.18M366.861 284.13L370.971 280.822C370.862 280.811 370.754 280.805 370.645 280.802C370.841 280.648 371.06 280.507 371.302 280.361C371.363 280.324 371.426 280.286 371.491 280.247C371.68 280.133 371.882 280.013 372.072 279.887L372.073 279.886C372.198 279.803 372.297 279.707 372.378 279.624C372.41 279.591 372.439 279.561 372.466 279.532C372.515 279.481 372.56 279.433 372.62 279.375L373.623 278.399L372.229 278.518C372.178 278.522 372.142 278.524 372.102 278.525C372.085 278.526 372.067 278.527 372.047 278.528L372.046 278.528C371.995 278.53 371.891 278.535 371.782 278.575C371.646 278.623 371.509 278.672 371.372 278.721C370.817 278.918 370.254 279.118 369.701 279.332L369.701 279.332C368.778 279.691 368.181 280.409 367.836 281.219L367.836 281.219C367.675 281.598 367.621 281.986 367.581 282.313C367.577 282.345 367.574 282.377 367.57 282.408C367.534 282.705 367.505 282.948 367.432 283.18M367.432 283.18C367.432 283.18 367.431 283.185 367.428 283.192L367.905 283.344M367.432 283.18C367.431 283.184 367.43 283.188 367.428 283.192L367.905 283.344M367.905 283.344C367.875 283.437 367.537 284.051 367.237 284.463L368.296 281.415C368.152 281.753 368.109 282.113 368.066 282.473C368.03 282.767 367.995 283.061 367.905 283.344ZM376.195 280.423L375.75 280.65C375.827 280.801 375.903 280.955 375.979 281.111C375.749 280.732 375.438 280.365 374.978 280.113C374.978 280.113 374.978 280.113 374.978 280.113C374.978 280.113 374.978 280.113 374.977 280.113L374.974 280.111L374.962 280.105C374.959 280.103 374.955 280.1 374.95 280.098C374.54 279.829 374.103 279.674 373.715 279.541L373.326 279.407L373.12 279.763C373.023 279.931 372.98 280.115 372.997 280.303C373.013 280.483 373.082 280.635 373.157 280.753C373.299 280.975 373.516 281.152 373.657 281.265L373.657 281.265C374.31 281.786 374.754 282.523 375.17 283.323C375.225 283.429 375.281 283.537 375.337 283.648C375.532 284.029 375.737 284.43 375.97 284.814L376.195 280.423ZM376.195 280.423L375.75 280.65C375.22 279.614 374.569 278.64 373.642 278.005L373.642 278.005C373.189 277.695 372.65 277.487 372.139 277.423C371.624 277.36 371.184 277.447 370.875 277.664L370.875 277.664C369.703 278.487 368.589 279.504 367.723 280.595L376.195 280.423ZM377.858 284.575C377.692 284.308 377.526 284.041 377.36 283.775L377.36 283.775C377.021 283.232 376.731 282.663 376.457 282.101C376.458 282.104 376.46 282.108 376.461 282.111C376.546 282.313 376.622 282.492 376.703 282.656L377.858 284.575ZM377.858 284.575C377.415 283.966 377.033 283.32 376.703 282.656L377.858 284.575ZM366.638 284.401C366.638 284.401 366.64 284.4 366.642 284.398C366.639 284.4 366.638 284.401 366.638 284.401ZM367.155 284.465L367.154 284.464L367.155 284.465ZM374.862 283.645C374.746 283.492 374.643 283.335 374.53 283.164C374.498 283.115 374.465 283.065 374.431 283.014C374.282 282.789 374.113 282.546 373.905 282.317L373.905 282.317L374.862 283.645ZM373.647 280.577C373.546 280.455 373.48 280.324 373.495 280.182L373.391 280.487C373.48 280.517 373.565 280.547 373.647 280.577ZM372.521 281.269C372.03 281.025 371.499 280.874 370.971 280.822L372.521 281.269Z" stroke="#CCA377"/>
<mask id="path-30-inside-1" fill="white">
<path d="M372.172 276.881C372.162 276.878 372.152 276.875 372.142 276.872C371.71 276.778 371.282 276.777 370.911 276.95C370.773 277.015 370.65 277.096 370.522 277.179C370.497 277.203 370.472 277.227 370.448 277.253C370.44 277.262 370.431 277.27 370.424 277.279C370.577 277.156 370.742 277.045 370.925 276.959C371.302 276.783 371.732 276.782 372.172 276.881Z"/>
</mask>
<path d="M372.172 276.881L371.953 277.857L372.488 275.933L372.172 276.881ZM372.142 276.872L372.439 275.917L372.398 275.904L372.355 275.895L372.142 276.872ZM370.911 276.95L370.487 276.045L370.487 276.045L370.911 276.95ZM370.522 277.179L369.977 276.341L369.902 276.39L369.836 276.452L370.522 277.179ZM370.448 277.253L369.721 276.566L369.711 276.576L370.448 277.253ZM370.424 277.279L369.683 276.607L371.049 278.059L370.424 277.279ZM370.925 276.959L371.348 277.866L371.349 277.865L370.925 276.959ZM372.488 275.933C372.465 275.925 372.446 275.919 372.439 275.917C372.437 275.917 372.435 275.916 372.434 275.916C372.434 275.916 372.433 275.916 372.433 275.915C372.433 275.915 372.433 275.915 372.433 275.915C372.433 275.915 372.434 275.916 372.435 275.916C372.436 275.916 372.437 275.917 372.439 275.917L371.845 277.827C371.854 277.83 371.861 277.832 371.866 277.833C371.869 277.834 371.871 277.835 371.872 277.835C371.874 277.836 371.874 277.836 371.875 277.836C371.876 277.836 371.874 277.836 371.871 277.835C371.868 277.834 371.862 277.832 371.855 277.83L372.488 275.933ZM372.355 275.895C371.807 275.776 371.132 275.743 370.487 276.045L371.335 277.856C371.432 277.811 371.613 277.78 371.929 277.849L372.355 275.895ZM370.487 276.045C370.274 276.145 370.09 276.268 369.977 276.341L371.068 278.017C371.21 277.925 371.272 277.885 371.335 277.856L370.487 276.045ZM369.836 276.452C369.805 276.482 369.764 276.521 369.721 276.566L371.174 277.94C371.18 277.934 371.19 277.925 371.208 277.907L369.836 276.452ZM369.711 276.576C369.715 276.573 369.717 276.571 369.717 276.57C369.717 276.57 369.717 276.57 369.715 276.573C369.712 276.575 369.708 276.58 369.703 276.585C369.698 276.591 369.691 276.598 369.683 276.607L371.165 277.95C371.16 277.955 371.157 277.958 371.156 277.959C371.155 277.96 371.155 277.961 371.157 277.959C371.158 277.958 371.162 277.953 371.166 277.949C371.17 277.945 371.177 277.938 371.184 277.93L369.711 276.576ZM371.049 278.059C371.16 277.97 371.257 277.908 371.348 277.866L370.502 276.053C370.227 276.182 369.995 276.341 369.798 276.498L371.049 278.059ZM371.349 277.865C371.454 277.816 371.637 277.786 371.953 277.857L372.391 275.905C371.827 275.779 371.151 275.749 370.501 276.054L371.349 277.865Z" fill="#CCA377" mask="url(#path-30-inside-1)"/>
<path d="M392.244 301.48C392.278 301.463 392.311 301.444 392.341 301.422L392.341 301.422C392.706 301.165 393.07 300.938 393.428 300.73C393.441 300.721 393.454 300.712 393.465 300.704L392.244 301.48ZM392.244 301.48C392.193 301.495 392.171 301.493 392.167 301.493C392.164 301.491 392.153 301.486 392.135 301.469C392.114 301.45 392.088 301.42 392.061 301.376C391.837 300.809 391.802 300.132 391.825 299.459C391.862 298.344 392.077 297.254 392.429 296.192L392.447 296.196L392.448 296.196C392.799 296.278 393.161 296.403 393.548 296.548C393.668 296.594 393.793 296.642 393.921 296.691C394.192 296.795 394.476 296.905 394.759 297.003L392.244 301.48ZM393.411 300.742L393.413 300.741C393.413 300.741 393.412 300.742 393.411 300.742ZM393.411 300.742L393.41 300.743C393.411 300.743 393.411 300.742 393.411 300.742ZM392.156 301.527C392.156 301.527 392.157 301.527 392.157 301.527L392.156 301.527ZM392.156 301.527C392.156 301.527 392.156 301.528 392.155 301.528C392.153 301.529 392.151 301.531 392.15 301.531L392.151 301.531L392.155 301.528L392.156 301.527ZM393.406 300.746C393.406 300.746 393.406 300.746 393.407 300.745L393.406 300.746ZM395.382 299.67C394.747 299.913 394.092 300.251 393.482 300.691L394.759 297.003C395.582 297.29 396.424 297.538 397.298 297.733L397.298 297.733C399.481 298.217 401.647 298.244 403.686 298.077L403.686 298.077C404.399 298.018 405.11 297.879 405.789 297.734C405.78 297.777 405.771 297.819 405.761 297.861C405.625 298.488 405.496 299.079 405.301 299.636L405.301 299.636C405.167 300.021 404.833 300.287 404.317 300.426C403.797 300.567 403.153 300.555 402.557 300.419C402.092 300.313 401.614 300.192 401.128 300.069C400.164 299.826 399.171 299.575 398.196 299.417L397.946 299.357L397.946 299.357C396.897 299.107 396.092 299.385 395.401 299.662L395.4 299.663L395.386 299.669L395.382 299.67ZM398.256 299.434L398.246 299.43C398.254 299.433 398.26 299.435 398.256 299.434ZM392.166 301.493C392.166 301.493 392.166 301.493 392.166 301.493C392.166 301.493 392.166 301.493 392.166 301.493C392.166 301.493 392.166 301.493 392.166 301.493C392.166 301.493 392.166 301.493 392.166 301.493C392.167 301.493 392.167 301.493 392.167 301.493L392.166 301.493ZM393.775 301.097C394.347 300.683 394.966 300.364 395.566 300.135L393.747 301.117C393.757 301.11 393.766 301.103 393.775 301.097Z" stroke="#CCA377"/>
<path d="M388.2 278.359L388.199 278.359C387.114 278.745 386.275 279.273 386.09 280.171C385.987 280.669 386.024 281.228 386.135 281.843C386.215 282.282 386.326 282.717 386.44 283.164C386.487 283.352 386.536 283.542 386.583 283.736L386.111 283.85L386.583 283.736C386.92 285.131 387.165 286.525 387.191 287.923L388.2 278.359ZM388.2 278.359C388.526 278.243 389.156 278.077 389.711 278.088C389.988 278.094 390.2 278.143 390.342 278.224C390.464 278.293 390.552 278.394 390.59 278.583L390.59 278.583M388.2 278.359L390.59 278.583M391.959 288.758C391.929 288.773 391.899 288.789 391.869 288.805L391.959 288.758ZM391.959 288.758C391.121 288.178 390.202 287.649 389.323 287.229L389.539 286.778L391.959 288.758ZM390.719 289.494L390.719 289.494C391.105 289.225 391.495 289.002 391.869 288.805L390.719 289.494ZM390.719 289.494C390.311 289.779 389.915 290.114 389.53 290.439C389.52 290.448 389.509 290.456 389.499 290.465C389.494 290.468 389.485 290.472 389.471 290.478C388.626 290.815 387.566 290.352 387.283 289.47M390.719 289.494L387.283 289.47M389.494 282.499L389.494 282.499C389.005 281.879 388.708 281.132 388.828 280.397C388.911 279.891 389.177 279.565 389.496 279.322C389.646 279.208 389.81 279.11 389.964 279.021C390.007 278.996 390.05 278.972 390.092 278.948C390.207 278.883 390.318 278.819 390.435 278.747L389.494 282.499ZM389.494 282.499C389.602 282.635 389.742 282.791 389.865 282.929C389.936 283.009 390.002 283.082 390.052 283.141C390.221 283.34 390.323 283.492 390.369 283.628L389.494 282.499ZM390.59 278.583C390.593 278.595 390.592 278.599 390.592 278.599M390.59 278.583L390.592 278.599M387.283 289.47C387.22 289.274 387.195 289.043 387.189 288.772M387.283 289.47L387.189 288.772M387.189 288.772C387.186 288.638 387.187 288.502 387.189 288.358M387.189 288.772L387.189 288.358M387.189 288.358L387.19 288.337M387.189 288.358L387.19 288.337M387.19 288.337C387.191 288.203 387.193 288.061 387.191 287.923L387.19 288.337ZM390.592 278.599L390.592 278.599M390.592 278.599L390.592 278.599M390.592 278.599C390.592 278.6 390.591 278.605 390.584 278.617M390.592 278.599L390.584 278.617M390.584 278.617C390.568 278.643 390.525 278.691 390.435 278.747L390.584 278.617Z" stroke="#CCA377"/>
<path d="M392.681 280.075C392.68 280.079 392.679 280.082 392.679 280.086L392.677 280.093C392.612 280.338 392.545 280.594 392.493 280.855L392.493 280.855C392.424 281.204 392.484 281.569 392.556 281.853L392.556 281.853C392.617 282.094 392.721 282.303 392.855 282.485C392.697 282.478 392.546 282.47 392.395 282.456L392.681 280.075ZM392.681 280.075C392.424 280.177 392.224 280.335 391.974 280.531C391.887 280.6 391.793 280.673 391.689 280.751L391.689 280.751C391.478 280.908 391.37 281.067 391.326 281.208C391.285 281.342 391.287 281.511 391.388 281.729L391.388 281.729C391.409 281.776 391.429 281.818 391.447 281.857C391.503 281.98 391.543 282.068 391.585 282.145C391.636 282.237 391.668 282.274 391.693 282.294C391.744 282.337 391.87 282.406 392.395 282.456L392.681 280.075Z" stroke="#CCA377"/>
<path d="M398.03 279.054C397.953 279.017 397.875 278.992 397.797 278.967C397.759 278.955 397.72 278.943 397.682 278.93C397.44 278.844 397.192 278.696 396.969 278.511L394.27 281.415C394.272 280.647 394.658 279.917 395.254 279.422L395.254 279.422C395.354 279.339 395.468 279.26 395.604 279.169C395.621 279.158 395.639 279.146 395.657 279.134C395.774 279.056 395.906 278.968 396.03 278.874L396.03 278.874C396.158 278.777 396.266 278.671 396.353 278.585C396.371 278.605 396.388 278.624 396.405 278.644C396.424 278.665 396.443 278.687 396.465 278.711C396.512 278.763 396.58 278.839 396.651 278.897L396.651 278.897C396.91 279.111 397.208 279.292 397.515 279.401L397.515 279.401C397.594 279.429 397.645 279.444 397.684 279.456C397.735 279.472 397.766 279.482 397.814 279.505M398.03 279.054L397.814 279.505C397.814 279.505 397.814 279.505 397.814 279.505M398.03 279.054C398.535 279.296 398.342 279.684 398.209 279.952C398.184 280.003 398.16 280.049 398.145 280.09L398.03 279.054ZM397.814 279.505C397.829 279.512 397.842 279.519 397.851 279.525M397.814 279.505L397.851 279.525M397.851 279.525C397.843 279.553 397.827 279.592 397.801 279.648C397.789 279.674 397.777 279.698 397.763 279.725C397.758 279.737 397.751 279.749 397.745 279.763C397.726 279.801 397.7 279.854 397.679 279.907C397.655 279.97 397.631 280.031 397.608 280.091C397.586 280.146 397.565 280.2 397.545 280.253C397.498 280.191 397.445 280.132 397.385 280.078L397.851 279.525ZM394.427 281.845L394.427 281.845C394.585 282.046 394.88 282.221 395.175 282.291L394.427 281.845ZM394.427 281.845C394.313 281.701 394.27 281.544 394.27 281.415L394.427 281.845ZM395.361 282.323C395.266 282.215 395.193 282.096 395.142 281.977L395.361 282.323ZM395.361 282.323C395.3 282.317 395.238 282.306 395.175 282.291L395.361 282.323ZM396.396 282.039C396.473 281.986 396.546 281.928 396.615 281.867L396.396 282.039ZM396.396 282.039L396.395 282.035C396.388 282.002 396.382 281.972 396.376 281.945C396.365 281.892 396.355 281.847 396.346 281.798C396.333 281.728 396.328 281.68 396.328 281.644C396.328 281.638 396.328 281.634 396.328 281.629C396.332 281.628 396.338 281.628 396.344 281.627C396.378 281.623 396.427 281.628 396.483 281.651L396.483 281.651C396.534 281.672 396.592 281.713 396.636 281.764C396.653 281.784 396.664 281.8 396.671 281.812C396.67 281.813 396.669 281.815 396.667 281.816C396.655 281.83 396.638 281.847 396.615 281.867L396.396 282.039ZM397.882 279.547C397.882 279.547 397.881 279.546 397.88 279.545L397.882 279.547ZM397.418 281.123C397.422 281.133 397.425 281.143 397.429 281.153L397.39 281.04C397.399 281.068 397.409 281.096 397.418 281.123Z" stroke="#CCA377"/>
<path d="M395.95 288.062L395.95 288.062C395.969 288.122 395.982 288.162 395.995 288.194C396 288.204 396.004 288.213 396.007 288.219C396.009 288.219 396.011 288.219 396.014 288.22L395.95 288.062ZM395.95 288.062C395.916 287.949 395.887 287.838 395.855 287.717C395.843 287.67 395.831 287.622 395.817 287.571C395.771 287.397 395.716 287.205 395.639 287.015C395.543 286.775 395.414 286.563 395.256 286.383M395.95 288.062L395.256 286.383M395.256 286.383C396.027 286.42 396.779 286.27 397.435 285.967L397.435 285.967C397.923 285.742 398.332 285.362 398.658 284.986C398.649 285.016 398.64 285.047 398.63 285.076L398.63 285.077C398.535 285.384 398.417 285.684 398.29 285.999C398.273 286.04 398.256 286.081 398.239 286.123C398.129 286.395 398.013 286.681 397.911 286.974L395.256 286.383ZM398.98 282.312C398.959 281.991 398.912 281.669 398.841 281.339C398.676 281.716 398.472 282.063 398.236 282.378L398.236 282.378C397.725 283.058 397.054 283.603 396.304 284.011L396.304 284.011C395.926 284.217 395.529 284.387 395.12 284.531C395.222 284.513 395.324 284.493 395.425 284.472L398.98 282.312ZM398.98 282.312L398.418 282.832C398.33 282.914 398.251 282.989 398.179 283.058C397.978 283.249 397.822 283.398 397.637 283.524C396.989 283.969 396.237 284.301 395.425 284.472L398.98 282.312ZM392.43 286.025C392.152 286.012 391.871 286.004 391.584 285.995C391.539 285.994 391.494 285.992 391.448 285.991L391.377 285.368C391.213 285.396 391.05 285.424 390.889 285.453L390.889 285.453C390.777 285.474 390.666 285.544 390.6 285.626C390.585 285.644 390.576 285.66 390.569 285.672C390.676 285.878 390.834 286.045 391.069 286.156L392.43 286.025ZM392.43 286.025L392.349 286.625C393.261 286.918 394.021 287.418 394.435 288.109C394.311 288.116 394.189 288.125 394.071 288.134C394.043 288.136 394.015 288.138 393.987 288.14C393.515 287.751 393.021 287.367 392.487 286.999L392.43 286.025ZM397.457 288.576C397.576 288.023 397.731 287.488 397.911 286.974L397.457 288.576ZM397.457 288.576C397.001 288.434 396.515 288.292 396.014 288.22L397.457 288.576ZM392.487 286.999C392.061 286.705 391.596 286.406 391.069 286.157L392.487 286.999Z" stroke="#CCA377"/>
<mask id="path-37-inside-2" fill="white">
<path d="M398.766 289.15C398.769 289.143 398.771 289.137 398.774 289.13C398.824 288.976 398.82 288.783 398.845 288.621C398.941 288.005 399.098 287.384 399.357 286.844C399.585 286.368 399.966 285.971 400.258 285.532C400.965 284.47 401.337 283.323 401.313 282.06C401.293 281.059 400.797 279.933 400.224 278.954C399.908 278.412 399.519 277.842 398.991 277.453C398.493 277.087 396.886 276.782 397.145 277.601C397.312 278.127 398.354 278.584 398.702 278.953C399.356 279.647 399.804 280.493 399.996 281.351C400.267 282.555 400.056 283.741 399.676 284.815C399.403 285.586 399.109 286.366 398.845 287.124C398.604 287.817 398.379 288.584 398.634 289.388C398.618 289.346 398.751 289.192 398.766 289.15Z"/>
</mask>
<path d="M398.766 289.15L397.832 288.793L397.831 288.797L398.766 289.15ZM398.774 289.13L397.824 288.815L397.822 288.822L397.82 288.83L398.774 289.13ZM398.845 288.621L397.857 288.468L397.857 288.468L398.845 288.621ZM399.357 286.844L400.258 287.276L400.258 287.276L399.357 286.844ZM400.258 285.532L399.426 284.978L399.426 284.978L400.258 285.532ZM401.313 282.06L402.313 282.041L402.313 282.041L401.313 282.06ZM400.224 278.954L399.361 279.458L399.361 279.459L400.224 278.954ZM398.991 277.453L399.583 276.648L399.583 276.648L398.991 277.453ZM397.145 277.601L396.192 277.903L396.192 277.903L397.145 277.601ZM398.702 278.953L397.974 279.639L397.974 279.639L398.702 278.953ZM399.996 281.351L400.972 281.132L400.972 281.131L399.996 281.351ZM399.676 284.815L400.619 285.149L400.619 285.149L399.676 284.815ZM398.845 287.124L399.79 287.452L399.79 287.452L398.845 287.124ZM398.634 289.388L397.701 289.748L399.588 289.086L398.634 289.388ZM399.7 289.507C399.706 289.492 399.717 289.464 399.728 289.429L397.82 288.83C397.826 288.809 397.832 288.795 397.832 288.793L399.7 289.507ZM399.723 289.444C399.786 289.254 399.805 289.073 399.815 288.974C399.828 288.833 399.827 288.817 399.834 288.773L397.857 288.468C397.846 288.54 397.839 288.607 397.835 288.657C397.833 288.682 397.83 288.708 397.829 288.728C397.827 288.749 397.825 288.767 397.824 288.783C397.821 288.816 397.818 288.833 397.817 288.841C397.815 288.85 397.817 288.838 397.824 288.815L399.723 289.444ZM399.834 288.774C399.92 288.213 400.057 287.697 400.258 287.276L398.455 286.412C398.139 287.071 397.961 287.796 397.857 288.468L399.834 288.774ZM400.258 287.276C400.328 287.13 400.432 286.976 400.583 286.775C400.716 286.598 400.924 286.337 401.091 286.086L399.426 284.978C399.301 285.166 399.172 285.323 398.984 285.573C398.815 285.799 398.613 286.081 398.455 286.412L400.258 287.276ZM401.091 286.086C401.898 284.873 402.341 283.528 402.313 282.041L400.313 282.079C400.333 283.117 400.032 284.067 399.426 284.978L401.091 286.086ZM402.313 282.041C402.288 280.772 401.679 279.46 401.088 278.449L399.361 279.459C399.916 280.406 400.299 281.346 400.313 282.079L402.313 282.041ZM401.088 278.449C400.757 277.883 400.284 277.163 399.583 276.648L398.398 278.259C398.754 278.521 399.059 278.942 399.361 279.458L401.088 278.449ZM399.583 276.648C399.333 276.464 399.022 276.335 398.753 276.252C398.471 276.164 398.146 276.098 397.83 276.084C397.56 276.071 397.098 276.085 396.702 276.347C396.473 276.499 396.265 276.737 396.17 277.066C396.079 277.378 396.119 277.673 396.192 277.903L398.099 277.299C398.107 277.325 398.141 277.449 398.09 277.623C398.035 277.813 397.914 277.943 397.807 278.014C397.759 278.046 397.719 278.063 397.695 278.072C397.671 278.08 397.656 278.083 397.655 278.083C397.654 278.083 397.66 278.082 397.676 278.081C397.691 278.081 397.712 278.08 397.739 278.082C397.854 278.087 398.008 278.115 398.159 278.162C398.323 278.213 398.399 278.26 398.398 278.259L399.583 276.648ZM396.192 277.903C396.307 278.265 396.539 278.531 396.714 278.701C396.9 278.88 397.109 279.034 397.284 279.157C397.375 279.219 397.465 279.28 397.545 279.334C397.629 279.389 397.701 279.437 397.768 279.483C397.834 279.529 397.885 279.566 397.924 279.597C397.965 279.629 397.977 279.642 397.974 279.639L399.43 278.267C399.263 278.09 399.053 277.941 398.904 277.837C398.821 277.78 398.734 277.722 398.656 277.67C398.575 277.616 398.499 277.565 398.427 277.515C398.278 277.411 398.174 277.33 398.106 277.264C398.028 277.188 398.067 277.2 398.099 277.299L396.192 277.903ZM397.974 279.639C398.51 280.207 398.869 280.894 399.021 281.57L400.972 281.131C400.739 280.093 400.203 279.088 399.43 278.267L397.974 279.639ZM399.021 281.57C399.235 282.524 399.078 283.508 398.734 284.481L400.619 285.149C401.035 283.974 401.298 282.585 400.972 281.132L399.021 281.57ZM398.734 284.481C398.477 285.206 398.159 286.053 397.901 286.795L399.79 287.452C400.059 286.678 400.33 285.965 400.619 285.149L398.734 284.481ZM397.901 286.795C397.659 287.489 397.317 288.542 397.681 289.69L399.588 289.086C399.442 288.626 399.548 288.145 399.79 287.452L397.901 286.795ZM399.567 289.028C399.626 289.179 399.635 289.314 399.633 289.404C399.63 289.495 399.616 289.567 399.604 289.613C399.582 289.701 399.552 289.762 399.542 289.782C399.521 289.825 399.505 289.846 399.518 289.828C399.521 289.823 399.526 289.816 399.534 289.805C399.54 289.796 399.552 289.779 399.562 289.764C399.572 289.749 399.59 289.723 399.608 289.693C399.618 289.678 399.631 289.656 399.645 289.629C399.658 289.605 399.681 289.56 399.702 289.503L397.831 288.797C397.864 288.709 397.903 288.648 397.903 288.648C397.911 288.635 397.916 288.628 397.911 288.635C397.907 288.64 397.903 288.646 397.893 288.661C397.884 288.673 397.872 288.691 397.859 288.71C397.838 288.741 397.791 288.812 397.749 288.896C397.729 288.937 397.692 289.018 397.665 289.122C397.645 289.201 397.588 289.454 397.701 289.748L399.567 289.028Z" fill="#CCA377" mask="url(#path-37-inside-2)"/>
<path d="M402.386 284.003C402.055 284.804 401.541 285.531 401.07 286.198C400.975 286.333 400.882 286.465 400.793 286.594L402.386 284.003ZM402.386 284.003C402.494 284.095 402.611 284.221 402.732 284.37C402.987 284.686 403.217 285.054 403.371 285.301C403.767 285.939 404.056 286.654 404.215 287.372L402.386 284.003ZM402.782 289.12C403.119 289.101 403.459 289.027 403.725 288.903C403.975 288.786 404.133 288.637 404.214 288.467C404.336 288.209 404.321 287.848 404.215 287.372L402.782 289.12ZM402.782 289.12C402.542 289.133 402.305 289.151 402.067 289.168C401.725 289.193 401.382 289.219 401.032 289.232C400.513 289.251 400.073 289.236 399.751 289.165M402.782 289.12L399.751 289.165M399.751 289.165C399.751 289.149 399.751 289.13 399.753 289.108C399.767 288.902 399.848 288.6 399.98 288.246C400.243 287.545 400.641 286.814 400.793 286.594L399.751 289.165Z" stroke="#CCA377"/>
<path d="M406.133 289.708L406.133 289.708C404.231 290.457 402.375 290.56 400.51 290.465C399.667 290.423 398.812 290.339 397.953 290.255C397.865 290.246 397.777 290.238 397.689 290.229C396.742 290.137 395.784 290.049 394.794 290.012C394.392 290.03 393.989 290.068 393.627 290.157C392.629 290.403 391.799 290.802 390.992 291.37C390.237 291.901 389.649 292.632 389.191 293.456C389.361 293.292 389.535 293.128 389.711 292.969L389.711 292.969C390.32 292.419 390.946 291.934 391.55 291.529L391.55 291.529C392.234 291.071 393.009 290.667 393.866 290.428L393.866 290.428C394.265 290.317 394.672 290.254 395.077 290.24C395.448 290.228 395.8 290.32 396.081 290.394C396.131 290.407 396.18 290.419 396.225 290.431C396.229 290.431 396.235 290.432 396.244 290.433L396.247 290.434C396.268 290.437 396.333 290.446 396.402 290.472C396.478 290.5 396.621 290.572 396.708 290.74C396.794 290.909 396.771 291.071 396.744 291.165L396.744 291.165C396.693 291.343 396.567 291.43 396.528 291.456C396.476 291.489 396.428 291.508 396.402 291.517C396.348 291.536 396.294 291.547 396.259 291.554C396.182 291.568 396.092 291.578 396.016 291.585C395.945 291.592 395.873 291.597 395.816 291.601C395.81 291.602 395.804 291.602 395.798 291.603C395.768 291.605 395.748 291.607 395.735 291.608L406.133 289.708ZM406.133 289.708C406.187 289.687 406.229 289.678 406.26 289.676C406.452 289.665 406.755 289.795 407.098 290.076C407.427 290.346 407.672 290.655 407.748 290.797L407.748 290.797C408.274 291.781 408.301 292.757 407.978 293.561C407.653 294.367 406.962 295.038 405.976 295.377C404.939 295.734 403.818 295.933 402.663 295.919C402.547 295.918 402.435 295.917 402.326 295.917C401.858 295.913 401.441 295.911 400.994 295.865C400.386 295.802 399.842 295.742 399.334 295.659L399.334 295.659M406.133 289.708L399.334 295.659M391.571 293.84C392.301 293.204 393.057 292.642 393.902 292.204L393.902 292.204C394.275 292.011 394.694 291.865 395.112 291.749L395.112 291.749C395.316 291.692 395.519 291.646 395.723 291.608L391.571 293.84ZM391.571 293.84C392.073 293.97 392.591 294.07 393.123 294.173C393.275 294.202 393.429 294.232 393.585 294.263L391.571 293.84ZM399.334 295.659C398.352 295.498 397.361 295.291 396.379 295.023L399.334 295.659ZM395.504 294.77C395.803 294.859 396.096 294.946 396.379 295.023L395.504 294.77ZM395.504 294.77C394.879 294.584 394.227 294.39 393.585 294.263L395.504 294.77ZM396.109 291.424C396.109 291.424 396.108 291.424 396.105 291.424C396.108 291.424 396.109 291.424 396.109 291.424Z" stroke="#CCA377"/>
<path d="M408.049 278.663L408.049 278.663C408.023 278.671 407.998 278.679 407.973 278.687C407.509 278.829 407.032 278.975 406.632 279.189C406.211 279.413 405.971 279.663 405.896 279.962L408.049 278.663ZM408.049 278.663C408.142 278.635 408.235 278.606 408.327 278.577M408.049 278.663L408.327 278.577M406.675 287.782C406.777 286.858 406.688 285.818 406.546 284.815C406.456 284.179 406.342 283.54 406.232 282.937C406.223 282.889 406.215 282.841 406.206 282.793C406.105 282.24 406.011 281.723 405.942 281.254L405.942 281.254L405.941 281.244C405.867 280.74 405.805 280.322 405.896 279.962L406.675 287.782ZM406.675 287.782C407.426 287.801 408.13 288.114 408.691 288.624M406.675 287.782L408.691 288.624M408.691 288.624C408.82 288.304 408.916 287.959 408.996 287.592C409.075 287.23 409.133 286.877 409.193 286.512C409.229 286.29 409.266 286.065 409.308 285.83L409.308 285.83C409.429 285.167 409.577 284.45 409.78 283.704C410.245 281.984 410.96 280.336 411.648 278.749L408.691 288.624ZM408.327 278.577C409.08 278.343 409.792 278.121 410.532 278.093L408.327 278.577ZM411.904 278.071C411.892 278.148 411.861 278.258 411.797 278.407L410.532 278.093C410.717 278.085 410.888 278.074 411.053 278.062C411.316 278.044 411.564 278.027 411.832 278.031L411.832 278.031C411.864 278.032 411.889 278.034 411.908 278.037C411.907 278.047 411.906 278.058 411.904 278.071Z" stroke="#CCA377"/>
<path d="M394.508 275.012L394.508 275.012C395.023 274.175 395.941 273.568 397.07 273.531L394.508 275.012ZM394.508 275.012C394.274 275.392 394.192 275.821 394.13 276.151L394.129 276.16C394.064 276.502 394.018 276.746 393.919 276.946M394.508 275.012L393.919 276.946M401.238 273.809L400.335 274.449C400.267 274.498 400.224 274.532 400.176 274.569C400.14 274.597 400.101 274.627 400.046 274.668C399.945 274.743 399.815 274.831 399.65 274.89L399.65 274.89C399.377 274.986 399.089 275.06 398.823 275.129C398.782 275.139 398.741 275.15 398.701 275.16C398.393 275.24 398.117 275.318 397.87 275.423L397.869 275.423C397.833 275.438 397.796 275.461 397.755 275.498C398.048 275.574 398.338 275.678 398.62 275.805L398.62 275.805C399.221 276.077 399.788 276.461 400.272 276.93L401.238 273.809ZM401.238 273.809L400.161 273.555C400.099 273.54 400.055 273.528 400.008 273.514C399.989 273.509 399.969 273.503 399.948 273.497L399.944 273.496C399.889 273.481 399.775 273.45 399.649 273.456L401.238 273.809ZM397.67 275.585C397.66 275.596 397.651 275.607 397.641 275.62C397.6 275.668 397.563 275.719 397.518 275.779C397.508 275.791 397.499 275.804 397.489 275.817C397.463 275.852 397.434 275.89 397.403 275.929C397.416 275.932 397.429 275.935 397.442 275.938C397.484 275.947 397.528 275.957 397.575 275.968M397.67 275.585L398.414 276.26C398.139 276.136 397.857 276.038 397.575 275.968M397.67 275.585L397.575 275.968M397.67 275.585L397.575 275.968M393.919 276.946C393.907 276.958 393.891 276.976 393.869 276.999C393.816 277.055 393.741 277.128 393.652 277.211C393.471 277.377 393.25 277.564 393.051 277.701L393.919 276.946ZM398.067 273.505C398.598 273.493 399.122 273.481 399.649 273.456L398.067 273.505ZM398.067 273.505C397.737 273.513 397.406 273.521 397.07 273.531L398.067 273.505ZM403.533 277.244C403.577 277.44 403.617 277.636 403.654 277.833L393.051 277.701C392.977 277.752 392.913 277.791 392.862 277.818C392.019 277.051 391.888 276.365 392.027 275.8C392.189 275.144 392.755 274.493 393.531 273.961C394.93 273.004 396.505 272.23 398.142 271.673L398.142 271.673C398.634 271.505 399.248 271.581 399.89 271.863C400.527 272.143 401.132 272.6 401.567 273.093L401.567 273.093C402.613 274.277 403.213 275.793 403.533 277.244L403.533 277.244ZM393.934 276.927C393.934 276.927 393.933 276.928 393.931 276.931C393.933 276.929 393.934 276.927 393.934 276.927Z" stroke="#CCA377"/>
<mask id="path-43-inside-3" fill="white">
<path d="M399.986 271.31C399.974 271.303 399.962 271.296 399.951 271.289C399.438 271.026 398.901 270.871 398.412 270.946C398.231 270.974 398.066 271.027 397.894 271.08C397.86 271.099 397.825 271.119 397.793 271.142C397.782 271.149 397.77 271.156 397.76 271.164C397.969 271.072 398.19 271 398.43 270.963C398.926 270.886 399.465 271.038 399.986 271.31Z"/>
</mask>
<path d="M399.986 271.31L399.523 272.197L400.524 270.467L399.986 271.31ZM399.951 271.289L400.488 270.446L400.449 270.42L400.407 270.399L399.951 271.289ZM398.412 270.946L398.261 269.958L398.261 269.958L398.412 270.946ZM397.894 271.08L397.602 270.123L397.494 270.156L397.397 270.212L397.894 271.08ZM397.793 271.142L397.222 270.32L397.218 270.324L397.793 271.142ZM397.76 271.164L397.178 270.35L398.161 272.08L397.76 271.164ZM398.43 270.963L398.582 271.951L398.583 271.951L398.43 270.963ZM400.524 270.467C400.513 270.46 400.503 270.455 400.496 270.45C400.49 270.446 400.484 270.443 400.481 270.441C400.478 270.439 400.478 270.439 400.479 270.44C400.48 270.44 400.483 270.442 400.488 270.446L399.413 272.132C399.424 272.139 399.433 272.144 399.44 272.149C399.447 272.153 399.453 272.156 399.455 272.158C399.458 272.16 399.458 272.16 399.457 272.159C399.456 272.158 399.453 272.156 399.448 272.153L400.524 270.467ZM400.407 270.399C399.81 270.093 399.048 269.837 398.261 269.958L398.564 271.934C398.753 271.905 399.065 271.958 399.494 272.178L400.407 270.399ZM398.261 269.958C397.992 269.999 397.749 270.078 397.602 270.123L398.186 272.036C398.383 271.976 398.47 271.949 398.564 271.934L398.261 269.958ZM397.397 270.212C397.367 270.229 397.295 270.27 397.222 270.32L398.363 271.963C398.357 271.968 398.354 271.969 398.36 271.966C398.362 271.964 398.366 271.962 398.371 271.959C398.377 271.956 398.383 271.952 398.391 271.947L397.397 270.212ZM397.218 270.324C397.226 270.318 397.232 270.314 397.234 270.312C397.236 270.311 397.237 270.31 397.233 270.313C397.23 270.315 397.223 270.32 397.214 270.326C397.205 270.331 397.193 270.34 397.178 270.35L398.341 271.977C398.332 271.984 398.325 271.989 398.322 271.991C398.319 271.993 398.317 271.994 398.32 271.992C398.321 271.991 398.328 271.987 398.335 271.982C398.343 271.977 398.354 271.969 398.368 271.96L397.218 270.324ZM398.161 272.08C398.31 272.015 398.447 271.972 398.582 271.951L398.278 269.974C397.933 270.027 397.628 270.13 397.359 270.247L398.161 272.08ZM398.583 271.951C398.781 271.921 399.094 271.973 399.523 272.197L400.448 270.423C399.835 270.104 399.071 269.852 398.278 269.974L398.583 271.951Z" fill="#CCA377" mask="url(#path-43-inside-3)"/>
</g>
<g clip-path="url(#clip2)">
<path d="M420.301 276.158C415.961 276.451 412.662 280.124 412.948 284.343C413.234 288.563 416.997 291.757 421.337 291.463C425.677 291.169 428.975 287.497 428.689 283.277C428.403 279.058 424.64 275.864 420.301 276.158ZM427.292 283.649L428.134 283.592C428.183 285.347 427.568 286.985 426.503 288.267L425.871 287.731C425.753 287.63 425.573 287.642 425.47 287.758C425.366 287.873 425.378 288.048 425.496 288.148L426.128 288.684C424.965 289.883 423.378 290.697 421.583 290.886L421.528 290.067C421.517 289.915 421.382 289.8 421.225 289.811C421.068 289.821 420.95 289.953 420.96 290.106L421.015 290.924C419.211 290.979 417.529 290.386 416.215 289.355L416.769 288.739C416.872 288.624 416.861 288.449 416.742 288.349C416.624 288.248 416.445 288.26 416.341 288.376L415.787 288.992C414.559 287.866 413.728 286.326 413.541 284.58L414.383 284.523C414.539 284.513 414.658 284.38 414.648 284.228C414.637 284.076 414.502 283.961 414.345 283.971L413.503 284.028C413.454 282.274 414.07 280.635 415.135 279.354L415.766 279.89C415.826 279.94 415.9 279.962 415.973 279.957C416.045 279.952 416.116 279.921 416.168 279.863C416.271 279.748 416.26 279.573 416.141 279.473L415.51 278.936C416.672 277.738 418.259 276.924 420.055 276.735L420.11 277.553C420.12 277.706 420.256 277.821 420.413 277.81C420.569 277.799 420.688 277.667 420.678 277.515L420.622 276.696C422.427 276.642 424.109 277.234 425.423 278.265L424.869 278.882C424.765 278.997 424.777 279.172 424.895 279.272C424.954 279.322 425.029 279.344 425.101 279.339C425.174 279.334 425.245 279.302 425.297 279.245L425.85 278.628C427.078 279.754 427.909 281.295 428.097 283.04L427.255 283.097C427.098 283.108 426.98 283.24 426.99 283.392C427 283.545 427.136 283.66 427.292 283.649Z" fill="#CCA377"/>
<path d="M421.292 282.633C420.626 282.382 419.871 282.705 419.61 283.354C419.484 283.668 419.49 284.012 419.629 284.32C419.768 284.629 420.022 284.866 420.345 284.987C420.525 285.056 420.715 285.083 420.903 285.07C421.051 285.06 421.198 285.025 421.338 284.965C421.656 284.829 421.901 284.581 422.027 284.267C422.154 283.952 422.147 283.609 422.008 283.301C421.869 282.992 421.615 282.755 421.292 282.633ZM421.497 284.067C421.426 284.243 421.289 284.383 421.11 284.459C420.932 284.536 420.734 284.54 420.553 284.471C420.371 284.403 420.228 284.27 420.15 284.097C420.073 283.923 420.069 283.731 420.14 283.554C420.246 283.29 420.498 283.121 420.772 283.103C420.875 283.096 420.982 283.11 421.085 283.149C421.266 283.218 421.409 283.351 421.487 283.524C421.565 283.697 421.568 283.89 421.497 284.067Z" fill="#CCA377"/>
<path d="M425.27 285.194L422.96 284.322C423.078 283.863 423.039 283.383 422.841 282.944C422.703 282.636 422.497 282.371 422.24 282.162L422.526 281.452L423.286 281.433C423.362 281.432 423.434 281.399 423.487 281.345C423.539 281.291 423.567 281.219 423.564 281.145L423.436 278C423.432 277.89 423.361 277.794 423.256 277.754C423.151 277.714 423.031 277.739 422.951 277.817L420.66 280.048C420.606 280.101 420.576 280.172 420.577 280.247C420.577 280.321 420.609 280.391 420.663 280.443L421.209 280.955L420.924 281.665C420.589 281.651 420.252 281.711 419.935 281.847C419.483 282.04 419.118 282.368 418.885 282.783L416.574 281.911C416.428 281.855 416.263 281.926 416.206 282.069C416.148 282.211 416.22 282.371 416.367 282.427L418.678 283.299C418.559 283.757 418.599 284.238 418.796 284.677C418.934 284.984 419.141 285.249 419.397 285.458L419.112 286.168L418.352 286.188C418.275 286.189 418.203 286.221 418.151 286.275C418.098 286.33 418.071 286.402 418.074 286.476L418.201 289.62C418.205 289.73 418.276 289.827 418.381 289.866C418.421 289.881 418.463 289.887 418.504 289.884C418.571 289.88 418.636 289.852 418.686 289.804L420.977 287.572C421.031 287.52 421.061 287.448 421.06 287.374C421.06 287.3 421.029 287.229 420.974 287.178L420.428 286.665L420.714 285.954C420.796 285.958 420.879 285.957 420.96 285.952C421.697 285.902 422.383 285.492 422.752 284.837L425.063 285.71C425.103 285.725 425.145 285.731 425.185 285.728C425.292 285.721 425.39 285.655 425.432 285.552C425.489 285.41 425.417 285.249 425.27 285.194ZM422.324 280.904C422.315 280.904 422.306 280.906 422.297 280.907L422.923 279.383L422.984 280.887L422.324 280.904ZM422.421 279.115L421.765 280.711C421.758 280.701 421.75 280.692 421.741 280.684L421.267 280.239L422.421 279.115ZM421.789 281.031L422.045 281.13L421.751 281.862C421.709 281.843 421.667 281.825 421.624 281.809C421.581 281.793 421.537 281.778 421.494 281.765L421.789 281.031ZM419.371 286.709L418.717 288.3L418.653 286.734C418.654 286.733 419.352 286.713 419.371 286.709ZM419.263 288.46L419.891 286.931C419.893 286.933 419.894 286.935 419.896 286.937L420.37 287.382L419.263 288.46ZM419.837 286.618L419.58 286.52L419.887 285.759C419.928 285.777 419.97 285.795 420.013 285.812C420.056 285.828 420.1 285.843 420.143 285.856L419.837 286.618ZM422.344 284.386C422.014 285.205 421.062 285.613 420.221 285.296C419.813 285.142 419.493 284.843 419.318 284.454C419.142 284.064 419.134 283.631 419.294 283.235C419.453 282.838 419.762 282.525 420.163 282.353C420.34 282.277 420.525 282.233 420.712 282.22C420.949 282.204 421.189 282.239 421.416 282.325C421.824 282.479 422.145 282.778 422.32 283.167C422.495 283.556 422.503 283.989 422.344 284.386Z" fill="#CCA377"/>
<path d="M431.668 276.55C431.358 275.212 430.906 273.682 430.152 273.733C429.755 273.76 429.269 274.125 429.029 276.729C428.975 277.31 428.94 277.954 428.922 278.643C428.598 278.16 428.231 277.711 427.829 277.301C428.631 275.813 429.418 273.435 428.888 270.282C428.864 270.141 428.735 270.04 428.585 270.052C426.317 270.229 424.41 271.265 422.915 273.129C422.585 273.541 422.279 273.992 422.002 274.47C421.848 274.452 421.693 274.439 421.538 274.428L421.471 273.442C421.784 273.119 421.984 272.693 422.014 272.229C423.294 271.437 424.022 270.049 423.921 268.57C423.772 266.363 421.804 264.693 419.535 264.847C417.265 265 415.54 266.921 415.69 269.127C415.79 270.607 416.698 271.883 418.073 272.496C418.165 272.952 418.42 273.346 418.774 273.624L418.841 274.61C417.673 274.851 416.587 275.295 415.621 275.9L412.716 273.055C412.831 272.869 412.891 272.648 412.875 272.416C412.834 271.808 412.292 271.348 411.666 271.39C411.041 271.432 410.565 271.962 410.606 272.57C410.648 273.178 411.19 273.638 411.815 273.596C411.997 273.584 412.164 273.53 412.311 273.446L415.143 276.219C414.953 276.354 414.768 276.496 414.589 276.644L413.153 276.112C413.18 275.891 413.138 275.667 413.028 275.467L413.028 275.467C412.733 274.93 412.044 274.727 411.49 275.016C411.222 275.155 411.026 275.388 410.937 275.671C410.848 275.954 410.878 276.253 411.021 276.513C411.163 276.773 411.402 276.963 411.692 277.048C411.826 277.088 411.964 277.102 412.1 277.093C412.258 277.083 412.414 277.039 412.558 276.964C412.716 276.882 412.848 276.767 412.949 276.629L414.115 277.062C412.134 278.926 410.974 281.591 411.168 284.464C411.248 285.645 411.551 286.76 412.033 287.774C411.352 288.486 408.909 291.42 409.528 296.308C409.546 296.451 409.673 296.556 409.821 296.55C409.902 296.547 409.983 296.542 410.065 296.537C412.04 296.403 413.763 295.598 415.197 294.141C415.422 295.405 415.922 296.634 416.687 297.801C416.744 297.889 416.845 297.935 416.946 297.928C416.984 297.925 417.022 297.915 417.058 297.897C418.888 296.962 420.1 295.346 420.575 293.214C420.866 293.22 421.159 293.213 421.454 293.193C424.973 292.955 428.047 290.89 429.545 287.838C429.655 288.518 429.777 289.151 429.909 289.72C430.218 291.058 430.67 292.588 431.425 292.537C431.821 292.51 432.307 292.145 432.547 289.542C432.709 287.785 432.707 285.468 432.541 283.017C432.375 280.565 432.065 278.269 431.668 276.55ZM411.174 272.531C411.154 272.228 411.391 271.963 411.703 271.942C412.016 271.921 412.287 272.151 412.307 272.455C412.328 272.758 412.09 273.023 411.778 273.044C411.466 273.065 411.195 272.835 411.174 272.531ZM412.567 276.149C412.523 276.29 412.425 276.406 412.291 276.476C412.157 276.546 412.003 276.561 411.858 276.519C411.713 276.476 411.594 276.381 411.523 276.251C411.452 276.121 411.437 275.972 411.481 275.83C411.525 275.689 411.624 275.573 411.758 275.503C411.831 275.465 411.908 275.444 411.986 275.439C412.202 275.424 412.417 275.531 412.526 275.728C412.597 275.858 412.612 276.008 412.567 276.149ZM423.364 273.468C424.697 271.804 426.379 270.85 428.367 270.629C428.774 273.402 428.114 275.519 427.404 276.895C426.778 276.332 426.08 275.853 425.329 275.47L425.603 275.081L427.242 274.909C427.398 274.893 427.512 274.756 427.496 274.604C427.479 274.452 427.338 274.343 427.183 274.359L426.026 274.48L426.733 273.477L427.946 273.194C428.099 273.159 428.194 273.009 428.158 272.861C428.122 272.712 427.969 272.621 427.816 272.656L427.212 272.797L427.777 271.995C427.866 271.869 427.833 271.697 427.703 271.611C427.574 271.525 427.397 271.558 427.308 271.684L426.647 272.623L426.372 271.846C426.321 271.701 426.16 271.625 426.011 271.675C425.862 271.725 425.783 271.883 425.834 272.027L426.245 273.192L425.489 274.265L424.955 273.161C424.888 273.023 424.718 272.964 424.576 273.029C424.434 273.095 424.373 273.26 424.44 273.398L425.116 274.795L424.812 275.228C424.111 274.921 423.371 274.696 422.605 274.559C422.839 274.172 423.093 273.806 423.364 273.468ZM418.437 270.958C417.752 270.537 417.304 269.816 417.25 269.022C417.157 267.652 418.228 266.459 419.637 266.364C421.047 266.268 422.269 267.305 422.362 268.675C422.415 269.47 422.068 270.245 421.446 270.754C421.054 270.368 420.497 270.143 419.896 270.184C419.295 270.224 418.774 270.522 418.437 270.958ZM416.257 269.089C416.129 267.186 417.615 265.531 419.572 265.399C421.528 265.266 423.225 266.706 423.354 268.608C423.434 269.788 422.902 270.9 421.948 271.601C421.909 271.459 421.853 271.325 421.784 271.199C422.561 270.578 422.996 269.62 422.929 268.637C422.816 266.963 421.322 265.695 419.6 265.812C417.878 265.929 416.569 267.386 416.682 269.06C416.749 270.042 417.309 270.933 418.163 271.444C418.111 271.578 418.074 271.719 418.053 271.864C417.014 271.299 416.337 270.269 416.257 269.089ZM418.608 272.212C418.556 271.451 419.151 270.789 419.933 270.736C420.716 270.683 421.394 271.259 421.446 272.02C421.498 272.78 420.903 273.443 420.12 273.496C419.338 273.549 418.659 272.973 418.608 272.212ZM419.366 273.945C419.613 274.029 419.881 274.066 420.158 274.047C420.435 274.029 420.695 273.955 420.928 273.839L420.966 274.406C420.706 274.403 420.445 274.409 420.183 274.427C419.92 274.445 419.661 274.473 419.405 274.511L419.366 273.945ZM410.063 295.982C409.618 291.765 411.549 289.152 412.306 288.304C412.729 289.063 413.256 289.756 413.867 290.368L413.74 290.538L412.031 290.048C411.88 290.005 411.722 290.089 411.677 290.235C411.632 290.382 411.718 290.536 411.868 290.579L413.385 291.014L412.748 291.866L411.26 291.53C411.107 291.496 410.954 291.588 410.918 291.737C410.882 291.886 410.976 292.035 411.129 292.069L412.385 292.353L411.734 293.225L410.85 293.078C410.695 293.053 410.547 293.154 410.52 293.305C410.493 293.455 410.597 293.598 410.752 293.624L411.361 293.725L410.494 294.887C410.401 295.011 410.429 295.184 410.556 295.274C410.612 295.313 410.678 295.33 410.742 295.325C410.824 295.32 410.902 295.281 410.954 295.211L411.759 294.133L411.886 294.523C411.927 294.646 412.048 294.722 412.176 294.714C412.198 294.712 412.221 294.708 412.243 294.701C412.393 294.654 412.476 294.498 412.429 294.353L412.174 293.576L412.741 292.816L412.966 293.671C413 293.802 413.126 293.887 413.26 293.878C413.277 293.877 413.294 293.874 413.312 293.87C413.464 293.831 413.556 293.68 413.517 293.532L413.176 292.234L413.77 291.437L414.263 292.712C414.308 292.829 414.426 292.898 414.547 292.89C414.575 292.888 414.602 292.882 414.629 292.872C414.776 292.818 414.85 292.658 414.795 292.516L414.171 290.9L414.278 290.757C414.838 291.255 415.459 291.689 416.126 292.049C415.834 292.514 415.516 292.947 415.176 293.337C413.777 294.948 412.057 295.837 410.063 295.982ZM417.027 297.283C416.295 296.106 415.847 294.869 415.69 293.599C416.026 293.202 416.343 292.768 416.632 292.302C417.024 292.484 417.429 292.642 417.846 292.772L417.844 292.778L416.779 293.092C416.628 293.136 416.543 293.291 416.588 293.437C416.633 293.583 416.791 293.666 416.942 293.622L417.69 293.401L417.443 294.394L416.688 294.55C416.534 294.581 416.435 294.728 416.467 294.878C416.499 295.027 416.65 295.123 416.804 295.091L417.295 294.989L417 296.178C416.963 296.327 417.057 296.476 417.21 296.511C417.239 296.518 417.267 296.52 417.296 296.518C417.416 296.51 417.523 296.427 417.553 296.306L417.845 295.129L418.045 295.375C418.106 295.449 418.197 295.484 418.288 295.478C418.343 295.475 418.398 295.455 418.445 295.419C418.568 295.324 418.589 295.15 418.492 295.03L418.015 294.445L418.256 293.477L418.831 294.031C418.891 294.089 418.972 294.115 419.05 294.11C419.117 294.105 419.182 294.078 419.233 294.028C419.344 293.919 419.343 293.744 419.232 293.637L418.526 292.957C419.005 293.069 419.497 293.146 419.998 293.186C419.566 295.041 418.568 296.418 417.027 297.283ZM421.417 292.641C416.408 292.981 412.066 289.295 411.736 284.425C411.406 279.556 415.212 275.318 420.221 274.979C421.829 274.87 423.394 275.177 424.782 275.824C424.787 275.826 424.791 275.829 424.795 275.83C426.529 276.642 427.986 277.986 428.909 279.721C428.91 280.829 428.952 282.025 429.035 283.254C429.118 284.483 429.238 285.674 429.386 286.772C428.159 290.095 425.038 292.396 421.417 292.641ZM429.603 283.216C429.445 280.888 429.437 278.667 429.579 276.962C429.651 276.107 429.747 275.524 429.842 275.126C430.415 276.586 430.936 279.666 431.169 283.109C431.402 286.552 431.301 289.674 430.931 291.199C430.782 290.817 430.609 290.252 430.423 289.415C430.051 287.745 429.76 285.543 429.603 283.216ZM431.997 289.309C431.811 291.538 431.456 291.925 431.387 291.979C431.372 291.97 431.343 291.949 431.304 291.905C431.833 290.566 432.008 287.076 431.737 283.071C431.466 279.066 430.822 275.631 430.117 274.376C430.15 274.327 430.175 274.302 430.189 274.291C430.265 274.336 430.669 274.672 431.154 276.855C431.525 278.526 431.816 280.727 431.974 283.055C432.131 285.383 432.139 287.604 431.997 289.309Z" fill="#CCA377"/>
</g>
<path d="M451 213.5C451 213.5 473.686 174.41 490.5 170.5C512 165.5 532.375 181.836 522 207.5C512.5 231 494 249.5 494 249.5C483.643 235.646 473.439 228.181 451 213.5Z" fill="#4A4A4A"/>
<path d="M321 220.5C335.824 203.38 346.078 193.425 365.5 177C368.711 202.059 368.388 215.807 365.5 240C358.867 253.484 355.993 255.893 346 264C340.377 243.664 335 232 321 220.5Z" fill="#4A4A4A"/>
<path d="M451 147.5C451 144 450.336 123.896 453 104C453 104 401.435 144.62 401.5 149C401.565 153.38 401.549 156.161 401.5 158C401.5 158 406 172.5 416 174.5C426 176.5 451 147.5 451 147.5Z" fill="#FFDBB4"/>
<path d="M456.5 71.9774C456.5 83.3445 456.27 92.2451 455.226 99.6502C452.581 118.42 444.707 127.581 422.092 142.945C412.717 148.301 395.985 155.888 382.774 151.871C370.842 148.243 355.5 104.747 355.5 78.2261C355.5 38.046 373.261 20.1076 406.213 16.1857C424.964 13.954 456.5 31.7973 456.5 71.9774Z" fill="#FFDBB4"/>
<path d="M414.291 45.4973C375.164 49.9653 360.075 50.2587 357.145 47.9794C354.215 45.7002 355.6 18.689 358.175 21.6677C360.749 24.6464 360.275 22.7607 362.808 18.6891C368.986 8.76026 371.102 11.9539 371.56 17.1996C371.907 21.1712 372.576 18.4897 373.105 17.6961C377.738 10.7458 388.035 -1.16897 386.491 8.26354C384.946 17.696 402.45 -5.14059 398.846 6.27774C395.243 17.6961 432.171 9.9041 452.904 36.5611C477.615 68.3338 451.359 115 451.359 115C451.359 115 459.444 69.4371 447.24 68.3338C444.438 68.0805 442.751 69.1411 441.062 71.3125C437.973 75.2841 437.459 92.6598 437.459 92.6598C437.459 92.6598 434.186 94.0275 433.34 92.6598C430.766 88.5 433.85 81.9719 430.766 76.277C427.973 71.1194 423.186 70.7466 419.954 65.8517C415.409 58.9661 414.291 45.4973 414.291 45.4973Z" fill="#4A4A4A"/>
<path d="M414.291 45.4973C375.164 49.9653 360.075 50.2587 357.145 47.9794C354.215 45.7002 355.6 18.689 358.175 21.6677C360.749 24.6464 360.275 22.7607 362.808 18.6891C368.986 8.76026 371.102 11.9539 371.56 17.1996C371.907 21.1712 372.576 18.4897 373.105 17.6961C377.738 10.7458 388.035 -1.16897 386.491 8.26354C384.946 17.696 402.45 -5.14059 398.846 6.27774C395.243 17.6961 432.171 9.9041 452.904 36.5611C477.615 68.3338 451.359 115 451.359 115C451.359 115 459.444 69.4371 447.24 68.3338C444.438 68.0805 442.751 69.1411 441.062 71.3125C437.973 75.2841 437.459 92.6598 437.459 92.6598C437.459 92.6598 434.186 94.0275 433.34 92.6598C430.766 88.5 433.85 81.9719 430.766 76.277C427.973 71.1194 423.186 70.7466 419.954 65.8517C415.409 58.9661 414.291 45.4973 414.291 45.4973Z" fill="url(#paint0_linear)"/>
<path d="M391 88C392 82.5001 400.5 81.0001 404 86.0001M359.5 88.9998C362.5 84.5 366 84 369.5 88" stroke="#505050"/>
<path d="M388.499 74.1706C391.54 71.7203 404.615 68.0665 408.53 72.5M368.444 76.2564C363.486 73.6745 357.692 72.5188 355.438 76.5424" stroke="#3D3D3D" stroke-width="3"/>
<path d="M375.194 87.6068C376.06 94.9034 371.83 101.242 365.949 101.94C360.068 102.638 354.471 97.4664 353.605 90.1698C352.739 82.8732 356.969 76.5351 362.85 75.837C368.731 75.1388 374.328 80.3102 375.194 87.6068Z" stroke="black"/>
<path d="M412.825 85.9763C413.457 94.6094 407.517 102.01 399.647 102.587C391.776 103.164 384.821 96.7076 384.189 88.0746C383.556 79.4415 389.496 72.0405 397.366 71.4638C405.237 70.8871 412.192 77.3432 412.825 85.9763Z" stroke="black"/>
<path d="M374.5 85C376.853 82.3333 381.559 82.3333 384.5 85" stroke="black"/>
<path d="M410 78L437.5 74.5" stroke="black"/>
<path d="M378.172 87C378.172 87 376.529 96.3875 371.66 107.785C369.884 111.942 383.5 108.973 383.5 108.973" stroke="#B9946B"/>
<path d="M430 17.5001C442.5 24.7918 454 65.5001 453 65.5001C452 65.5002 445.293 64.4649 442 68.0001C435.728 47.0934 426.5 19.0001 411.5 14.5054C418 13.0001 424 14.0001 430 17.5001Z" fill="#F0F0F0"/>
<ellipse cx="449.5" cy="87" rx="16" ry="22" fill="white"/>
<ellipse cx="454" cy="87" rx="12.5" ry="17" fill="#E5E5E5"/>
<ellipse cx="455" cy="87" rx="3.5" ry="5" fill="#DADADA"/>
<path d="M372.755 124.454C376.298 127.569 383.698 128.784 392.071 124.078" stroke="#B9946B"/>
<path d="M405 147C401.5 150 425 136.5 434.5 127" stroke="#B9946B"/>
<path d="M374.5 112C370.935 111.136 368.5 119 365 118C361.5 117 367 125 378.5 121.5C393 125 402.5 113.5 396.5 116C390.5 118.5 386.327 109.492 381 111.5C379.774 111.962 378 113.5 378 113.5C378 113.5 375.773 112.309 374.5 112Z" fill="#4A4A4A"/>
<path d="M389 154.5C384.5 155 378.155 151.989 375.5 146C379.598 146.164 382 144.5 383.5 140.5C387 144.5 396.5 147.5 407 146C403 153 393.5 154 389 154.5Z" fill="#3D3D3D"/>
<path d="M150.5 206.506C150.5 209.512 160.486 304.049 160.467 305.875L357.5 305.875L362.5 303L307.741 303C307.741 303 299 209.11 299 206.506C299 203.902 150.5 203.5 150.5 206.506Z" fill="#E5E5E5" stroke="#E5E5E5"/>
<g clip-path="url(#clip3)">
<path d="M227.627 252.021C227.112 249.527 224.674 247.805 221.983 248.122C219.292 248.438 217.32 250.678 217.397 253.223C216.046 254.724 215.32 256.729 215.568 258.84C216.038 262.839 219.807 265.683 223.99 265.192C228.171 264.7 231.179 261.06 230.709 257.06C230.461 254.95 229.288 253.168 227.627 252.021Z" fill="#DADADA"/>
<path d="M222.145 249.5C222.145 249.5 220.327 244.919 223.043 243.152Z" fill="#DADADA"/>
</g>
<ellipse cx="138.872" cy="208.733" rx="25" ry="23.5" fill="#947548"/>
<path d="M126.372 179.233C130.039 184.733 132.272 185.633 131.872 187.233L117.872 196.733C117.43 187.903 122.705 173.733 126.372 179.233Z" fill="#947548"/>
<path d="M158.372 182.733C157.372 176.733 149.872 184.233 149.872 188.733L159.372 195.733C159.058 190.944 158.034 188.929 158.372 182.733Z" fill="#947548"/>
<circle cx="138.872" cy="200.233" r="3" fill="#C2AF79"/>
<path d="M145.872 213.625C149.372 215.507 150.553 212.73 150.872 209.233C150.76 212.554 150.872 214.253 154.872 212.998" stroke="black"/>
<path d="M152.995 206.301C152.353 204.877 148.635 204.879 147.995 206.303C147.587 207.212 148.269 207.622 148.996 208.303C149.851 209.104 151.141 209.103 151.996 208.302C152.722 207.621 153.404 207.209 152.995 206.301Z" fill="#DFD4BF"/>
<ellipse cx="154.372" cy="200.233" rx="2.5" ry="3" fill="#C2AF79"/>
<path d="M43.3717 228.233C47.3717 224.733 67.4594 220.613 74.3718 225.733C87.8718 235.733 61.8717 274.185 75.8717 277.733C89.8717 281.281 72.8717 295.733 72.8717 295.733C45.3718 282.233 61.8717 253.733 63.3718 240.233C64.8718 226.733 44.0265 245.696 39.8717 237.733C37.704 233.578 39.8449 231.319 43.3717 228.233Z" fill="#816640"/>
<path d="M153.372 208.233C158.372 205.233 159.845 207.146 165.872 207.733M153.372 209.733C157.872 207.233 162.149 208.983 165.872 210.733M153.372 211.733C157.872 209.733 161.694 210.964 164.372 213.233M148.372 209.233C142.372 206.233 140.393 207.749 134.872 207.733M147.872 210.733C142.267 209.644 139.128 208.993 133.372 210.233M147.872 212.233C140.377 211.97 136.413 211.968 133.872 214.733" stroke="#393939" stroke-width="0.5"/>
<path d="M149.872 296.233C149.239 278.095 151.372 247.733 151.872 245.233C152.372 242.733 139.372 278.733 139.372 278.733C138.896 284.441 138.87 288.209 139.372 296.233C139.372 296.233 139.148 300.78 140.872 302.733C143.586 305.807 151.28 305.512 152.872 301.733C153.883 299.332 149.872 296.233 149.872 296.233Z" fill="#947548" stroke="#816640"/>
<path d="M130.372 301.233C142.462 272.27 150.594 255.861 156.372 225.233L116.372 219.233C113.372 221.733 106.372 226.233 106.372 237.233C82.3717 240.233 72.5982 266.946 74.3718 301.233H130.372Z" fill="#947548" stroke="#947548"/>
<path d="M119.372 297.233C112.249 277.656 110.293 268.695 110.872 252.233L128.372 253.733C127.625 270.547 128.83 280.096 132.372 297.233C132.372 297.233 137.389 301.566 135.872 303.638C133.218 307.261 121.309 307.689 119.372 303.638C118.445 301.7 119.372 297.233 119.372 297.233Z" fill="#947548" stroke="#816640"/>
<path d="M109.872 253.233L128.872 254.233" stroke="#947548" stroke-width="5"/>
<path d="M101.372 260.733C109.372 270.333 101.372 296.733 101.372 296.733C101.372 296.733 109.472 293.834 112.372 296.733C115.271 299.633 111.872 305.733 111.872 305.733H74.3717C74.3717 305.733 64.8625 267.633 78.8717 258.733C84.381 255.233 96.3717 254.733 101.372 260.733Z" fill="#947548" stroke="#816640"/>
<circle cx="139.5" cy="199.5" r="0.5" fill="black"/>
<circle cx="139.5" cy="199.5" r="0.5" fill="black"/>
<circle cx="139.5" cy="199.5" r="0.5" fill="black"/>
<circle cx="154.5" cy="199.5" r="0.5" fill="black"/>
<circle cx="154.5" cy="199.5" r="0.5" fill="black"/>
<circle cx="154.5" cy="199.5" r="0.5" fill="black"/>
<circle cx="37" cy="180" r="4.5" fill="#FF6660" stroke="white"/>
<circle cx="142.5" cy="37.5" r="8" fill="#6A5ACD" stroke="white"/>
<circle cx="162" cy="9" r="9" fill="#59EA83"/>
<circle cx="187" cy="20" r="5" fill="#FFAB41"/>
<defs>
<linearGradient id="paint0_linear" x1="385" y1="8" x2="409.5" y2="115" gradientUnits="userSpaceOnUse">
<stop offset="0.453125" stop-color="#2F2F2F"/>
<stop offset="1" stop-color="#FFDBB4"/>
</linearGradient>
<clipPath id="clip0">
<rect width="40.715" height="41.598" fill="white" transform="translate(457.132 217) rotate(38.0374)"/>
</clipPath>
<clipPath id="clip1">
<rect width="45.9106" height="54.8627" fill="white" transform="translate(352.051 292.227) rotate(-56.2941)"/>
</clipPath>
<clipPath id="clip2">
<rect width="33.7655" height="32.8309" fill="white" transform="translate(402.5 266) rotate(-3.87358)"/>
</clipPath>
<clipPath id="clip3">
<rect width="23" height="22" fill="white" transform="translate(210 244.685) rotate(-6.70348)"/>
</clipPath>
</defs>
</svg>
