<svg width="937" role="img" aria-labelledby="introduction-background" height="464" fill="none" xmlns="http://www.w3.org/2000/svg"><title id="lightbulb8">People talking with code editor in background!</title><path d="M357.79 27.756h200.855M919.641 185.63c.956-2.56 1.843-5.089 2.663-7.589H221.158l698.483 7.589zM2.805 461.601v-22.768 22.768zm37.667 0v-51.025 51.025zm37.667 0v-83.059 83.059zm37.668 0V341.477v120.124zm37.646-165.114v165.114-165.114zm37.652-61.644v226.758-226.758zm37.703-70.451v297.209-297.209zm37.667-57.521V462 106.871zm37.668-41.456v396.186V65.415zm37.667-28.573V461.6 36.841zM379.477 461.6V17.824 461.6zM417.144 6.039v455.562V6.039zm37.668 455.562V0v461.601zM492.479 1.407V462 1.407zm37.667 460.194V12.805 461.6zm37.667-428.478v428.478V33.123zm37.667 428.478V53.02 461.6zm37.668-397.053v.723-.723zm0 397.053V65.271 461.6zm37.667-394.189v394.189V67.412zm37.667-5.012v2.87-2.87zm0 399.201V65.271 461.6zm37.667-413.13V461.6 48.471zm37.728 369.997V35.65v382.818zm37.607-386.507v327.037c5.987-9.87 12.11-20.178 18.25-30.799l-18.25-296.238zm37.667 8.458V293.56 40.42zm0 253.141a1454.827 1454.827 0 01-19.417 34.639l19.417-34.639zm0 0a1166.8 1166.8 0 001.587-2.938l-1.587 2.938zm37.667-76.38V66.746c-.44-.497-.885-.989-1.335-1.475H718.482L906.818 217.18zM0 440.833h778.934H0zm803.762-37.542H49.478h754.284zm-711.815-37.65h735.93-735.93zm35.881-37.442h721.906-721.906zm29.888-37.577h713.022-713.022zm713.022 0c6.657-12.354 13.165-24.911 19.359-37.498l-19.359 37.498zm-689.554-37.498h708.913-708.913zm708.913 0c6.194-12.586 12.075-25.203 17.48-37.677l-706.418.24 688.938 37.437zM930 140.499H243.151 930zm-660.479-37.542h656.987-656.987zm34.622-37.686h339.005-339.005z" stroke="#D2D2D2"/><path fill-rule="evenodd" clip-rule="evenodd" d="M310 358h104v104h-21v-82h-83v82h-21V358h21z" fill="#382D93"/><g filter="url(#filter0_d)" stroke="#6A5ACD" stroke-width="2"><path d="M876 11H414c-8.284 0-15 6.716-15 15v252c0 8.284 6.716 15 15 15h462c8.284 0 15-6.716 15-15V26c0-8.284-6.716-15-15-15z" fill="#fff"/><path d="M400 34h490.5"/></g><path d="M398 33h248v261H414c-8.837 0-16-7.163-16-16V33z" fill="#1F043A"/><path d="M418 57a4 4 0 100-8 4 4 0 000 8zM418 73a4 4 0 100-8 4 4 0 000 8zM418 89a4 4 0 100-8 4 4 0 000 8zM418 105a4 4 0 100-8 4 4 0 000 8zM418 121a4 4 0 100-8 4 4 0 000 8zM418 137a4 4 0 100-8 4 4 0 000 8zM418 153a4 4 0 100-8 4 4 0 000 8zM418 169a4 4 0 100-8 4 4 0 000 8zM418 185a4 4 0 100-8 4 4 0 000 8zM418 201a4 4 0 100-8 4 4 0 000 8zM418 217a4 4 0 100-8 4 4 0 000 8zM418 233a4 4 0 100-8 4 4 0 000 8zM418 249a4 4 0 100-8 4 4 0 000 8zM418 265a4 4 0 100-8 4 4 0 000 8zM418 281a4 4 0 100-8 4 4 0 000 8z" fill="#CCC1FA"/><path d="M469 49h-27a4 4 0 000 8h27a4 4 0 000-8z" fill="#AC9FF0"/><path d="M548 49h-16a4 4 0 000 8h16a4 4 0 000-8z" fill="#99E1FF"/><path d="M520 49h-10a4 4 0 000 8h10a4 4 0 000-8z" fill="#AC9FF0"/><path d="M498 49h-17a4 4 0 000 8h17a4 4 0 000-8z" fill="#DCDCDC"/><path d="M469 81h-27a4 4 0 000 8h27a4 4 0 000-8zM462 113h-20a4 4 0 000 8h20a4 4 0 000-8zM462 241h-20a4 4 0 000 8h20a4 4 0 000-8zM491 241h-17a4 4 0 000 8h17a4 4 0 000-8zM491 161h-1a4 4 0 000 8h1a4 4 0 000-8zM542 160h-4a4 4 0 000 8h4a4 4 0 000-8z" fill="#AC9FF0"/><path d="M565 81h-27a4 4 0 000 8h27a4 4 0 000-8z" fill="#99E1FF"/><path d="M526 81h-10a4 4 0 000 8h10a4 4 0 000-8zM509 115a2 2 0 10-4 0v4a2 2 0 104 0v-4zM531 117a4 4 0 10-8 0 4 4 0 008 0z" fill="#AC9FF0"/><path d="M504 81h-23a4 4 0 000 8h23a4 4 0 000-8zM526 161h-23a4 4 0 000 8h23a4 4 0 000-8z" fill="#DCDCDC"/><path d="M454 133a4 4 0 014-4h23a4 4 0 010 8h-23a4 4 0 01-4-4zM454 197a4 4 0 014-4h26a4 4 0 010 8h-26a4 4 0 01-4-4zM470 149a4 4 0 014-4h13a4 4 0 010 8h-13a4 4 0 01-4-4zM470 181a4 4 0 014-4h16a4 4 0 010 8h-16a4 4 0 01-4-4z" fill="#54C3E7"/><path d="M519 116a3 3 0 10-6 0v2a3 3 0 106 0v-2zM538 114.5a1.5 1.5 0 00-3 0v5a1.5 1.5 0 003 0v-5zM441 210.5a1.5 1.5 0 00-3 0v5a1.5 1.5 0 003 0v-5z" fill="#DCDCDC"/><path d="M497 113h-23a4 4 0 000 8h23a4 4 0 000-8z" fill="#6AC04C"/><path d="M526 241h-23a4 4 0 000 8h23a4 4 0 000-8z" fill="#DCDCDC"/><path d="M469 65h-27a4 4 0 000 8h27a4 4 0 000-8z" fill="#AC9FF0"/><path d="M559 65h-15a4 4 0 000 8h15a4 4 0 000-8z" fill="#99E1FF"/><path d="M532 65h-10a4 4 0 000 8h10a4 4 0 000-8z" fill="#AC9FF0"/><path d="M510 65h-29a4 4 0 000 8h29a4 4 0 000-8z" fill="#DCDCDC"/><path d="M769 100.5c10.77 0 19.5-8.73 19.5-19.5s-8.73-19.5-19.5-19.5-19.5 8.73-19.5 19.5 8.73 19.5 19.5 19.5z" stroke="#AC9FF0"/><path d="M838 51H699a7 7 0 00-7 7v199a7 7 0 007 7h139a7 7 0 007-7V58a7 7 0 00-7-7zM715 130l106.999-.522" stroke="#AC9FF0" stroke-width="2"/><path d="M723 121.48a4 4 0 014-4h83a4 4 0 010 8h-83a4 4 0 01-4-4z" fill="#9082E1"/><path d="M716 158.52l106.999-.522" stroke="#AC9FF0" stroke-width="2"/><path d="M724 150a4 4 0 014-4h83a4 4 0 010 8h-83a4 4 0 01-4-4zM716 183a4 4 0 014-4h51a4 4 0 010 8h-51a4 4 0 01-4-4zM716 195a4 4 0 014-4h9a4 4 0 010 8h-9a4 4 0 01-4-4zM737 195a4 4 0 014-4h4a4 4 0 010 8h-4a4 4 0 01-4-4zM753 195a4 4 0 014-4h4a4 4 0 010 8h-4a4 4 0 01-4-4z" fill="#9082E1"/><path d="M815 181.5h-12a7.5 7.5 0 000 15h12a7.5 7.5 0 000-15z" stroke="#AC9FF0"/><path d="M803 195a6 6 0 100-12 6 6 0 000 12zM818 215h-98a4 4 0 000 8h98a4 4 0 000-8z" fill="#AC9FF0"/><path d="M818 215h-98a4 4 0 000 8h98a4 4 0 000-8z" fill="url(#paint0_linear)"/><path d="M422 22a4 4 0 10-8 0 4 4 0 008 0z" fill="#6A5ACD"/><path d="M445.5 22a3.5 3.5 0 10-7 0 3.5 3.5 0 007 0zM433.5 22a3.5 3.5 0 10-7 0 3.5 3.5 0 007 0z" stroke="#6A5ACD"/><path fill-rule="evenodd" clip-rule="evenodd" d="M224.007 235.087c-3.663-4.294-6.142-9.557-5.728-15.454 1.194-16.991 24.874-13.253 29.48-4.678 4.607 8.576 4.059 30.329-1.894 31.862-2.374.611-7.432-.887-12.579-3.985l3.231 22.83h-19.078l6.568-30.575z" fill="#B28B67"/><path fill-rule="evenodd" clip-rule="evenodd" d="M209.961 213.977c-.616-.61-.952-1.48-1.243-2.307-.302-.859-.595-1.726-.796-2.62-.4-1.786-.404-3.84.871-5.226 1.023-1.112 2.558-1.611 3.975-1.719a7.295 7.295 0 012.817.356c.898.295 1.672.882 2.542 1.247.033-1.924.363-3.938 1.341-5.581.94-1.581 2.44-2.469 4.148-2.703 1.753-.241 3.484.169 5.053 1.016.393.212.782.435 1.155.687.312.21.636.464 1.002.55.408.096.61-.14.875-.437a6.612 6.612 0 011.032-.928c1.639-1.203 3.789-1.698 5.688-.977.875.333 1.725.897 2.319 1.675.529.693.906 1.792 1.637 2.275.309.205.528-.066.81-.267.424-.302.828-.634 1.257-.928a5.784 5.784 0 011.953-.882c1.023-.236 2.436-.181 2.728 1.157.11.502.026 1.04-.009 1.546-.049.695-.1 1.39-.16 2.084a14.977 14.977 0 01-.204 1.554c-.053.276-.219.79-.101 1.066.148.346.832.149 1.123.161.577.024 1.156.125 1.689.371.413.191.847.471 1.022.944.107.291.078.589.028.888-.061.359.009.549.054.911.774-.381 3.457-1.227 3.795.159.112.461-.144.983-.339 1.372-.343.682-.792 1.306-1.251 1.901-.957 1.242-2.1 2.312-3.33 3.228 1.441.64 1.817 2.527.569 3.651-.551.497-1.291.607-1.986.576-.254-.012-.621-.11-.821-.066-.108.024-.223.115-.372.126-.981.067-2.088-.169-3.047-.387-1.708-.387-3.325-1.195-4.645-2.426-.339-.316-.619-.498-1.075-.493-.399.004-.791.113-1.191.123-1.056.027-2.008-.488-2.989-.832-.06 1.324-.437 2.781-.979 3.972-.442.971-1.365 1.112-2.272 1.197-2.901.273-5.811-.032-8.715-.028 2.811.635 5.716.897 8.502 1.643 1.259.338.298 1.186-.241 1.773-.886.968-1.546 2.167-2.003 3.431-1.375-1.791-3.806-2.97-5.959-2.42-2.38.607-4.055 3.821-2.533 6.131.883 1.342 2.478 1.86 3.805 2.436-1.035 1.075-1.286 2.663-1.909 4.001-.307.659-.739 1.405-1.426 1.635-.254.085-.553.093-.753.3-.249.256-.308.543-.625.763-1.267.879-3.245.812-4.368-.336-1.015-1.038-.751-2.68.097-3.733-1.349-.562-3.808-1.284-3.272-3.384-2.924-.194-10.025-4.932-6.1-8.393-2.154-1.216-4.133-4.188-2.749-6.807 1.065-2.017 3.543-2.919 5.576-3.026z" fill="#003993"/><path fill-rule="evenodd" clip-rule="evenodd" d="M182.958 364.907h61.41l8.047 98.451H161l21.958-98.451z" fill="#AC9FF0"/><path fill-rule="evenodd" clip-rule="evenodd" d="M182.958 364.907h18.887l11.304 98.451H161l21.958-98.451z" fill="#000" fill-opacity=".1"/><path fill-rule="evenodd" clip-rule="evenodd" d="M314.381 348.041c6.547-3.927 17.532 1.118 17.525 6.734-.023 16.804-15.376 96-16.178 101.006-.802 5.007-9.389 6.329-9.889.017-.796-10.044-2.274-44.815-.795-60.909a838.13 838.13 0 011.915-18.614c-8.056 14.532-20.516 35.338-37.38 62.418l-9.154-4.177c7.189-23.657 13.083-40.358 17.684-50.104 7.877-16.686 15.264-30.976 18.372-36.009 4.89-7.918 13.402-5.155 17.9-.362z" fill="#B28B67"/><path fill-rule="evenodd" clip-rule="evenodd" d="M261.079 421.378l31.421-74.345c7.527-12.094 28.632 2.461 26.065 9.476-5.828 15.925-35.467 67.48-37.203 72.225l-20.283-7.356z" fill="#070707"/><path fill-rule="evenodd" clip-rule="evenodd" d="M259.337 429.829c-1.958 1.61-3.232 2.925-3.821 3.945-.717 1.24-1.557 3.169-2.519 5.788l38.824 22.385c2.935-2.751 3.393-4.887 1.373-6.406a248.82 248.82 0 01-5.001-3.843l-13.397-18.443a.796.796 0 00-1.111-.176l-.018.013-2.785 2.143c-2.555-.222-4.461-.695-5.719-1.421-1.022-.589-2.195-1.816-3.52-3.679a1.59 1.59 0 00-2.306-.306zM303.828 451.768c-.889 2.371-1.334 4.145-1.334 5.323 0 1.431.239 3.521.717 6.267h44.834c1.165-3.847.492-5.924-2.018-6.23-2.51-.307-4.595-.584-6.256-.831l-20.838-9.279a.795.795 0 00-1.05.402l-.009.02-1.339 3.246c-2.324 1.083-4.212 1.624-5.665 1.624-1.181 0-2.811-.476-4.891-1.428a1.59 1.59 0 00-2.151.886z" fill="#CCC1FA"/><path fill-rule="evenodd" clip-rule="evenodd" d="M334.108 360.487c0 21.094-10.029 70.295-10.036 74.94l-21.578.017c3.158-43.903 4.278-66.091 3.36-66.563-1.378-.71-56.479 5.494-73.005 5.494-23.83 0-33.688-15.009-34.488-42.814h47.207c9.611 1.027 59.747 11.128 78.366 14.6 7.972 1.486 10.174 8.516 10.174 14.326z" fill="#1E1E1E"/><path fill-rule="evenodd" clip-rule="evenodd" d="M252.922 282.098l27.591-15.094c4.588-5.442 9.109-9.669 13.562-12.679 1.361-.568 3.74-.911 1.515 3.034-2.225 3.945-4.388 8.194-3.255 9.41 1.134 1.215 3.961-.483 5.314 1.537.901 1.346-3.928 3.473-14.49 6.38l-20.048 18.334-10.189-10.922zm43.213 12.734l12.119-6.65c1.701-6.463 3.734-9.714 6.099-9.755 1.817-.844-1.347 7.322 2.097 6.614 3.444-.708 11.85-6.953 13.299-5.685 2.143 1.876.232 7.636-2.019 10.501-4.208 5.355-7.692 7.186-16.302 9.584-4.503 1.254-9.37 3.767-14.603 7.539l-.69-12.148z" fill="#997659"/><path fill-rule="evenodd" clip-rule="evenodd" d="M239.485 278.735c9.664-.102 22.551-2.14 36.302-10.858l5.4 12.028c-9.485 9.402-22.821 17.126-34.483 16.799-9.189-.257-13.886-11.36-7.219-17.969z" fill="#0D0D34"/><path fill-rule="evenodd" clip-rule="evenodd" d="M252.498 298.025c10.259 2.556 27.464-.458 51.615-9.041 5.99 12.378 8.759 21.202 8.307 26.473-20.717 10.809-38.474 15.628-53.103 15.946.465 8.67-.591 16.92-4.141 24.458-7.296 15.497-50.022 1.145-64.388 3.97-8.997-29.182 8.398-41.041 8.412-59.713.015-20.448 16.454-51.923 18.872-51.923h22.056c1.217 15.617 7.343 32.827 12.37 49.83z" fill="#003993"/><path fill-rule="evenodd" clip-rule="evenodd" d="M8.418 296.492c-1.864-.923-4.349.148-3.312 2.588 1.11 2.614 5.216 2.646 7.534 2.594-.232-.012-.98-2.409-1.235-2.771-.755-1.068-1.84-1.842-2.987-2.411zm21.476 46.855c.47.402.039.038 0 0zM6.623 308.313c-1.091.832-1.143 2.303-.252 3.298 1.06 1.185 2.998 1.142 4.444 1.026.655-.052 4.147-.331 3.32-.902.063.024.196.082.338.161.077.28.158.558.241.836-.02.012-.038.025-.06.037.024-.011.04-.022.062-.033a31.988 31.988 0 003.601 7.881 7.535 7.535 0 00-1.808-.482c-1.822-.231-5.655 1.184-3.617 3.607 1.954 2.323 4.997-.169 7.215-.513 2.152 2.999 4.524 5.874 7.01 8.652a.595.595 0 00-.363.301c-.997-.505-2.036-1.228-2.96-1.424-1.331-.282-4.062-.453-5.069.738-1.238 1.464.09 2.654 1.552 2.934 2.121.408 4.898-.627 6.939-1.327.233.041.488-.027.64-.213l.134-.044c2.518 2.765 5.132 5.438 7.73 8.053l-.084-.004c-.678-.444-1.405-.809-2.193-.999-1.823-.444-3.967-.446-5.446.871-1.474 1.312-1.996 3.605-.471 5.078 3.05 2.948 7.546-3.774 9.085-4.054 2.64 2.629 5.432 5.086 8.267 7.493a5.012 5.012 0 00-.993-.202c-2.78-.266-9.307 3.138-5.895 6.488 2.974 2.919 6.415-2.699 8.812-4.664 2.672 2.244 5.358 4.472 7.97 6.787-1.425-.378-2.801-.434-4.328.027-1.58.478-4.128 1.669-3.13 3.799 1.016 2.166 4.077 1.181 5.671.493.87-.375 2.613-1.641 4.144-2.175 4.166 3.929 7.775 8.257 10.507 13.355 1.706 3.183 3 6.583 3.912 10.078.581 2.231 1.727 5.978 1.498 8.882 1.093-5.812-.884-12.793-3.014-17.988-1.958-4.777-4.889-8.97-8.321-12.745.861-2.588 8.112-6.32 3.777-8.724-2.302-1.272-4.66.838-5.162 3.072-.346 1.535.18 3.464.74 4.954a70.1 70.1 0 00-3.36-3.341 175.698 175.698 0 00-4.888-4.36c2.724-2.555 5.3-9.86 1.65-11.055-5.392-1.759-2.796 8.205-2.42 10.073a.295.295 0 00.251-.095c-.03.171-.065.354-.108.538-3.163-2.716-6.373-5.379-9.477-8.161.28-.206.724-.995 1.074-1.415.789-.947 1.543-1.935 2.095-3.043.87-1.75 1.71-4.541-.599-5.57-2.51-1.122-3.704 2.035-3.721 3.919-.012 1.302.343 2.539.528 3.816.058.398-.165 2.193.378 1.421-.025.285-.03.491-.017.637-.557-.502-1.11-1.009-1.66-1.52a.679.679 0 00.05-.217c.029-.561-.537-.777-.934-.613a99.132 99.132 0 01-2.148-2.096 305.008 305.008 0 01-4.516-4.636c.326-.28.196-.668.502-.966.305-.297.906-.461 1.264-.737.903-.694 1.65-1.705 2.192-2.7.893-1.645 2.047-5.094-.562-5.878-2.69-.809-4.055 2.511-4.228 4.588-.033.402.268 4.026.499 5.342-2.786-2.94-5.527-5.99-8.01-9.092.753-.007 2.887-1.548 3.319-1.968 1.053-1.025 2.726-3.291.88-4.49-1.64-1.063-3.663.477-4.365 1.974-.115.246-.522 2.54-.554 3.569a80.24 80.24 0 01-2.92-3.967 39.165 39.165 0 01-1.708-2.714c.128-.072.249-.199.362-.356 2.737-.464 6.227-4.729 3.012-6.213-1.53-.706-3.19.751-3.94 1.943-.154.244-.403 1.471-.605 2.439-1.53-3.066-2.7-6.311-3.589-9.639a.597.597 0 00.467-.554c1.328-.756 2.378-1.386 3.305-2.841.577-.904 1.614-2.969-.079-3.47-2.203-.653-3.588 2.709-3.768 4.364-.02.193-.02.752-.013 1.264a.737.737 0 00-.23.004 71.983 71.983 0 01-1.23-6.238c1.202-.387 1.41-6.696.61-7.594-1.79-2.011-3.054.894-2.958 2.43.113 1.811.934 3.458 1.912 4.92.105.154.075.147.103-.069.015.107.05.186.103.243-.05.953-.149 1.928-.101 2.772.135 2.415.417 4.845.826 7.229.1.58.213 1.155.341 1.725-.967-.823-2.27-1.553-2.78-1.782-1.324-.593-3.364-1.232-4.678-.228zM73.2 392.16c-.062.842-.214 1.613-.498 2.249.213-.724.377-1.476.498-2.249z" fill="#C4C4C4"/><g opacity=".7" fill-rule="evenodd" clip-rule="evenodd"><path opacity=".7" d="M44.676 353.539c5.177-.268 11.579 2.75 12.131 8.37.401 4.084.277 8.156.898 12.234.497 3.258 1.547 6.387 2.979 9.355 1.377 2.855 4.233 5.285 4.976 8.334.474 1.943.209 4.677-.444 6.577-.795 2.311-.373 2.128 1.21 4.067 3.1 3.8 5.893 7.697 7.867 12.235 2.844 6.537 4.709 14.178 3.653 21.333-.134.909-.293 4.17-1.546 4.398-1.4.255-.745-1.61-.67-2.213.476-3.843.899-7.203.324-11.107-2.215-15.062-13.034-24.986-20.078-37.77-.387-.659-1.205-2.229-1.773-3.265-.898-1.635-1.8-4.746-3.015-5.958-2.287-2.284-.184 2.307.262 3.184.563 1.109 1.184 2.287 1.761 3.259 2.643 4.504 5.593 9.42 8.323 14.062-11.806 2.687-20.12-11.489-23.287-20.808-2.61-7.678-5.733-25.63 6.429-26.287z" fill="#076A54"/><path opacity=".7" d="M114.06 339.281c-8.654.685-14.21 6.389-16.796 14.366-1.394 4.299-1.554 8.716-2.328 13.134-1.166 6.647-3.673 11.684-8.572 16.42-1.518 1.466-2.636 2.972-3.431 4.583-1.578 1.609-2.952 3.429-3.961 5.654-1.29 2.842-1.654 6.252-.166 9.086.4.761 1.399 2.29 2.434 2.985-3.875 8.241-6.005 17.267-5.765 26.281.146 5.442.411 10.885.722 16.32.083 1.46.559 3.869 1.274 1.422.654-2.239-.166-5.753-.242-8.091-.37-11.393-.685-21.751 4.01-32.395a82.901 82.901 0 011.558-3.32c.032-.019.062-.041.091-.063.021.016.04.034.06.049a3.55 3.55 0 01.139-.218 2.9 2.9 0 00.421-.59c.417-.576.888-1.254.89-1.624l-.001-.011c2.906-4.739 6.236-9.217 9.636-13.607-.025.032 3.689-5.019 3.115-2.226-.277 1.346-3.01 3.91-4.112 5.336-2.441 3.172-5.307 7.191-7.69 11.077-.32.184-.773 1.088-1.1 1.76-.18.341-.35.685-.515.984 8.439 2.785 15.004-2.825 19.481-9.35l.015-.023c1.362-1.803 2.758-3.593 4.501-5.018 2.908-2.378 6.023-2.798 9.453-3.968 9.352-3.192 13.328-15.297 14.591-24.28 1.424-10.134-5.545-25.673-17.712-24.673z" fill="#076A54"/><path opacity=".7" d="M96.965 310.902c-8.882 9.233-13.173 22.039-16.57 34.079-3.795 13.446-6.302 27.1-6.398 41.08-.063 9.186-.313 18.428.224 27.602.19 3.259.515 6.523 1.032 9.746.043.265 1.2 7.462 2.306 5.785.63-.954-1.185-7.466-1.322-8.551-.772-6.109-.951-12.263-.914-18.416.062-10.131-.237-20.211.791-30.305.153-1.507.275-3.09.633-4.564.38-1.567-.104-.883 1.135-1.504 1.205-.603 2.693-.517 3.943-1.273 4.957-3.003 7.492-10.714 9.466-15.774 2.257-5.786 3.63-11.956 4.725-18.045.804-4.474 1.38-8.92 1.705-13.452.103-1.428.109-2.921.39-4.326.076-.379.455-1.049.442-1.384-.03-.71-.459-1.128-.494-1.724-.371.334-.736.676-1.094 1.026z" fill="#076A54"/><path opacity=".7" d="M48.535 433.917c0 15.269 12.393 27.647 27.68 27.647 15.288 0 27.681-12.378 27.681-27.647" fill="#A1A2A3"/><path opacity=".7" d="M78.436 434.005h-1.462c.101-1.833.235-3.663.542-5.475 1.173-6.932 4.842-17.113 12.888-18.238.297-.042 1.39-.049 2.712.028a4.896 4.896 0 012.069-.61c6.85-.504 14.501 5.016 17.806 10.761 2.663 4.631 2.215 10.713.569 15.634-1.102 3.294-3.506 7.991-7.517 8.037-5.017.057-5.259-6.136-5.356-9.757-.129-4.814-.738-9.008-4.535-12.289-.886-.764-1.853-1.437-2.747-2.19-1.4-1.18-2.947-2.388-3.127-4.34-.25-2.693 1.272-3.178 3.596-2.677.396.085 4.386 1.873 3.796.46-.18-.432-.84-.774-1.671-1.031-2.152-.233-4.718-.505-5.456-.343-7.96 1.745-11.06 12.759-11.883 19.757a65.95 65.95 0 00-.224 2.273z" fill="#076A54"/></g><path d="M446 253h-84a8 8 0 00-8 8v54a8 8 0 008 8h84a8 8 0 008-8v-54a8 8 0 00-8-8z" fill="#171162"/><path d="M396.458 299.883L384 288l12.458-11.883-3.791-3.617-16.25 15.5 16.25 15.5 3.791-3.617zm14.084 0L423 288l-12.458-11.883 3.791-3.617 16.25 15.5-16.25 15.5-3.791-3.617z" fill="#9082E1"/><path d="M672.927 283.5h-64.67a7.5 7.5 0 00-7.5 7.5v39.108a7.5 7.5 0 007.5 7.5h64.67a7.5 7.5 0 007.5-7.5V291a7.5 7.5 0 00-7.5-7.5z" fill="#fff" stroke="#6A5ACD"/><path d="M670.42 286.005h-59.655a7.5 7.5 0 00-7.5 7.5v34.098a7.5 7.5 0 007.5 7.5h59.655a7.5 7.5 0 007.5-7.5v-34.098a7.5 7.5 0 00-7.5-7.5z" stroke="#6A5ACD"/><path d="M684.588 337.773a6.18 6.18 0 01-6.16 5.679h-75.671a6.18 6.18 0 01-6.159-5.679h87.99z" fill="#fff" stroke="#6A5ACD"/><path d="M650.27 337.814a2.005 2.005 0 01-1.942 1.504h-15.471c-.935 0-1.72-.639-1.942-1.504h19.355zM669.404 290.18h-57.623a3.5 3.5 0 00-3.5 3.5v33.748a3.5 3.5 0 003.5 3.5h57.623a3.5 3.5 0 003.5-3.5V293.68a3.5 3.5 0 00-3.5-3.5z" stroke="#6A5ACD"/><path d="M610.916 292.602a.627.627 0 10.001-1.253.627.627 0 00-.001 1.253zM615.096 292.602a.627.627 0 10.001-1.253.627.627 0 00-.001 1.253zM613.006 292.602a.627.627 0 10.001-1.253.627.627 0 00-.001 1.253z" fill="#6A5ACD"/><path d="M608.408 293.437h64.369M619.276 291.976h46.814M620.262 299.364h-1.555a7.5 7.5 0 00-7.5 7.5v2.369a7.5 7.5 0 007.5 7.5h1.555a7.5 7.5 0 007.5-7.5v-2.369a7.5 7.5 0 00-7.5-7.5zM610.707 320.365h17.555m-17.555 1.669h17.555-17.555zm0-3.339h17.555-17.555zM641.579 299.364h-1.555a7.5 7.5 0 00-7.5 7.5v2.369a7.5 7.5 0 007.5 7.5h1.555a7.5 7.5 0 007.5-7.5v-2.369a7.5 7.5 0 00-7.5-7.5zM632.024 320.365h17.555m-17.555 1.669h17.555-17.555zm0-3.339h17.555-17.555zM662.478 299.364h-1.555a7.5 7.5 0 00-7.5 7.5v2.369a7.5 7.5 0 007.5 7.5h1.555a7.5 7.5 0 007.5-7.5v-2.369a7.5 7.5 0 00-7.5-7.5zM652.923 320.365h17.556m-17.556 1.669h17.556-17.556zm0-3.339h17.556-17.556z" stroke="#6A5ACD"/><path fill-rule="evenodd" clip-rule="evenodd" d="M590.843 344.135h99.499c7.646 0 13.844 6.88 13.844 15.367v88.36c0 8.487-6.198 15.367-13.844 15.367h-99.499c-7.645 0-13.843-6.88-13.843-15.367v-88.36c0-8.487 6.198-15.367 13.843-15.367zm13.844 26.892c-1.912 0-3.461 1.72-3.461 3.842v57.626c0 2.122 1.549 3.842 3.461 3.842h71.812c1.911 0 3.461-1.72 3.461-3.842v-57.626c0-2.122-1.55-3.842-3.461-3.842h-71.812z" fill="#382D93"/><path fill-rule="evenodd" clip-rule="evenodd" d="M838.328 262.062l-28.815 106.233-21.018 78.297-15.741.145 21.605-184.269 43.969-.406z" fill="#191847"/><path fill-rule="evenodd" clip-rule="evenodd" d="M846.175 262.025c1.078 54.601 3.625 84.364 4.379 89.319.754 4.955 11.839 36.417 33.256 94.386l-16.3.151c-27.133-55.551-42.283-86.976-45.448-94.274-3.166-7.298-12.987-36.994-27.834-89.103l51.947-.479z" fill="#2F3676"/><path fill-rule="evenodd" clip-rule="evenodd" d="M885.381 460.731l-.935-17.433-17.108.167c-8.072 5.892-18.631 10.702-31.675 14.428l.022 3.322 30.958-.301 10.579-1.765.012 1.661 8.147-.079zM790.908 461.527l-.935-17.433-17.108.167c-8.072 5.893-18.63 10.702-31.675 14.428l.023 3.322 30.957-.301 10.58-1.764.011 1.661 8.147-.08z" fill="#191847"/><path fill-rule="evenodd" clip-rule="evenodd" d="M826.008 141.291c4.152-4.771 7.057-10.667 6.846-17.354-.608-19.267-26.477-15.626-31.827-6.032-5.35 9.594-5.636 34.236.767 36.12 2.554.751 8.107-.818 13.823-4.198l-4.433 25.769 20.719.476-5.895-34.781z" fill="#FFDBB4"/><path d="M826.524 107.849c-6.595-5.421-27.513-2.664-26.338-6.248 1.176-3.585-5.508 4.672-4.892 8.171.615 3.5 4.014 5.103 4.014 5.103l9.015.454.977 3.924 5.258 3.72-.573 9.29 3.438.278.64-7.088s3.574-1.761 5.23 2.839c1.405 3.903-1.081 6.668-1.081 6.668l4.469 5.963s5.639-3.025 7.38-10.936c1.442-6.555-.941-16.717-7.537-22.138z" fill="#16012C" stroke="#16012C"/><path fill-rule="evenodd" clip-rule="evenodd" d="M769.378 246.291l-26.976 22.402c-7.476 2.556-13.683 5.527-18.623 8.913-1.15 1.175-2.5 3.49 2.457 2.771 4.957-.719 10.198-1.252 10.961.401.763 1.653-2.155 3.888-.664 6.087.994 1.466 5.191-2.661 12.59-12.381l27.113-13.339-6.858-14.854zm107.164-6.519l-18.276 1.305c12.935 35.729 19.903 54.679 20.903 56.851 2.251 4.887-1.686 12.827-3.332 17.062 6.086 2.271 5.003-7.587 12.687-4.588 7.014 2.737 12.501 8.183 20.216 2.744.949-.669 1.915-3.011-.748-4.611-6.636-3.985-16.26-11.095-17.629-13.557-1.865-3.356-6.472-21.759-13.821-55.206z" fill="#FFDBB4"/><path fill-rule="evenodd" clip-rule="evenodd" d="M820.794 163.845l-7.661-.801c-27.1 26.574-36.564 74.719-70.012 102.163l8.788 9.868c59.638-11.604 71.917-70.38 68.885-111.23z" fill="#6A5ACD"/><path fill-rule="evenodd" clip-rule="evenodd" d="M858.01 258.634l-67.573 4.589c-3.088.21-2.708-4.322-2.364-6.619 3.976-26.514 22.818-56.083 21.145-93.327l19.353-4.403c17.296 25.031 24.316 56.82 29.439 99.76z" fill="#CCC1FA"/><path fill-rule="evenodd" clip-rule="evenodd" d="M853.889 183.256c2.802-1.013 4.964-3.081 6.486-6.202 6.56-13.454 3.659-20.419-4.081-22.249-7.74-1.83-14.331 3.467-26.495 4.292-.662.044-1.266.127-1.813.248l-6.102.766c-14.863 61.053-17.908 101.32-9.135 120.803l53.333-3.616c3.494 7.199 6.798 13.231 9.914 18.097l14.532-.985c-.634-44.587-12.847-81.638-36.639-111.154z" fill="#6A5ACD"/><path fill-rule="evenodd" clip-rule="evenodd" d="M853.325 247.657c-1.04 14.222-3.301 24.647-6.782 31.273l19.756-1.341c-4.068-8.391-8.392-18.368-12.974-29.932z" fill="#000" fill-opacity=".1"/><defs><linearGradient id="paint0_linear" x1="769" y1="215" x2="769" y2="223" gradientUnits="userSpaceOnUse"><stop stop-color="#6A5ACD"/><stop offset="1" stop-color="#fff" stop-opacity="0"/></linearGradient><filter id="filter0_d" x="398" y="10" width="506" height="296" filterUnits="userSpaceOnUse" color-interpolation-filters="sRGB"><feFlood flood-opacity="0" result="BackgroundImageFix"/><feColorMatrix in="SourceAlpha" values="0 0 0 0 0 0 0 0 0 0 0 0 0 0 0 0 0 0 127 0"/><feOffset dx="8" dy="8"/><feGaussianBlur stdDeviation="2"/><feColorMatrix values="0 0 0 0 0 0 0 0 0 0 0 0 0 0 0 0 0 0 0.1 0"/><feBlend in2="BackgroundImageFix" result="effect1_dropShadow"/><feBlend in="SourceGraphic" in2="effect1_dropShadow" result="shape"/></filter></defs></svg>