<svg width="220" height="246" viewBox="0 0 220 246" fill="none" xmlns="http://www.w3.org/2000/svg">
<circle cx="110" cy="134" r="110" fill="#6A5ACD"/>
<rect x="94" y="174" width="36" height="41" fill="#FFDBB4"/>
<path d="M130 183.5C124.167 185.167 108.8 187.6 94 184V189.5C94 189.5 104.971 192 112 192C119.029 192 130 189.5 130 189.5V183.5Z" fill="#FFCB94"/>
<path d="M130 194.338C130 214.089 94 213.452 94 194.338C94 175.225 94 215.363 94 215.363L130 216V194.338Z" fill="#C4C4C4"/>
<path d="M177 110.593C177 143.248 147.675 187.456 111.5 187.456C75.3253 187.456 46 143.248 46 110.593C46 77.9394 50.3993 31.4564 111.5 31.4564C172.601 31.4564 177 77.9394 177 110.593Z" fill="#FFDBB4"/>
<ellipse cx="111.884" cy="152.03" rx="13.9535" ry="13.4259" fill="#393939"/>
<path d="M120.666 162.456C120 162.956 119.911 162.756 120 162.956C120.089 163.156 116 165.456 112 165.456C108 165.456 107.198 164.898 104.5 163.456L103.094 162.456C103.094 162.456 107.134 159.382 109.5 159.956C110.83 160.28 112 161.456 112 161.456C112 161.456 113.712 159.957 115 159.956C117.717 159.954 120.894 162.285 120.666 162.456Z" fill="#FF4F6D"/>
<path d="M124 152.456H100C100 152.456 100.419 153.337 101 153.812C103.375 155.752 112 155.438 112 155.438C112 155.438 120.625 155.752 123 153.812C123.581 153.337 124 152.456 124 152.456Z" fill="#F4F4F4"/>
<rect x="89" y="136.456" width="48" height="16.1111" fill="#FFDBB4"/>
<ellipse cx="82.5" cy="111.956" rx="16.2037" ry="12.5" fill="#5F5E5E"/>
<ellipse cx="82.5" cy="114.456" rx="17.5" ry="12" fill="#FFDBB4"/>
<ellipse cx="141.5" cy="111.956" rx="16.2037" ry="12.5" fill="#5F5E5E"/>
<ellipse cx="141.5" cy="114.456" rx="17.5" ry="12" fill="#FFDBB4"/>
<path d="M96.6983 81.9503C84.8364 79.5733 69.224 84.1926 66.5305 85.0334C63.837 85.8743 65.2639 83.9483 66.5305 82.7912C69.4683 80.1072 74.1094 78.0655 80 77.6824C85.8906 77.2993 93.3872 77.0634 95.6226 79.9247C96.494 81.0401 96.6983 81.9503 96.6983 81.9503Z" fill="#242121" stroke="#242121"/>
<path d="M126 81.9503C137.862 79.5733 153.474 84.1926 156.168 85.0334C158.861 85.8743 157.434 83.9483 156.168 82.7912C153.23 80.1072 148.589 78.0655 142.698 77.6824C136.808 77.2993 129.311 77.0634 127.076 79.9247C126.204 81.0401 126 81.9503 126 81.9503Z" fill="#242121" stroke="#242121"/>
<path d="M138.912 83.0908C138.912 83.0908 153.498 81.4152 147.487 89.4203C141.476 97.4255 129.022 115.313 124.593 121.823C120.165 128.332 116.018 115.493 116.018 115.493L138.912 83.0908Z" fill="white" fill-opacity="0.5"/>
<rect width="11.6569" height="48.1415" transform="matrix(0.804556 0.593877 -0.577049 0.816709 153.409 86.2216)" fill="white" fill-opacity="0.5"/>
<circle cx="140.5" cy="110.956" r="26" stroke="#FFCB94" stroke-width="3"/>
<path d="M167.5 107.956C167.5 122.29 155.661 133.956 141 133.956C126.339 133.956 114.5 122.29 114.5 107.956C114.5 93.6224 126.339 81.9564 141 81.9564C155.661 81.9564 167.5 93.6224 167.5 107.956Z" stroke="#E6BC53" stroke-width="3"/>
<path d="M167.5 107.956C167.5 122.29 155.661 133.956 141 133.956C126.339 133.956 114.5 122.29 114.5 107.956C114.5 93.6224 126.339 81.9564 141 81.9564C155.661 81.9564 167.5 93.6224 167.5 107.956Z" stroke="url(#paint0_linear)" stroke-width="3"/>
<path d="M165.659 108.225C165.659 121.896 154.586 132.976 140.93 132.976C127.273 132.976 116.2 121.896 116.2 108.225C116.2 94.554 127.273 83.4737 140.93 83.4737C154.586 83.4737 165.659 94.554 165.659 108.225Z" stroke="black" stroke-width="3"/>
<path d="M79.912 83.0908C79.912 83.0908 94.4979 81.4152 88.487 89.4203C82.476 97.4255 70.0217 115.313 65.5931 121.823C61.1645 128.332 57.0181 115.493 57.0181 115.493L79.912 83.0908Z" fill="white" fill-opacity="0.5"/>
<rect width="11.6569" height="48.1415" transform="matrix(0.804556 0.593877 -0.577049 0.816709 94.4091 86.2216)" fill="white" fill-opacity="0.5"/>
<circle cx="82.5" cy="110.956" r="26" stroke="#FFCB94" stroke-width="3"/>
<path d="M108.5 107.956C108.5 122.29 96.6611 133.956 82 133.956C67.3389 133.956 55.5 122.29 55.5 107.956C55.5 93.6224 67.3389 81.9564 82 81.9564C96.6611 81.9564 108.5 93.6224 108.5 107.956Z" stroke="#E6BC53" stroke-width="3"/>
<path d="M108.5 107.956C108.5 122.29 96.6611 133.956 82 133.956C67.3389 133.956 55.5 122.29 55.5 107.956C55.5 93.6224 67.3389 81.9564 82 81.9564C96.6611 81.9564 108.5 93.6224 108.5 107.956Z" stroke="url(#paint1_linear)" stroke-width="3"/>
<path d="M106.659 108.225C106.659 121.896 95.5863 132.976 81.9296 132.976C68.273 132.976 57.2 121.896 57.2 108.225C57.2 94.554 68.273 83.4737 81.9296 83.4737C95.5863 83.4737 106.659 94.554 106.659 108.225Z" stroke="black" stroke-width="3"/>
<rect x="106" y="103.456" width="9" height="5" fill="black"/>
<ellipse cx="41.5428" cy="111.956" rx="6.54276" ry="14.5" fill="#FFDBB4"/>
<ellipse cx="181.457" cy="111.956" rx="6.54276" ry="14.5" fill="#FFDBB4"/>
<ellipse cx="112" cy="137.956" rx="9" ry="4.5" fill="#FFCB94"/>
<rect x="103" y="132.456" width="18" height="5" fill="#FFDBB4"/>
<path d="M56 38.9565C46.5 49.4565 46.1 58.4564 42.5 96.4564V97.4564C42.5 97.4564 45.5 95.9564 47 109.456C48.5 122.956 49.3626 87.7514 54.5 74.9564C57.3635 67.8248 60 71.9565 67 59.4565C74 46.9565 70.4932 47.7074 73 44.4565C80.3254 34.9565 94.6454 44.4565 113 44.4565C127.449 44.4565 148.153 33.9756 154.5 46.9565C156.418 50.8789 158.725 59.2166 161 63.9565C164.235 70.6965 170.5 74.4564 170.5 74.4564L177 101.456C177 101.456 174 133.456 181 97.4564C188 61.4564 177.5 42.4565 177.5 42.4565C177.5 42.4565 175 34.4565 152.75 22.9565C146.318 19.6318 129.5 3.45643 136 12.7981C142.5 22.1399 113 -6.54358 119.5 2.95644C126 12.4565 102 -3.54355 106.5 2.95643C111 9.4564 95.3744 14.3883 91 16.4564C83.9721 19.7791 73 24.9565 73 24.9565C73 24.9565 66.8785 28.1565 63.5 30.9565C60.2028 33.6891 56 38.9565 56 38.9565Z" fill="#242121" stroke="#242121"/>
<path d="M99.5 202C99.5 202 69.8361 206.449 60 216C50.0371 225.674 46 245.5 46 245.5L177 245.5C177 245.5 174.585 225.62 163.5 216C153.013 206.899 124.5 201.5 124.5 201.5C116 199 113.839 206.722 112 215.5C108.841 205.023 107 199 99.5 202Z" fill="#CD9B5A"/>
<g style="mix-blend-mode:darken">
<path fill-rule="evenodd" clip-rule="evenodd" d="M165 217.419C164.519 216.927 164.019 216.454 163.5 216.004C161.095 213.916 157.741 212.023 154 210.346V245.504H165V217.419ZM130 202.693C133.196 203.44 137.478 204.527 142 205.924V245.504H130V202.693ZM118 202C114.625 204.15 113.239 209.587 112 215.504C110.046 209.023 108.597 204.247 106 202.256V245.504H118V202ZM82 205.814C86.5194 204.557 90.8024 203.618 94 202.987V245.504H82V205.814ZM70 209.924C65.9672 211.654 62.3956 213.678 60 216.004C59.3047 216.679 58.6382 217.404 58 218.167V245.504H70V209.924Z" fill="#876E4A"/>
</g>
<g style="mix-blend-mode:screen">
<path fill-rule="evenodd" clip-rule="evenodd" d="M49.2581 234.993C48.1877 238.077 47.1188 241.554 46 245.5H177C176.263 241.629 175.444 238.141 174.5 234.993H49.2581ZM53.9915 223.997H169.887C167.133 219.317 163.625 215.775 159 213H64.0222C59.8506 215.752 56.7199 219.108 53.9915 223.997Z" fill="#876E4A"/>
</g>
<path d="M112 215.5C112 215.5 110.4 206.638 106.5 203C105.563 202.126 103.9 201 103.9 201L93.5 221C93.5 221 85.5 207 86 205.5C86.2412 204.777 88.7494 203.843 90.5 201C92.379 197.948 93 194 93.5 193C94 192 103.9 201 103.9 201C103.9 201 105.563 202.126 106.5 203C110.4 206.638 112 215.5 112 215.5C112 215.5 113.136 206.565 117 203C117.964 202.11 119.7 201 119.7 201C119.7 201 129 192.8 130.5 192.5C132 192.2 132.061 197.288 134 200.5C135.687 203.296 137.767 205.035 138 205.5C138.5 206.5 130.5 221 130.5 221L119.7 201C119.7 201 117.964 202.11 117 203C113.136 206.565 112 215.5 112 215.5Z" fill="#CD9B5A"/>
<path d="M119.7 201C119.7 201 117.964 202.11 117 203C113.136 206.565 112 215.5 112 215.5C112 215.5 110.4 206.638 106.5 203C105.563 202.126 103.9 201 103.9 201M119.7 201C119.7 201 129 192.8 130.5 192.5C132 192.2 132.061 197.288 134 200.5C135.687 203.296 137.767 205.035 138 205.5C138.5 206.5 130.5 221 130.5 221L119.7 201ZM103.9 201C103.9 201 94 192 93.5 193C93 194 92.379 197.948 90.5 201C88.7494 203.843 86.2412 204.777 86 205.5C85.5 207 93.5 221 93.5 221L103.9 201Z" stroke="#C8985B" stroke-width="0.5"/>
<path d="M90.5 200L93.5 204.5L99 196L96.5 194C96.5 194 95 192.5 93.5 192.5C92.382 192.5 91.75 196 91.75 196L90.5 200Z" fill="#876E4A"/>
<path d="M93.5 222L98.5 212.5L94 203L88.5 213L93.5 222Z" fill="#876E4A"/>
<path d="M98.5 212.5L104.5 201L101.5 198.25L99 196L93.25 204.25L98.5 212.5Z" fill="#594529"/>
<path d="M133.875 199.627L130.688 204.203L124.844 195.559L127.5 193.525C127.5 193.525 129.094 192 130.688 192C131.875 192 132.547 195.559 132.547 195.559L133.875 199.627Z" fill="#876E4A"/>
<path d="M130.688 222L125.375 212.339L130.156 202.678L135 213.5L133.094 217.25L130.688 222Z" fill="#876E4A"/>
<path d="M125.375 212.339L119 200.644L122.188 197.847L124.844 195.559L130.953 203.949L125.375 212.339Z" fill="#594529"/>
<circle cx="115" cy="220" r="1" fill="#313131"/>
<circle cx="115" cy="238" r="1" fill="#313131"/>
<path d="M112 215V245.5" stroke="#594529" stroke-width="0.5"/>
<path d="M104.5 143C95 147.5 88 147 88 147C98 154.5 102.5 152.5 112 151C123 153.5 130 152 136 147.5C136 147.5 125 146 119.5 143C117.213 141.753 112 144.5 112 144.5C112 144.5 106.683 141.966 104.5 143Z" fill="#242121"/>
<path d="M112 176C107.5 176 98.7963 184.523 85 179.5C106.348 193.104 118.071 193.272 138.5 179.5C124.526 184.377 116.5 176 112 176Z" fill="#242121"/>
<path d="M114.9 167C112.603 167.336 110.895 167.381 108.5 167L108 173C111.076 174.536 112.327 174.529 115.5 173L114.9 167Z" fill="#242121"/>
<defs>
<linearGradient id="paint0_linear_profile" x1="141" y1="80.4564" x2="141" y2="135.456" gradientUnits="userSpaceOnUse">
<stop stop-color="#AA8A37"/>
<stop offset="1" stop-color="white" stop-opacity="0"/>
</linearGradient>
<linearGradient id="paint1_linear_profile" x1="82" y1="80.4564" x2="82" y2="135.456" gradientUnits="userSpaceOnUse">
<stop stop-color="#AA8A37"/>
<stop offset="1" stop-color="white" stop-opacity="0"/>
</linearGradient>
</defs>
</svg>
