<svg width="443" height="201" viewBox="0 0 443 201" fill="none" xmlns="http://www.w3.org/2000/svg">
<path fill-rule="evenodd" clip-rule="evenodd" d="M352.63 3H138.823C136.062 3 133.823 5.23857 133.823 7.99998V94.3939C134.218 94.4589 134.603 94.5528 134.977 94.6734V13.1164C134.977 8.69808 138.558 5.11636 142.977 5.11636H348.477C352.895 5.11636 356.477 8.69809 356.477 13.1164V133.756H357.63V8C357.63 5.23858 355.391 3 352.63 3ZM360.63 133.756V8C360.63 3.58172 357.048 0 352.63 0H138.823C134.405 0 130.823 3.58171 130.823 7.99998V94.2873H14.9219C10.5036 94.2873 6.92188 97.869 6.92188 102.287V182.767C6.92188 185.468 8.26058 187.857 10.3107 189.305H3H0V192.305V193C0 197.418 3.58171 201 7.99999 201H139.436C143.854 201 147.436 197.418 147.436 193V192.305V189.305H144.436H137.125C139.175 187.857 140.514 185.468 140.514 182.767V160.069H228.642L222.838 187.036L222.664 187.844H219.809C215.391 187.844 211.809 191.425 211.809 195.844V198V201H214.809H276.644H279.644V198V195.844C279.644 191.425 276.062 187.844 271.644 187.844H268.789L268.615 187.036L262.811 160.069H346.786V193C346.786 197.418 350.368 201 354.786 201H374.087C378.506 201 382.087 197.418 382.087 193V141.756C382.087 137.338 378.506 133.756 374.087 133.756H360.63ZM346.786 157.069V154.953H142.977C142.117 154.953 141.29 154.817 140.514 154.567V157.069H346.786ZM346.786 151.953V141.756C346.786 137.784 349.681 134.488 353.477 133.863V13.1164C353.477 10.3549 351.238 8.11636 348.477 8.11636H142.977C140.215 8.11636 137.977 10.3549 137.977 13.1164V96.4425C139.538 97.9025 140.514 99.9809 140.514 102.287V151.305C141.241 151.717 142.081 151.953 142.977 151.953H346.786ZM58.1282 192.305H89.3078C88.7475 193.402 87.607 194.153 86.2911 194.153H61.1448C59.8289 194.153 58.6884 193.402 58.1282 192.305ZM57.0367 192.305C57.6598 193.969 59.264 195.153 61.1448 195.153H86.2911C88.1719 195.153 89.7762 193.969 90.3992 192.305H144.436V193C144.436 195.761 142.197 198 139.436 198H7.99999C5.23857 198 3 195.761 3 193V192.305H57.0367ZM271.644 190.844H219.809C217.048 190.844 214.809 193.082 214.809 195.844V198H276.644V195.844C276.644 193.082 274.405 190.844 271.644 190.844ZM225.907 187.036L231.537 160.876H259.916L265.547 187.036H225.907ZM152.667 21.2727H291.025C293.41 21.2727 295.406 22.9432 295.905 25.1782H147.787C148.286 22.9432 150.282 21.2727 152.667 21.2727ZM296.025 43.0861V28.1782H179.238V138.796H291.025C293.786 138.796 296.025 136.558 296.025 133.796V125.754C294.464 124.294 293.488 122.215 293.488 119.909V48.9309C293.488 46.6245 294.464 44.5461 296.025 43.0861ZM299.025 41.3171V26.2727C299.025 21.8544 295.443 18.2727 291.025 18.2727H152.667C148.249 18.2727 144.667 21.8544 144.667 26.2727V133.796C144.667 138.215 148.249 141.796 152.667 141.796H291.025C295.443 141.796 299.025 138.215 299.025 133.796V127.523C299.801 127.774 300.628 127.909 301.488 127.909H338.786C343.204 127.909 346.786 124.327 346.786 119.909V48.9309C346.786 44.5126 343.204 40.9309 338.786 40.9309H301.488C300.628 40.9309 299.801 41.0664 299.025 41.3171ZM177.238 138.796V28.1782H147.667V133.796C147.667 136.558 149.906 138.796 152.667 138.796H177.238ZM151.243 24.12C151.816 24.12 152.281 23.6291 152.281 23.0236C152.281 22.4181 151.816 21.9273 151.243 21.9273C150.67 21.9273 150.205 22.4181 150.205 23.0236C150.205 23.6291 150.67 24.12 151.243 24.12ZM159.203 23.0236C159.203 23.6291 158.738 24.12 158.165 24.12C157.591 24.12 157.127 23.6291 157.127 23.0236C157.127 22.4181 157.591 21.9273 158.165 21.9273C158.738 21.9273 159.203 22.4181 159.203 23.0236ZM154.704 24.12C155.277 24.12 155.742 23.6291 155.742 23.0236C155.742 22.4181 155.277 21.9273 154.704 21.9273C154.13 21.9273 153.666 22.4181 153.666 23.0236C153.666 23.6291 154.13 24.12 154.704 24.12ZM228.076 33.16H184.814V31.16H228.076V33.16ZM184.814 41.9309H236.036V39.9309H184.814V41.9309ZM223.577 116.484H184.814V114.484H223.577V116.484ZM184.814 37.5455H221.5V35.5455H184.814V37.5455ZM210.425 58.0109H184.814V56.0109H210.425V58.0109ZM195.197 71.1673H220.808V69.1673H195.197V71.1673ZM215.27 75.5527H195.197V73.5527H215.27V75.5527ZM195.197 84.3236H218.731V82.3236H195.197V84.3236ZM211.809 79.9382H195.197V77.9382H211.809V79.9382ZM191.736 66.7818H209.041V64.7818H191.736V66.7818ZM209.041 88.7091H191.736V86.7091H209.041V88.7091ZM188.275 62.3964H194.505V60.3964H188.275V62.3964ZM194.505 93.0945H188.275V91.0945H194.505V93.0945ZM184.814 97.48H186.891V95.48H184.814V97.48ZM301.102 45.6818C301.102 46.2873 300.637 46.7782 300.063 46.7782C299.49 46.7782 299.025 46.2873 299.025 45.6818C299.025 45.0763 299.49 44.5855 300.063 44.5855C300.637 44.5855 301.102 45.0763 301.102 45.6818ZM306.985 46.7782C307.559 46.7782 308.023 46.2873 308.023 45.6818C308.023 45.0763 307.559 44.5855 306.985 44.5855C306.412 44.5855 305.947 45.0763 305.947 45.6818C305.947 46.2873 306.412 46.7782 306.985 46.7782ZM304.562 45.6818C304.562 46.2873 304.098 46.7782 303.524 46.7782C302.951 46.7782 302.486 46.2873 302.486 45.6818C302.486 45.0763 302.951 44.5855 303.524 44.5855C304.098 44.5855 304.562 45.0763 304.562 45.6818ZM301.488 43.9309H338.786C341.171 43.9309 343.167 45.6014 343.666 47.8364H296.608C297.107 45.6014 299.102 43.9309 301.488 43.9309ZM296.488 50.8364H343.786V119.909C343.786 122.671 341.547 124.909 338.786 124.909H301.488C298.726 124.909 296.488 122.671 296.488 119.909V50.8364ZM301.102 59.4727H326.02V57.4727H301.102V59.4727ZM338.48 80.6691H301.102V78.6691H338.48V80.6691ZM301.102 84.3236H335.711V82.3236H301.102V84.3236ZM333.634 95.2873H301.102V93.2873H333.634V95.2873ZM301.102 98.9418H321.175V96.9418H301.102V98.9418ZM338.48 87.9782H301.102V85.9782H338.48V87.9782ZM301.102 91.6327H329.481V89.6327H301.102V91.6327ZM326.02 66.7818H301.102V64.7818H326.02V66.7818ZM301.102 63.1273H326.02V61.1273H301.102V63.1273ZM132.514 97.2873H14.9219C12.1605 97.2873 9.92188 99.5259 9.92188 102.287V182.767C9.92188 185.529 12.1605 187.767 14.9219 187.767H132.514C135.275 187.767 137.514 185.529 137.514 182.767V102.287C137.514 99.5259 135.275 97.2873 132.514 97.2873ZM19.075 101.673H128.361C131.122 101.673 133.361 103.911 133.361 106.673V178.382C133.361 181.143 131.122 183.382 128.361 183.382H19.075C16.3136 183.382 14.075 181.143 14.075 178.382V106.673C14.075 103.911 16.3136 101.673 19.075 101.673ZM11.075 106.673C11.075 102.254 14.6567 98.6727 19.075 98.6727H128.361C132.779 98.6727 136.361 102.254 136.361 106.673V178.382C136.361 182.8 132.779 186.382 128.361 186.382H19.075C14.6567 186.382 11.075 182.8 11.075 178.382V106.673ZM120.055 107.982H27.3813C24.9293 107.982 22.8209 109.453 21.8901 111.56H125.546C124.615 109.453 122.507 107.982 120.055 107.982ZM126.04 113.56H21.3958C21.3862 113.699 21.3813 113.84 21.3813 113.982V171.073C21.3813 174.386 24.0675 177.073 27.3813 177.073H120.055C123.368 177.073 126.055 174.386 126.055 171.073V113.982C126.055 113.84 126.05 113.699 126.04 113.56ZM27.3813 105.982C22.963 105.982 19.3813 109.564 19.3813 113.982V171.073C19.3813 175.491 22.963 179.073 27.3813 179.073H120.055C124.473 179.073 128.055 175.491 128.055 171.073V113.982C128.055 109.564 124.473 105.982 120.055 105.982H27.3813ZM24.5727 111.098C25.1461 111.098 25.6109 110.607 25.6109 110.002C25.6109 109.396 25.1461 108.905 24.5727 108.905C23.9992 108.905 23.5344 109.396 23.5344 110.002C23.5344 110.607 23.9992 111.098 24.5727 111.098ZM32.5328 110.002C32.5328 110.607 32.068 111.098 31.4945 111.098C30.9211 111.098 30.4563 110.607 30.4563 110.002C30.4563 109.396 30.9211 108.905 31.4945 108.905C32.068 108.905 32.5328 109.396 32.5328 110.002ZM28.0336 111.098C28.607 111.098 29.0719 110.607 29.0719 110.002C29.0719 109.396 28.607 108.905 28.0336 108.905C27.4602 108.905 26.9953 109.396 26.9953 110.002C26.9953 110.607 27.4602 111.098 28.0336 111.098ZM38.4164 111.002H115.941V109.002H38.4164V111.002ZM45.2984 123.062H32.2266C28.3606 123.062 25.2266 126.196 25.2266 130.062V146.222C25.2266 150.088 28.3606 153.222 32.2266 153.222H45.2984C49.1644 153.222 52.2984 150.088 52.2984 146.222V130.062C52.2984 126.196 49.1644 123.062 45.2984 123.062ZM32.2266 122.062C27.8083 122.062 24.2266 125.644 24.2266 130.062V146.222C24.2266 150.64 27.8083 154.222 32.2266 154.222H45.2984C49.7167 154.222 53.2984 150.64 53.2984 146.222V130.062C53.2984 125.644 49.7167 122.062 45.2984 122.062H32.2266ZM24.2266 157.28H53.2984V156.28H24.2266V157.28ZM24.2266 160.204H53.2984V159.204H24.2266V160.204ZM24.2266 163.127H53.2984V162.127H24.2266V163.127ZM80.6 123.062H67.5281C63.6621 123.062 60.5281 126.196 60.5281 130.062V146.222C60.5281 150.088 63.6621 153.222 67.5281 153.222H80.6C84.466 153.222 87.6 150.088 87.6 146.222V130.062C87.6 126.196 84.466 123.062 80.6 123.062ZM67.5281 122.062C63.1099 122.062 59.5281 125.644 59.5281 130.062V146.222C59.5281 150.64 63.1098 154.222 67.5281 154.222H80.6C85.0183 154.222 88.6 150.64 88.6 146.222V130.062C88.6 125.644 85.0183 122.062 80.6 122.062H67.5281ZM59.5281 157.28H88.6V156.28H59.5281V157.28ZM59.5281 160.204H88.6V159.204H59.5281V160.204ZM59.5281 163.127H88.6V162.127H59.5281V163.127ZM115.209 123.062H102.138C98.2715 123.062 95.1375 126.196 95.1375 130.062V146.222C95.1375 150.088 98.2715 153.222 102.138 153.222H115.209C119.075 153.222 122.209 150.088 122.209 146.222V130.062C122.209 126.196 119.075 123.062 115.209 123.062ZM102.138 122.062C97.7192 122.062 94.1375 125.644 94.1375 130.062V146.222C94.1375 150.64 97.7192 154.222 102.138 154.222H115.209C119.628 154.222 123.209 150.64 123.209 146.222V130.062C123.209 125.644 119.628 122.062 115.209 122.062H102.138ZM94.1375 157.28H123.209V156.28H94.1375V157.28ZM94.1375 160.204H123.209V159.204H94.1375V160.204ZM94.1375 163.127H123.209V162.127H94.1375V163.127ZM354.786 136.756H374.087C375.143 136.756 376.122 137.083 376.929 137.642H351.944C352.751 137.083 353.73 136.756 354.786 136.756ZM350.874 138.642H377.999C378.68 139.496 379.087 140.579 379.087 141.756V148.605H359.245V149.105C359.245 146.683 357.386 144.72 355.092 144.72C352.959 144.72 351.201 146.419 350.966 148.605H349.786V141.756C349.786 140.579 350.193 139.496 350.874 138.642ZM359.245 149.105V149.605H379.087V166.878H349.786V149.605H350.966C351.201 151.792 352.959 153.491 355.092 153.491C357.386 153.491 359.245 151.527 359.245 149.105ZM349.786 167.878H379.087V193C379.087 194.178 378.68 195.26 377.999 196.115H364.091V195.634H358.553V196.115H357.128C356.904 194.738 355.768 193.691 354.4 193.691C353.032 193.691 351.896 194.738 351.672 196.115H350.874C350.193 195.26 349.786 194.178 349.786 193V167.878ZM356.621 196.115C356.403 195 355.473 194.191 354.4 194.191C353.327 194.191 352.397 195 352.179 196.115H356.621ZM351.944 197.115C352.751 197.673 353.73 198 354.786 198H374.087C375.143 198 376.122 197.673 376.929 197.115H351.944ZM357.076 151.736C357.782 151.124 358.245 150.187 358.245 149.105C358.245 147.184 356.783 145.72 355.092 145.72C353.401 145.72 351.939 147.184 351.939 149.105C351.939 150.187 352.402 151.124 353.109 151.736V147.899H353.572L355.089 151.666H355.107L356.624 147.899H357.076V151.736ZM356.774 151.967C356.282 152.301 355.702 152.491 355.092 152.491C354.477 152.491 353.891 152.297 353.396 151.957V148.971C353.396 148.717 353.388 148.469 353.372 148.227H353.396L354.993 152.182H355.183L356.786 148.233H356.809C356.786 148.475 356.774 148.709 356.774 148.936V151.967ZM363.398 155.453H351.977V154.453H363.398V155.453ZM357.861 157.28H351.977V156.28H357.861V157.28ZM364.091 159.473H351.977V158.473H364.091V159.473ZM358.553 161.665H351.977V160.665H358.553V161.665ZM369.628 163.493H351.977V162.493H369.628V163.493ZM366.859 165.32H351.977V164.32H366.859V165.32ZM356.669 172.495C356.669 173.859 355.628 174.918 354.4 174.918C353.172 174.918 352.131 173.859 352.131 172.495C352.131 171.13 353.172 170.071 354.4 170.071C355.628 170.071 356.669 171.13 356.669 172.495ZM357.169 172.495C357.169 174.109 355.929 175.418 354.4 175.418C352.871 175.418 351.631 174.109 351.631 172.495C351.631 170.88 352.871 169.571 354.4 169.571C355.929 169.571 357.169 170.88 357.169 172.495ZM373.435 170.552H358.553V170.052H373.435V170.552ZM358.553 173.706V174.206H369.628V173.706H358.553ZM373.435 173.475H358.553V172.975H373.435V173.475ZM358.553 172.745H371.012V172.245H358.553V172.745ZM364.091 172.014H358.553V171.514H364.091V172.014ZM356.669 180.535C356.669 181.899 355.628 182.958 354.4 182.958C353.172 182.958 352.131 181.899 352.131 180.535C352.131 179.17 353.172 178.111 354.4 178.111C355.628 178.111 356.669 179.17 356.669 180.535ZM357.169 180.535C357.169 182.149 355.929 183.458 354.4 183.458C352.871 183.458 351.631 182.149 351.631 180.535C351.631 178.92 352.871 177.611 354.4 177.611C355.929 177.611 357.169 178.92 357.169 180.535ZM373.435 178.592H358.553V178.092H373.435V178.592ZM358.553 181.746V182.246H369.628V181.746H358.553ZM373.435 181.515H358.553V181.015H373.435V181.515ZM358.553 180.785H371.012V180.285H358.553V180.785ZM364.091 180.054H358.553V179.554H364.091V180.054ZM356.669 188.575C356.669 189.939 355.628 190.998 354.4 190.998C353.172 190.998 352.131 189.939 352.131 188.575C352.131 187.21 353.172 186.151 354.4 186.151C355.628 186.151 356.669 187.21 356.669 188.575ZM357.169 188.575C357.169 190.189 355.929 191.498 354.4 191.498C352.871 191.498 351.631 190.189 351.631 188.575C351.631 186.96 352.871 185.651 354.4 185.651C355.929 185.651 357.169 186.96 357.169 188.575ZM373.435 186.632H358.553V186.132H373.435V186.632ZM358.553 189.786V190.286H369.628V189.786H358.553ZM373.435 189.555H358.553V189.055H373.435V189.555ZM358.553 188.825H371.012V188.325H358.553V188.825ZM364.091 188.094H358.553V187.594H364.091V188.094ZM358.553 194.672H373.435V194.172H358.553V194.672ZM393.999 119.138H391.778L392.59 116.138L394.547 108.905H398.574L398.783 108.098L400.084 103.058H434.694L435.995 108.098L436.204 108.905H440.231L442.188 116.138L443 119.138H440.779L440.726 119.945L435.386 201H399.392L394.052 119.945L393.999 119.138ZM400.09 165.955L402.201 198H432.577L434.688 165.955H400.09ZM399.892 162.955H434.886L436.325 141.104H398.453L399.892 162.955ZM398.255 138.104H436.523L437.719 119.945H397.059L398.255 138.104ZM395.698 116.138L396.843 111.905H437.935L439.08 116.138H395.698ZM402.408 106.058L401.881 108.098H432.897L432.37 106.058H402.408ZM417.389 158.8C420.771 158.8 423.695 155.873 423.695 152.029C423.695 148.186 420.771 145.258 417.389 145.258C414.007 145.258 411.083 148.186 411.083 152.029C411.083 155.873 414.007 158.8 417.389 158.8ZM417.389 160.8C421.976 160.8 425.695 156.873 425.695 152.029C425.695 147.185 421.976 143.258 417.389 143.258C412.802 143.258 409.083 147.185 409.083 152.029C409.083 156.873 412.802 160.8 417.389 160.8Z" fill="#6A5ACD"/>
</svg>
